<?xml version="1.0" encoding="UTF-8"?>
<svg version="1.1" xmlns="http://www.w3.org/2000/svg" width="512" height="512">
<path d="M0 0 C1.485 5.94 1.485 5.94 3 12 C3.95253662 11.85377197 4.90507324 11.70754395 5.88647461 11.55688477 C9.45894534 11.00896295 13.03178579 10.4634847 16.60473633 9.91870117 C18.14389895 9.68367885 19.68296384 9.44801549 21.22192383 9.21166992 C26.14534358 8.45581872 31.07094323 7.71824399 36 7 C37.27725952 6.81135376 37.27725952 6.81135376 38.58032227 6.61889648 C45.38283898 5.73065221 52.21432914 5.8901708 59.0625 5.9375 C60.30966797 5.94201172 61.55683594 5.94652344 62.84179688 5.95117188 C65.89455223 5.96286826 68.94728261 5.98080052 72 6 C72 11.61 72 17.22 72 23 C73.670625 23.0825 75.34125 23.165 77.0625 23.25 C95.71852802 24.89033072 112.97745377 32.62853301 127 45 C128.82421875 47.265625 128.82421875 47.265625 130 49 C129.65066406 49.4846875 129.30132812 49.969375 128.94140625 50.46875 C126.27461264 54.39717119 123.87554938 58.14362345 123.55078125 62.96875 C124.34772099 66.57230361 127.08699742 68.64344482 129.60546875 71.21484375 C147.80207135 92.37989702 148.44793617 121.86100065 146.79785156 148.23046875 C145.43917171 163.42717468 141.82053044 178.53840869 137 193 C138.1709957 195.24727895 138.1709957 195.24727895 139.875 197.5 C144.78757079 204.35474995 144.64380049 210.72256514 144 219 C142.21031111 225.77063024 137.11367437 231.58824081 131.12109375 235.1015625 C125.84500838 237.38253678 120.66558762 237.31346489 115 237 C114.73316406 237.86367187 114.46632813 238.72734375 114.19140625 239.6171875 C105.44524182 264.4505593 84.05105332 285.27535275 60.90478516 297.09619141 C53.98265719 300.38069765 46.48817555 303.34651961 39 305 C38.1930951 312.4235251 40.94912125 318.03385763 45.4453125 323.87890625 C49.94052445 328.38457218 55.41762456 330.71421593 61.125 333.3125 C82.58873687 343.10017935 98.79088316 358.88522776 111 379 C111.36673828 379.60247559 111.73347656 380.20495117 112.11132812 380.82568359 C130.59666161 411.84734131 137.27762293 449.61174625 141 485 C141.09861328 485.84981445 141.19722656 486.69962891 141.29882812 487.57519531 C142.17934957 495.83547166 142 503.53167636 142 512 C54.88 512 -32.24 512 -122 512 C-122 501.89153026 -121.89406869 492.38880698 -120.75 482.4375 C-120.61505127 481.23641602 -120.48010254 480.03533203 -120.34106445 478.79785156 C-114.57205258 429.36412039 -101.32213617 377.98658837 -61.46875 344.8984375 C-52.89996324 338.64322317 -43.13468441 333.87673164 -33.5 329.5 C-27.34094885 326.44609444 -23.05456939 321.60171703 -20.0625 315.4375 C-18.92726098 311.76466789 -18.92280296 308.81898305 -19 305 C-19.88558594 304.74347656 -20.77117187 304.48695313 -21.68359375 304.22265625 C-49.11865129 295.7437675 -74.20384757 277.63945517 -88 252 C-88.58817708 250.68025132 -89.15743412 249.35190037 -89.70703125 248.015625 C-91.19794623 244.41964997 -92.63585376 241.13260678 -95 238 C-98.41002954 236.69578286 -101.27421305 236.38715577 -104.91015625 236.19140625 C-110.77435277 235.82813744 -114.33828744 232.93232677 -118.25 228.6875 C-123.88088841 221.55102645 -124.87529065 214.89484548 -124 206 C-123.05842265 201.85160124 -121.70212114 198.72109738 -118.6875 195.625 C-116.77487732 193.23510507 -116.77487732 193.23510507 -117.16723633 190.98681641 C-117.43443481 189.80611572 -117.43443481 189.80611572 -117.70703125 188.6015625 C-117.90530518 187.70937012 -118.1035791 186.81717773 -118.30786133 185.89794922 C-119.26031311 181.91008232 -120.2193197 177.92450144 -121.20849609 173.94555664 C-127.73147312 147.61019379 -129.40263084 122.57328543 -123 96 C-122.81808105 95.23896973 -122.63616211 94.47793945 -122.44873047 93.69384766 C-117.8267009 75.03637888 -109.84220393 57.44747942 -97 43 C-93.60807637 43.59283621 -91.7892243 44.76743189 -89.25 47.0625 C-88.32960938 47.88427734 -88.32960938 47.88427734 -87.390625 48.72265625 C-86.70226562 49.35494141 -86.70226562 49.35494141 -86 50 C-83.33442294 47.34425902 -80.68159862 44.67837815 -78.0546875 41.984375 C-58.06139056 21.57716413 -30.3089546 -0.59429323 0 0 Z " fill="#DFB29E" transform="translate(246,0)"/>
<path d="M0 0 C3.72970338 1.15281741 7.02954711 2.86906717 10.48046875 4.67578125 C40.03242124 19.70298736 76.44967522 23.12853845 108.2590332 12.91137695 C115.65597024 10.39108166 122.63793212 7.16603733 129.52978516 3.49145508 C136.30546096 -0.09603116 136.30546096 -0.09603116 139.79296875 -0.13671875 C142.15234375 1.41796875 142.15234375 1.41796875 144.54296875 3.73828125 C145.41566406 4.58003906 146.28835938 5.42179687 147.1875 6.2890625 C148.04730469 7.13855469 148.90710938 7.98804688 149.79296875 8.86328125 C150.53933594 9.53746094 151.28570312 10.21164062 152.0546875 10.90625 C185.87080415 42.29392021 195.21675836 96.35772246 199.79296875 139.86328125 C199.89158203 140.7130957 199.99019531 141.56291016 200.09179688 142.43847656 C200.97231832 150.69875291 200.79296875 158.39495761 200.79296875 166.86328125 C113.67296875 166.86328125 26.55296875 166.86328125 -63.20703125 166.86328125 C-63.20703125 156.75481151 -63.10109994 147.25208823 -61.95703125 137.30078125 C-61.82208252 136.09969727 -61.68713379 134.89861328 -61.5480957 133.66113281 C-55.74700226 83.9524998 -42.51120193 36.97308894 -5.20703125 1.86328125 C-2.20703125 -0.13671875 -2.20703125 -0.13671875 0 0 Z " fill="#273C82" transform="translate(187.20703125,345.13671875)"/>
<path d="M0 0 C1.485 5.94 1.485 5.94 3 12 C3.95253662 11.85377197 4.90507324 11.70754395 5.88647461 11.55688477 C9.45894534 11.00896295 13.03178579 10.4634847 16.60473633 9.91870117 C18.14389895 9.68367885 19.68296384 9.44801549 21.22192383 9.21166992 C26.14534358 8.45581872 31.07094323 7.71824399 36 7 C37.27725952 6.81135376 37.27725952 6.81135376 38.58032227 6.61889648 C45.38283898 5.73065221 52.21432914 5.8901708 59.0625 5.9375 C60.30966797 5.94201172 61.55683594 5.94652344 62.84179688 5.95117188 C65.89455223 5.96286826 68.94728261 5.98080052 72 6 C72 11.61 72 17.22 72 23 C73.670625 23.0825 75.34125 23.165 77.0625 23.25 C95.71852802 24.89033072 112.97745377 32.62853301 127 45 C128.82421875 47.265625 128.82421875 47.265625 130 49 C129.65066406 49.4846875 129.30132812 49.969375 128.94140625 50.46875 C126.27461264 54.39717119 123.87554938 58.14362345 123.55078125 62.96875 C124.34772099 66.57230361 127.08699742 68.64344482 129.60546875 71.21484375 C147.80207135 92.37989702 148.44793617 121.86100065 146.79785156 148.23046875 C145.84215766 158.91981487 143.62271901 169.29394193 141 179.6875 C140.7510498 180.67492187 140.50209961 181.66234375 140.24560547 182.6796875 C139.99955566 183.59363281 139.75350586 184.50757813 139.5 185.44921875 C139.17515625 186.66097778 139.17515625 186.66097778 138.84375 187.8972168 C137.92093073 190.19705545 136.85982377 191.39235025 135 193 C134.45730469 192.72285156 133.91460937 192.44570312 133.35546875 192.16015625 C132.64003906 191.79792969 131.92460937 191.43570313 131.1875 191.0625 C130.12595703 190.52302734 130.12595703 190.52302734 129.04296875 189.97265625 C126.88189715 188.89269484 126.88189715 188.89269484 124 188 C123.93006836 187.33170166 123.86013672 186.66340332 123.78808594 185.97485352 C120.46501955 154.83579816 114.03571792 123.91905194 88.40234375 102.953125 C85.33120276 100.54434636 82.19082602 98.24727492 79 96 C79.61121818 98.51645681 80.29646017 100.95913586 81.0625 103.4375 C82.70915738 109.98726405 82.65620079 117.22297025 81.50390625 123.85546875 C80.86877879 127.81886101 80.76731934 131.67912856 80.75 135.6875 C80.74605225 136.47970947 80.74210449 137.27191895 80.73803711 138.08813477 C80.79347991 143.6981464 81.56712533 148.61063593 83.44140625 153.93359375 C84 156 84 156 83 159 C65.26147035 149.72850094 50.40734352 138.97628798 37 124 C37 123.34 37 122.68 37 122 C36.34 122 35.68 122 35 122 C35 129.59 35 137.18 35 145 C30.30442948 144.0608859 26.64550905 142.57293009 22.4375 140.4375 C21.73294678 140.08179932 21.02839355 139.72609863 20.30249023 139.35961914 C11.09296978 134.61551051 2.74429963 128.8158356 -5.2578125 122.25 C-6.91346211 120.80567994 -6.91346211 120.80567994 -9 121 C-9 125.62 -9 130.24 -9 135 C-24.8945698 134.08300559 -38.23923322 124.06724431 -49 113 C-58.17832919 102.32189865 -58.17832919 102.32189865 -59 97 C-77.65081138 106.11817445 -89.60040716 126.06870426 -96.5 144.97265625 C-101.26635093 158.91272982 -103.32555974 173.32511014 -104 188 C-104.54269531 188.19335938 -105.08539063 188.38671875 -105.64453125 188.5859375 C-106.35996094 188.84632813 -107.07539063 189.10671875 -107.8125 189.375 C-108.52019531 189.63023437 -109.22789062 189.88546875 -109.95703125 190.1484375 C-112.24773359 191.0265769 -112.24773359 191.0265769 -115 193 C-128.75731728 163.3562568 -130.56149171 127.38298653 -123 96 C-122.81808105 95.23896973 -122.63616211 94.47793945 -122.44873047 93.69384766 C-117.8267009 75.03637888 -109.84220393 57.44747942 -97 43 C-93.60807637 43.59283621 -91.7892243 44.76743189 -89.25 47.0625 C-88.32960938 47.88427734 -88.32960938 47.88427734 -87.390625 48.72265625 C-86.70226562 49.35494141 -86.70226562 49.35494141 -86 50 C-83.33442294 47.34425902 -80.68159862 44.67837815 -78.0546875 41.984375 C-58.06139056 21.57716413 -30.3089546 -0.59429323 0 0 Z " fill="#CF534A" transform="translate(246,0)"/>
<path d="M0 0 C57.42 0 114.84 0 174 0 C174 13.86 174 27.72 174 42 C116.58 42 59.16 42 0 42 C0 28.14 0 14.28 0 0 Z " fill="#ABC2EB" transform="translate(169,437)"/>
<path d="M0 0 C1.65 0 3.3 0 5 0 C5 18.15 5 36.3 5 55 C62.42 55 119.84 55 179 55 C179 36.85 179 18.7 179 0 C180.65 0 182.3 0 184 0 C184 29.04 184 58.08 184 88 C123.28 88 62.56 88 0 88 C0 58.96 0 29.92 0 0 Z " fill="#263C82" transform="translate(164,424)"/>
<path d="M0 0 C2.55908586 0.95338493 4.99746129 2.00677601 7.453125 3.203125 C34.65101738 15.71992693 66.57493128 16.3610981 94.66040039 6.22412109 C98.11276947 4.91013695 101.31743012 3.40268639 104.5625 1.63671875 C107.06170996 0.37390891 108.17888996 -0.11157077 111.02734375 -0.08203125 C113.99361396 1.13879731 116.52933458 2.68133617 119.203125 4.453125 C120.17894531 5.09378906 121.15476562 5.73445313 122.16015625 6.39453125 C123.26423828 7.13509766 123.26423828 7.13509766 124.390625 7.890625 C120.38816792 11.38693478 116.29513417 13.62115618 111.515625 15.828125 C110.76531006 16.17512451 110.01499512 16.52212402 109.24194336 16.87963867 C82.9785851 28.78632191 49.51891667 32.98321935 21.390625 24.890625 C20.17632812 24.5503125 18.96203125 24.21 17.7109375 23.859375 C10.64973563 21.6866975 3.9610407 18.93056238 -2.734375 15.828125 C-3.4452124 15.49981689 -4.1560498 15.17150879 -4.88842773 14.83325195 C-8.88848393 12.91718628 -12.24183723 10.83230683 -15.609375 7.890625 C-13.55741218 6.51764256 -11.49533471 5.16793338 -9.421875 3.828125 C-8.84373047 3.43818359 -8.26558594 3.04824219 -7.66992188 2.64648438 C-5.00933109 0.94791512 -3.20077158 -0.13416408 0 0 Z " fill="#FDFCFC" transform="translate(201.609375,336.109375)"/>
<path d="M0 0 C4.18968306 0.75414295 6.11478209 2.62069613 9.125 5.5625 C13.05505362 11.45758043 12.77590551 18.67895131 12.125 25.5625 C10.90322168 29.53802739 9.09268689 32.49470757 6.3125 35.5625 C3.04583129 37.05583427 0.67167084 36.99805607 -2.875 36.5625 C-6.58780134 34.45295378 -8.84686444 31.91953234 -10.3671875 27.8828125 C-11.78609088 21.39951551 -12.40142633 13.42053939 -9.125 7.4375 C-8.3825 6.48875 -7.64 5.54 -6.875 4.5625 C-6.25625 3.758125 -5.6375 2.95375 -5 2.125 C-2.875 0.5625 -2.875 0.5625 0 0 Z " fill="#030202" transform="translate(312.875,177.4375)"/>
<path d="M0 0 C3.85099795 0.96274949 6.49425635 2.73187739 9 5.75 C12.9009929 12.25781754 12.76756489 18.35269878 12 25.75 C10.80505787 29.80054744 9.00369006 32.64247994 6.1875 35.75 C2.92083129 37.24333427 0.54667084 37.18555607 -3 36.75 C-6.78821129 34.59760722 -8.94032474 32.0444156 -10.5 27.94140625 C-11.96759034 21.50923295 -12.03553892 13.6830988 -9 7.75 C-6.48753648 3.93448863 -4.54254012 1.13563503 0 0 Z " fill="#030202" transform="translate(198,177.25)"/>
<path d="M0 0 C13.2 0 26.4 0 40 0 C38.78084588 6.0957706 36.56392924 8.92159515 32 13 C26.83293786 16.16521859 20.93989664 16.91543066 15 16 C8.96488111 14.14643515 4.25906272 10.42425318 1 5 C0.67 3.35 0.34 1.7 0 0 Z " fill="#CF544B" transform="translate(236,241)"/>
<path d="M0 0 C1.65 0 3.3 0 5 0 C5 29.04 5 58.08 5 88 C3.35 88 1.7 88 0 88 C0 58.96 0 29.92 0 0 Z " fill="#000001" transform="translate(343,424)"/>
<path d="M0 0 C1.65 0 3.3 0 5 0 C5 29.04 5 58.08 5 88 C3.35 88 1.7 88 0 88 C0 58.96 0 29.92 0 0 Z " fill="#000001" transform="translate(164,424)"/>
</svg>
