<?xml version="1.0" encoding="utf-8" standalone="yes"?><!-- Generator: Adobe Illustrator 26.2.1, SVG Export Plug-In . SVG Version: 6.00 Build 0)  --><svg xmlns="http://www.w3.org/2000/svg" xmlns:xlink="http://www.w3.org/1999/xlink" version="1.2" baseProfile="tiny-ps" viewBox="0 0 138 138" xml:space="preserve"><title>Tabby</title><rect width="138" height="138" fill="rgb(59,255,200)" stroke-width="0" stroke="rgb(59,255,200)"></rect><path fill="#292929" d="M91.2,95c-2.7,1.3-5.6,2-8.5,2c-6.4,0-10-1-10.4-6.2v-0.3c0-0.2,0-0.4,0-0.6v-15l0-1.8V62.5h0v-4.5l0-1.8V46  L56.5,48c10.7-2.1,16.9-10.5,16.9-19v-5.2H55.5v24.3l-1,0.3v45c0.6,12.6,8.9,20.2,22.6,20.2c4.9,0,9.7-1,14.2-2.9l0.1,0V94.9  L91.2,95z"></path><path fill="#292929" d="M94,42.3L44.1,50v12.6L94,55V42.3z"></path><path fill="#292929" d="M94,60.8l-49.9,7.7v12.1L94,72.9V60.8z"></path></svg>