<?xml version="1.0" encoding="UTF-8"?>
<svg version="1.1" xmlns="http://www.w3.org/2000/svg" width="225" height="225">
<path d="M0 0 C74.25 0 148.5 0 225 0 C225 74.25 225 148.5 225 225 C150.75 225 76.5 225 0 225 C0 150.75 0 76.5 0 0 Z " fill="#020202" transform="translate(0,0)"/>
<path d="M0 0 C33.33 0 66.66 0 101 0 C96.45438296 6.81842556 93.42567437 8.3770619 86.3125 11.625 C76.42391897 16.54493441 67.89396147 23.82871826 64.13793945 34.43408203 C61.42014601 44.121521 61.82970816 53.38903627 62.21240234 63.33374023 C62.29061701 65.52588396 62.33834207 67.71710766 62.3828125 69.91015625 C62.42809082 71.20058838 62.47336914 72.49102051 62.52001953 73.82055664 C62 77 62 77 59.55786133 78.82348633 C58.71376709 79.21173584 57.86967285 79.59998535 57 80 C54.47353768 83.6954225 54.72173546 86.7718463 55.30078125 91.07421875 C58.87910422 106.04720145 70.7734887 123.24015548 81.01953125 134.390625 C83 137 83 137 82.97265625 139.421875 C82.67230469 140.19015625 82.37195313 140.9584375 82.0625 141.75 C81.73507813 142.6059375 81.40765625 143.461875 81.0703125 144.34375 C80.71710938 145.2203125 80.36390625 146.096875 80 147 C79.74992187 147.8765625 79.49984375 148.753125 79.2421875 149.65625 C77.75165778 154.4606759 76.12332488 157.45178944 71.875 160.25 C62.83066748 164.96417625 52.73106867 167.58523372 43 170.5 C29.4941194 174.57486704 16.16088288 178.60310895 8.98681641 191.87426758 C6.02467161 198.05434708 4.592577 204.37072472 3.25 211.0625 C3.02957031 212.11888672 2.80914062 213.17527344 2.58203125 214.26367188 C2.04563111 216.84072473 1.51850871 219.41929891 1 222 C0.67 222 0.34 222 0 222 C0 148.74 0 75.48 0 0 Z " fill="#FEFEFE" transform="translate(0,0)"/>
<path d="M0 0 C38.61 0 77.22 0 117 0 C117 73.59 117 147.18 117 223 C114.79363339 219.69045008 113.93451935 216.55396039 112.93359375 212.76953125 C112.52697353 211.31140661 112.11871597 209.85373778 111.70898438 208.39648438 C111.07099971 206.1138519 110.44224019 203.83059273 109.84155273 201.5378418 C107.27982637 191.82309259 105.05963112 184.48650549 96 179 C86.8090976 173.77121858 76.48023339 171.35782816 66.35742188 168.5703125 C52.67857333 164.64806202 41.03512598 160.35508619 33 148 C32.34 147.01 31.68 146.02 31 145 C31.28036984 141.30519275 33.15456546 139.48044754 35.65625 136.88671875 C39.95205897 132.20325322 43.24383865 127.25269043 46.5 121.8125 C47.05534424 120.89919922 47.61068848 119.98589844 48.18286133 119.04492188 C58.42971637 104.19923837 58.42971637 104.19923837 63.4375 87.5 C63.49744141 86.40171875 63.49744141 86.40171875 63.55859375 85.28125 C63.15952213 82.71625949 63.15952213 82.71625949 60.48901367 80.76953125 C57.41073879 77.3443277 57.43868074 75.93180922 57.6171875 71.40625 C57.66166016 69.488125 57.66166016 69.488125 57.70703125 67.53125 C57.76085003 66.18741131 57.81684845 64.84365818 57.875 63.5 C58.44224833 48.04631573 57.30467164 33.5461958 46.62890625 21.46484375 C42.83364983 18.05184337 38.40253666 15.54315469 34 13 C33.23945313 12.5565625 32.47890625 12.113125 31.6953125 11.65625 C22.16238861 6.51045025 10.75824384 2.43900077 0 1 C0 0.67 0 0.34 0 0 Z " fill="#FEFEFE" transform="translate(108,0)"/>
<path d="M0 0 C11.98316004 2.85571128 22.65695457 4.15602164 35 4 C33.46511628 18.06976744 33.46511628 18.06976744 31 23 C32.04800781 22.96519531 32.04800781 22.96519531 33.1171875 22.9296875 C34.48230469 22.90261719 34.48230469 22.90261719 35.875 22.875 C37.23238281 22.84019531 37.23238281 22.84019531 38.6171875 22.8046875 C41 23 41 23 43 25 C44.11383462 36.36111317 34.16329616 47.88812387 28.22851562 57.09423828 C27.09780702 58.84827472 25.97806201 60.60936585 24.859375 62.37109375 C17.82971726 73.23385226 10.83240182 82.57149224 -2.01171875 86.63671875 C-10.51920715 88.19113215 -18.33622192 86.95436951 -26 83 C-34.82062755 76.87671725 -41.33253276 67.98593042 -46.875 58.9375 C-47.38458252 58.11330566 -47.89416504 57.28911133 -48.41918945 56.43994141 C-49.45348956 54.76403558 -50.48486209 53.08631916 -51.51318359 51.40673828 C-52.89578484 49.16869508 -54.30977771 46.95501738 -55.73828125 44.74609375 C-63.50541305 32.58119569 -63.50541305 32.58119569 -63 25 C-61.74609375 23.27734375 -61.74609375 23.27734375 -60 22 C-57.27492202 21.60921444 -54.76878044 21.86383047 -52 22 C-52.0721875 21.42894531 -52.144375 20.85789062 -52.21875 20.26953125 C-53.03217777 13.16333588 -53.10081943 6.14697766 -53 -1 C-34.67339773 -8.1394068 -18.5307117 -4.54180651 0 0 Z " fill="#FBFBFB" transform="translate(123,60)"/>
<path d="M0 0 C0.67804688 0.47050781 1.35609375 0.94101563 2.0546875 1.42578125 C12.37422563 8.32929499 21.66047092 11.73786174 34.0859375 9.42578125 C39.46905687 8.16972006 44.09560156 6.59004474 49 4 C50.62558319 6.27041785 52.25048802 8.54131589 53.875 10.8125 C54.33519531 11.45509766 54.79539063 12.09769531 55.26953125 12.75976562 C55.71425781 13.38173828 56.15898437 14.00371094 56.6171875 14.64453125 C57.02565918 15.21534424 57.43413086 15.78615723 57.85498047 16.37426758 C61.16772998 21.07780681 61.24155141 23.16690321 60.59765625 28.76953125 C57.63034827 44.80850967 49.25585666 56.43875047 37.75 67.625 C36.8528125 68.52089844 35.955625 69.41679687 35.03125 70.33984375 C28.42309253 76.85896916 28.42309253 76.85896916 25 78 C9.33548599 63.14805444 -6.26093734 45.78183776 -8.25 23.15625 C-7.93990307 19.24127625 -6.66231817 16.00193306 -5.125 12.4375 C-4.72087891 11.46780273 -4.72087891 11.46780273 -4.30859375 10.47851562 C-3.54574605 8.64954175 -2.77312436 6.82465361 -2 5 C-1.32879759 3.3351548 -0.66003234 1.6693051 0 0 Z " fill="#FAFAFA" transform="translate(86,142)"/>
<path d="M0 0 C6.07216495 5.75257732 6.07216495 5.75257732 7 9 C7 15.03455296 5.63472041 18.20197513 1.86328125 22.84765625 C0 24 0 24 -2.69140625 23.921875 C-6.8116408 22.77385215 -10.44049279 21.1096964 -14.25 19.1875 C-14.96929687 18.84396484 -15.68859375 18.50042969 -16.4296875 18.14648438 C-21.64226388 15.54507687 -21.64226388 15.54507687 -23.484375 12.73828125 C-23.65453125 12.16464844 -23.8246875 11.59101563 -24 11 C-21.50252977 9.72398669 -19.00222064 8.45413829 -16.5 7.1875 C-15.80390625 6.83107422 -15.1078125 6.47464844 -14.390625 6.10742188 C-9.68514633 3.73289792 -4.96453699 1.77225026 0 0 Z " fill="#040404" transform="translate(136,156)"/>
<path d="M0 0 C8.25973477 0.31768211 16.27003959 3.52323227 22.359375 9.19921875 C22.90078125 9.79347656 23.4421875 10.38773438 24 11 C17.53829744 15.20501251 10.67194045 19.52934049 3 21 C-0.20324239 19.9360255 -0.89355022 19.16727823 -2.75 16.25 C-4.10978425 12.71456094 -4.53467156 10.74270089 -4 7 C-2.83671293 4.507242 -1.48967392 2.3276155 0 0 Z " fill="#050505" transform="translate(87,158)"/>
<path d="M0 0 C1.20970459 0.00523682 2.41940918 0.01047363 3.66577148 0.01586914 C4.97094727 0.0190918 6.27612305 0.02231445 7.62084961 0.02563477 C9.00952213 0.03399138 10.39819401 0.04245634 11.78686523 0.05102539 C13.17944179 0.05603873 14.57202005 0.06060193 15.96459961 0.06469727 C19.38456394 0.07653105 22.80444367 0.09301659 26.22436523 0.11352539 C26.26708624 1.77964444 26.26500356 3.44735424 26.22436523 5.11352539 C25.22436523 6.11352539 25.22436523 6.11352539 22.54052734 6.22705078 C21.37271729 6.22181396 20.20490723 6.21657715 19.00170898 6.21118164 C17.74165039 6.20795898 16.4815918 6.20473633 15.18334961 6.20141602 C13.84285415 6.19305942 12.50235936 6.18459446 11.16186523 6.17602539 C9.81746582 6.17101199 8.47306464 6.16644881 7.12866211 6.16235352 C3.82718583 6.15052027 0.5257972 6.1340351 -2.77563477 6.11352539 C-3.15782244 4.45737882 -3.48958578 2.78895515 -3.77563477 1.11352539 C-2.77563477 0.11352539 -2.77563477 0.11352539 0 0 Z " fill="#E7E7E7" transform="translate(179.775634765625,207.886474609375)"/>
<path d="M0 0 C0 1.32 0 2.64 0 4 C-4.75 3.125 -4.75 3.125 -7 2 C-8.64255791 1.87885079 -10.29052478 1.82459233 -11.9375 1.8125 C-13.25041016 1.79123047 -13.25041016 1.79123047 -14.58984375 1.76953125 C-17.26244335 1.83336651 -17.26244335 1.83336651 -20 4 C-22.1875 3.625 -22.1875 3.625 -24 3 C-23.5 1.1875 -23.5 1.1875 -22 -1 C-13.8658164 -5.45887587 -7.78294922 -4.42482392 0 0 Z " fill="#121212" transform="translate(103,79)"/>
<path d="M0 0 C2.51464323 1.07372012 3.93311945 2.16277284 6 4 C5.67 4.99 5.34 5.98 5 7 C2.83125748 6.49396008 1.00032373 6.00016187 -1 5 C-2.62165752 4.87851695 -4.24884327 4.82456348 -5.875 4.8125 C-6.73867187 4.79832031 -7.60234375 4.78414063 -8.4921875 4.76953125 C-11.14897416 5.01369077 -12.67019577 5.76686094 -15 7 C-15.99 7 -16.98 7 -18 7 C-17.8125 5.1875 -17.8125 5.1875 -17 3 C-11.66174211 -0.94150941 -6.40053434 -0.82058133 0 0 Z " fill="#080808" transform="translate(140,76)"/>
<path d="M0 0 C0.825 0.165 1.65 0.33 2.5 0.5 C8.50470492 1.35781499 14.03731689 1.19253662 20 0 C20 0.99 20 1.98 20 3 C16.63062701 5.02808782 13.96789912 5.29772548 10.0625 5.3125 C9.04285156 5.32925781 8.02320312 5.34601563 6.97265625 5.36328125 C3.63129895 4.95494192 1.73659348 3.91007169 -1 2 C-0.67 1.34 -0.34 0.68 0 0 Z " fill="#070707" transform="translate(103,125)"/>
<path d="M0 0 C4.29 0 8.58 0 13 0 C13.33 1.32 13.66 2.64 14 4 C9.38 4 4.76 4 0 4 C0 2.68 0 1.36 0 0 Z " fill="#040404" transform="translate(127,90)"/>
<path d="M0 0 C4.29 0 8.58 0 13 0 C13 1.32 13 2.64 13 4 C8.38 4 3.76 4 -1 4 C-0.67 2.68 -0.34 1.36 0 0 Z " fill="#040404" transform="translate(85,90)"/>
</svg>
