<?xml version="1.0" encoding="UTF-8"?>
<svg version="1.1" xmlns="http://www.w3.org/2000/svg" width="980" height="980">
<path d="M0 0 C323.4 0 646.8 0 980 0 C980 323.4 980 646.8 980 980 C656.6 980 333.2 980 0 980 C0 656.6 0 333.2 0 0 Z " fill="#FEFEFE" transform="translate(0,0)"/>
<path d="M0 0 C2.35172828 0.28637282 4.7013339 0.50062 7.06152344 0.70410156 C61.28229244 6.08495639 116.51525434 36.42284345 151.45605469 77.86425781 C168.81287749 99.14017164 181.46143698 123.53290753 189.25683594 149.79003906 C189.55549561 150.79309082 189.85415527 151.79614258 190.16186523 152.82958984 C191.8320626 158.67357585 192.89353994 164.23016055 193.38183594 170.29003906 C194.23390625 170.52851563 195.08597656 170.76699219 195.96386719 171.01269531 C199.75620568 172.42994638 202.82207884 174.36540083 206.06933594 176.72753906 C206.67874023 177.17000977 207.28814453 177.61248047 207.91601562 178.06835938 C226.34077003 191.77375693 238.7851886 211.08694468 246.19433594 232.60253906 C246.47237061 233.39474854 246.75040527 234.18695801 247.03686523 235.00317383 C251.81447023 249.67340263 252.87403578 264.59709785 252.69433594 279.91503906 C252.68355919 281.65885345 252.67290127 283.40266858 252.66235352 285.14648438 C252.50940771 303.02618444 251.62899858 320.85785484 250.5368042 338.70141602 C250.38013346 341.31847756 250.2332507 343.93591766 250.08935547 346.55371094 C247.73372209 389.20976154 242.38839698 431.33106762 234.38183594 473.29003906 C234.24392639 474.01467346 234.10601685 474.73930786 233.96392822 475.48590088 C230.07906398 495.85134415 225.74159308 515.98553788 220.05273438 535.92578125 C219.37390519 538.31798717 218.70880515 540.71368883 218.04589844 543.11035156 C215.16576005 553.44936168 212.03563561 563.69535132 208.75683594 573.91503906 C208.19851074 575.65696533 208.19851074 575.65696533 207.62890625 577.43408203 C205.36069608 584.44335552 202.95353797 591.38631627 200.38183594 598.29003906 C197.16120523 597.57718074 194.63673387 596.40131787 191.76513672 594.76391602 C171.45250749 583.20222239 148.45357588 576.40790821 125.38183594 573.29003906 C123.73296387 573.03009155 123.73296387 573.03009155 122.05078125 572.76489258 C116.27115397 572.0516051 110.46642348 572.13704239 104.65108681 572.12137413 C102.51926364 572.11412744 100.38766004 572.0984062 98.25590515 572.08003235 C92.20082395 572.02791161 86.14587752 571.97953885 80.09057617 571.96411133 C76.37229734 571.95402228 72.65459518 571.92469396 68.93654442 571.88279152 C67.52564035 571.87050867 66.11465488 571.86535531 64.70369911 571.86758995 C62.73217273 571.86994672 60.76066959 571.84556311 58.78930664 571.82006836 C57.66982132 571.81420212 56.550336 571.80833588 55.39692688 571.80229187 C51.71375026 571.17653378 50.05465792 569.84601474 47.38183594 567.29003906 C45.1992741 564.10512156 45.14599893 561.45871752 45.18652344 557.64941406 C45.19296875 556.57949219 45.19941406 555.50957031 45.20605469 554.40722656 C45.2228125 553.29605469 45.23957031 552.18488281 45.25683594 551.04003906 C45.26585937 549.91339844 45.27488281 548.78675781 45.28417969 547.62597656 C45.30772936 544.84711541 45.34061914 542.06868517 45.38183594 539.29003906 C44.85074219 539.50660156 44.31964844 539.72316406 43.77246094 539.94628906 C43.06605469 540.22472656 42.35964844 540.50316406 41.63183594 540.79003906 C40.93574219 541.06847656 40.23964844 541.34691406 39.52246094 541.63378906 C37.38183594 542.29003906 37.38183594 542.29003906 33.38183594 542.29003906 C33.40495967 545.91638416 33.48270098 549.53969921 33.56933594 553.16503906 C33.57513672 554.17824219 33.5809375 555.19144531 33.58691406 556.23535156 C33.8134698 564.08928364 35.49662532 570.94574307 40.85913086 576.94189453 C45.72898237 581.25347383 50.24125594 582.53984393 56.6237793 582.52954102 C57.86796127 582.53327225 59.11214325 582.53700348 60.39402771 582.54084778 C61.05654478 582.53854471 61.71906185 582.53624165 62.4016552 582.53386879 C64.51499657 582.52820421 66.62780276 582.5375613 68.74110413 582.55107117 C74.75002862 582.58781747 80.75878811 582.60705944 86.76782227 582.59545898 C115.42098153 582.55717079 142.72371145 584.74510033 169.38183594 596.29003906 C170.63577148 596.82419434 170.63577148 596.82419434 171.91503906 597.36914062 C182.54361124 601.95668674 192.28110675 607.34945909 201.69482422 614.08349609 C203.37016029 615.2816887 205.05968552 616.45717836 206.75292969 617.62988281 C212.39324866 621.60325401 212.39324866 621.60325401 214.38183594 623.29003906 C214.38183594 623.95003906 214.38183594 624.61003906 214.38183594 625.29003906 C214.97335449 625.55776123 215.56487305 625.8254834 216.17431641 626.10131836 C219.87878569 628.09612713 222.56378543 631.13403474 225.50683594 634.10253906 C226.17408691 634.77470459 226.84133789 635.44687012 227.52880859 636.1394043 C234.37564861 643.14722018 240.54318051 650.50628795 245.60449219 658.93066406 C250.45358415 666.9943346 255.36856638 672.16640307 263.38183594 677.29003906 C265.06335264 678.60459494 266.73441861 679.93299385 268.38183594 681.29003906 C269.22101563 680.43732422 269.22101563 680.43732422 270.07714844 679.56738281 C281.36725753 668.69475364 295.15567885 662.38252292 310.88183594 661.91503906 C323.01765419 662.26301951 333.14403199 665.73025729 342.25683594 673.85253906 C342.95808594 674.65691406 343.65933594 675.46128906 344.38183594 676.29003906 C345.43371094 677.37285156 345.43371094 677.37285156 346.50683594 678.47753906 C352.05080698 686.79349563 352.49210963 696.66282401 350.87792969 706.29785156 C346.47331441 725.57748186 335.67771462 742.12850931 323.38183594 757.29003906 C322.71539063 758.14855469 322.04894531 759.00707031 321.36230469 759.89160156 C312.58660631 771.15166262 302.56893202 781.19775885 292.50683594 791.29003906 C291.99684052 791.80271332 291.48684509 792.31538757 290.96139526 792.84359741 C289.48212117 794.32875497 287.9990722 795.81003036 286.51464844 797.29003906 C285.64727051 798.15628906 284.77989258 799.02253906 283.88623047 799.91503906 C281.50464316 802.17357692 278.94481717 804.23965408 276.38183594 806.29003906 C276.05183594 830.71003906 275.72183594 855.13003906 275.38183594 880.29003906 C71.11183594 880.29003906 -133.15816406 880.29003906 -343.61816406 880.29003906 C-343.61816406 715.41413327 -343.61816406 715.41413327 -326.61816406 680.29003906 C-326.27269531 679.5678418 -325.92722656 678.84564453 -325.57128906 678.1015625 C-320.12078947 666.8395694 -313.42757407 657.04121972 -305.61816406 647.29003906 C-304.95107422 646.44940918 -304.95107422 646.44940918 -304.27050781 645.59179688 C-296.49079757 635.80768117 -296.49079757 635.80768117 -292.61816406 632.29003906 C-291.95816406 632.29003906 -291.29816406 632.29003906 -290.61816406 632.29003906 C-290.61816406 631.63003906 -290.61816406 630.97003906 -290.61816406 630.29003906 C-287.6538249 627.53361948 -284.43726702 625.0812753 -281.25634766 622.57958984 C-279.64743127 621.31307772 -278.04875736 620.03442383 -276.45019531 618.75488281 C-250.28409818 598.00315193 -215.49673002 583.17735031 -181.64819336 583.1640625 C-180.99023773 583.16219437 -180.3322821 583.16032623 -179.65438843 583.15840149 C-178.2379921 583.15442584 -176.82158947 583.15232528 -175.40518761 583.15193939 C-172.37841593 583.14848514 -169.35185174 583.12707653 -166.3251543 583.10670853 C-160.70607896 583.06889988 -155.08723519 583.03742014 -149.46801758 583.03955078 C-145.54332688 583.04034244 -141.61941277 583.0167904 -137.69492531 582.97766876 C-136.20999464 582.96728288 -134.72497355 582.96562951 -133.24002647 582.97332001 C-123.03083992 583.02092471 -115.42181043 581.75438243 -107.18066406 575.41503906 C-102.20109701 568.64282787 -102.23343794 562.49949503 -102.43066406 554.35253906 C-102.44419922 553.28712891 -102.45773437 552.22171875 -102.47167969 551.12402344 C-102.50681682 548.51216318 -102.55601222 545.90137273 -102.61816406 543.29003906 C-107.07316406 541.80503906 -107.07316406 541.80503906 -111.61816406 540.29003906 C-111.67423828 542.58521484 -111.67423828 542.58521484 -111.73144531 544.92675781 C-111.79711349 546.94370906 -111.86356054 548.96063506 -111.93066406 550.97753906 C-111.95322266 551.98494141 -111.97578125 552.99234375 -111.99902344 554.03027344 C-112.24310559 560.75362737 -112.80141895 564.63255289 -117.84140015 569.38757324 C-121.14673357 571.65218199 -122.8458298 571.78415999 -126.81591797 571.77246094 C-128.04976227 571.7792688 -129.28360657 571.78607666 -130.55484009 571.79309082 C-131.21142231 571.78741592 -131.86800453 571.78174103 -132.54448318 571.77589417 C-134.63625508 571.75844259 -136.72666573 571.76625134 -138.81845093 571.78015137 C-144.03256526 571.809644 -149.2464168 571.79688547 -154.46057129 571.78497314 C-179.14665459 571.73765552 -204.11632963 571.88796792 -227.61816406 580.47753906 C-228.72063477 580.86192139 -229.82310547 581.24630371 -230.95898438 581.64233398 C-242.19382097 585.66001988 -253.24236445 590.39540825 -263.44628906 596.61425781 C-264.49300781 597.16726563 -265.53972656 597.72027344 -266.61816406 598.29003906 C-267.60816406 597.96003906 -268.59816406 597.63003906 -269.61816406 597.29003906 C-270.56616211 595.38598633 -270.56616211 595.38598633 -271.37988281 592.85644531 C-271.68982178 591.91196533 -271.99976074 590.96748535 -272.3190918 589.99438477 C-272.64466064 588.95757568 -272.97022949 587.9207666 -273.30566406 586.85253906 C-273.6537915 585.76996826 -274.00191895 584.68739746 -274.3605957 583.57202148 C-275.09351809 581.28260731 -275.82051226 578.99128802 -276.54199219 576.69824219 C-277.54259485 573.52936443 -278.56903684 570.37018134 -279.60253906 567.21191406 C-284.95706847 550.60604417 -289.07868614 533.75230916 -293.07475281 516.78085327 C-294.1002954 512.43413741 -295.1620531 508.09995632 -296.27441406 503.77441406 C-300.99369329 485.2750852 -304.07610996 466.48359046 -307.21890259 447.66564941 C-307.6147111 445.31058422 -308.01818852 442.95694769 -308.42358398 440.60351562 C-310.05753802 431.06598248 -311.44719136 421.53053374 -312.55566406 411.91503906 C-312.63709656 411.21193604 -312.71852905 410.50883301 -312.8024292 409.78442383 C-317.63411455 367.83803108 -320.73008188 325.90025373 -320.86816406 283.66503906 C-320.87352173 282.75141602 -320.87887939 281.83779297 -320.88439941 280.89648438 C-320.95065758 266.13496912 -320.49058776 251.5490979 -315.99316406 237.35253906 C-315.73446533 236.51972412 -315.4757666 235.68690918 -315.20922852 234.82885742 C-308.05359745 212.654195 -293.57346975 186.61693698 -272.20410156 175.51660156 C-270.4909375 174.66195312 -270.4909375 174.66195312 -268.74316406 173.79003906 C-263.77608771 170.87202849 -261.8077804 168.53572717 -260.19384766 163.1730957 C-259.41301288 160.02558318 -258.73636293 156.86707499 -258.11425781 153.68457031 C-257.3193672 149.84781485 -256.23247102 146.10692889 -255.11816406 142.35253906 C-254.90909424 141.6411377 -254.70002441 140.92973633 -254.48461914 140.19677734 C-252.70477306 134.28517042 -250.38899198 128.80904508 -247.61816406 123.29003906 C-247.02447379 122.05756382 -246.43212073 120.8244439 -245.84082031 119.59082031 C-236.33002573 99.93533824 -224.76575958 83.033215 -209.61816406 67.29003906 C-209.09287109 66.74283203 -208.56757813 66.195625 -208.02636719 65.63183594 C-201.28223495 58.64712824 -194.44567381 52.07333965 -186.61816406 46.29003906 C-185.88984375 45.74476562 -185.16152344 45.19949219 -184.41113281 44.63769531 C-131.39996222 6.2565241 -64.58227036 -8.30380663 0 0 Z " fill="#151716" transform="translate(482.6181640625,50.7099609375)"/>
<path d="M0 0 C2.35172828 0.28637282 4.7013339 0.50062 7.06152344 0.70410156 C61.28229244 6.08495639 116.51525434 36.42284345 151.45605469 77.86425781 C168.81287749 99.14017164 181.46143698 123.53290753 189.25683594 149.79003906 C189.55549561 150.79309082 189.85415527 151.79614258 190.16186523 152.82958984 C191.8320626 158.67357585 192.89353994 164.23016055 193.38183594 170.29003906 C194.23390625 170.52851563 195.08597656 170.76699219 195.96386719 171.01269531 C199.75620568 172.42994638 202.82207884 174.36540083 206.06933594 176.72753906 C206.67874023 177.17000977 207.28814453 177.61248047 207.91601562 178.06835938 C226.34077003 191.77375693 238.7851886 211.08694468 246.19433594 232.60253906 C246.47237061 233.39474854 246.75040527 234.18695801 247.03686523 235.00317383 C251.81447023 249.67340263 252.87403578 264.59709785 252.69433594 279.91503906 C252.68355919 281.65885345 252.67290127 283.40266858 252.66235352 285.14648438 C252.50940771 303.02618444 251.62899858 320.85785484 250.5368042 338.70141602 C250.38013346 341.31847756 250.2332507 343.93591766 250.08935547 346.55371094 C247.73372209 389.20976154 242.38839698 431.33106762 234.38183594 473.29003906 C234.24392639 474.01467346 234.10601685 474.73930786 233.96392822 475.48590088 C230.07906398 495.85134415 225.74159308 515.98553788 220.05273438 535.92578125 C219.37390519 538.31798717 218.70880515 540.71368883 218.04589844 543.11035156 C215.16576005 553.44936168 212.03563561 563.69535132 208.75683594 573.91503906 C208.19851074 575.65696533 208.19851074 575.65696533 207.62890625 577.43408203 C205.36069608 584.44335552 202.95353797 591.38631627 200.38183594 598.29003906 C197.16120523 597.57718074 194.63673387 596.40131787 191.76513672 594.76391602 C171.45250749 583.20222239 148.45357588 576.40790821 125.38183594 573.29003906 C123.73296387 573.03009155 123.73296387 573.03009155 122.05078125 572.76489258 C116.27115397 572.0516051 110.46642348 572.13704239 104.65108681 572.12137413 C102.51926364 572.11412744 100.38766004 572.0984062 98.25590515 572.08003235 C92.20082395 572.02791161 86.14587752 571.97953885 80.09057617 571.96411133 C76.37229734 571.95402228 72.65459518 571.92469396 68.93654442 571.88279152 C67.52564035 571.87050867 66.11465488 571.86535531 64.70369911 571.86758995 C62.73217273 571.86994672 60.76066959 571.84556311 58.78930664 571.82006836 C57.66982132 571.81420212 56.550336 571.80833588 55.39692688 571.80229187 C51.71375026 571.17653378 50.05465792 569.84601474 47.38183594 567.29003906 C45.1992741 564.10512156 45.14599893 561.45871752 45.18652344 557.64941406 C45.19296875 556.57949219 45.19941406 555.50957031 45.20605469 554.40722656 C45.2228125 553.29605469 45.23957031 552.18488281 45.25683594 551.04003906 C45.26585937 549.91339844 45.27488281 548.78675781 45.28417969 547.62597656 C45.30772936 544.84711541 45.34061914 542.06868517 45.38183594 539.29003906 C44.76824219 539.15726563 44.15464844 539.02449219 43.52246094 538.88769531 C40.97520587 538.17650914 39.41001517 536.95604344 37.38183594 535.29003906 C38.04183594 534.30003906 38.70183594 533.31003906 39.38183594 532.29003906 C39.46304687 531.47148438 39.54425781 530.65292969 39.62792969 529.80957031 C40.38183594 527.29003906 40.38183594 527.29003906 42.97949219 525.55175781 C44.12289063 525.03226563 45.26628906 524.51277344 46.44433594 523.97753906 C47.72832937 523.37366843 49.01217807 522.76948997 50.29589844 522.16503906 C51.30378418 521.70291016 51.30378418 521.70291016 52.33203125 521.23144531 C64.05859056 515.8458316 74.86776596 509.77749379 85.38183594 502.29003906 C86.0421582 501.82581543 86.70248047 501.3615918 87.3828125 500.88330078 C96.78404108 494.23667271 105.12067993 487.05704356 113.03564453 478.69677734 C114.26724835 477.40978039 115.53578396 476.15838955 116.80761719 474.91113281 C129.93428894 461.54543214 140.92101623 445.97894963 149.38183594 429.29003906 C149.78885742 428.4937207 150.19587891 427.69740234 150.61523438 426.87695312 C159.8165455 408.70418951 166.6463079 390.33081928 170.38183594 370.29003906 C170.5260498 369.52385254 170.67026367 368.75766602 170.81884766 367.96826172 C172.58416126 358.42683106 173.88485652 348.98970629 174.38183594 339.29003906 C173.22683594 339.37253906 172.07183594 339.45503906 170.88183594 339.54003906 C163.48547059 339.52844601 156.43546232 337.31510708 149.38183594 335.29003906 C148.1146875 334.9278125 146.84753906 334.56558594 145.54199219 334.19238281 C132.68319378 330.21195728 120.46146877 324.35627973 110.38183594 315.29003906 C109.48851562 314.48953125 108.59519531 313.68902344 107.67480469 312.86425781 C92.6121429 298.62581828 85.6977637 279.88317508 79.22167969 260.65161133 C77.07296542 254.12273404 77.07296542 254.12273404 72.38183594 249.29003906 C61.87929665 246.41031055 48.74428612 254.24182635 39.63183594 258.66503906 C38.01728516 259.44560669 38.01728516 259.44560669 36.37011719 260.24194336 C22.41782299 267.10107516 9.17915942 275.1405892 -4.08300781 283.23144531 C-25.51207235 296.27466377 -46.7524602 305.64946832 -70.61816406 313.29003906 C-71.73989014 313.65645508 -71.73989014 313.65645508 -72.88427734 314.03027344 C-87.13856297 318.62906769 -101.78166823 320.53402869 -116.61816406 322.29003906 C-118.11428223 322.47010498 -118.11428223 322.47010498 -119.640625 322.65380859 C-160.19263312 327.32431966 -202.35210885 324.16738253 -242.61816406 318.29003906 C-242.6562436 348.42727508 -240.11502115 377.08433506 -228.61816406 405.29003906 C-228.0053854 406.86655145 -227.39341659 408.44337885 -226.78222656 410.02050781 C-219.51580947 428.37243563 -210.00363593 444.93480055 -197.61816406 460.29003906 C-197.17633789 460.84079102 -196.73451172 461.39154297 -196.27929688 461.95898438 C-194.38975518 464.30755912 -192.48287458 466.64024516 -190.55566406 468.95800781 C-189.20443887 470.58438168 -187.8821905 472.23507997 -186.58300781 473.90332031 C-184.87855852 475.97373486 -183.25116981 477.60685656 -181.18066406 479.29003906 C-179.08545986 481.00120352 -177.16610147 482.74284763 -175.25097656 484.66113281 C-157.69407775 502.19198282 -135.6443453 515.37243119 -112.84863281 524.87988281 C-109.61816406 526.29003906 -109.61816406 526.29003906 -106.61816406 528.29003906 C-108.26816406 528.62003906 -109.91816406 528.95003906 -111.61816406 529.29003906 C-111.41191406 530.21816406 -111.20566406 531.14628906 -110.99316406 532.10253906 C-110.61816406 535.29003906 -110.61816406 535.29003906 -112.61816406 538.29003906 C-112.84546477 540.82553486 -112.84546477 540.82553486 -112.70800781 543.65722656 C-112.68802734 544.7078125 -112.66804687 545.75839844 -112.64746094 546.84082031 C-112.58647551 549.04927123 -112.5213999 551.25761314 -112.45214844 553.46582031 C-112.43345703 554.51898437 -112.41476562 555.57214844 -112.39550781 556.65722656 C-112.3528479 558.09751221 -112.3528479 558.09751221 -112.30932617 559.56689453 C-112.80862756 563.96943027 -114.68250266 566.3986708 -117.84321594 569.40975952 C-121.14558015 571.64741139 -122.8617518 571.78411307 -126.81591797 571.77246094 C-128.04976227 571.7792688 -129.28360657 571.78607666 -130.55484009 571.79309082 C-131.21142231 571.78741592 -131.86800453 571.78174103 -132.54448318 571.77589417 C-134.63625508 571.75844259 -136.72666573 571.76625134 -138.81845093 571.78015137 C-144.03256526 571.809644 -149.2464168 571.79688547 -154.46057129 571.78497314 C-179.14665459 571.73765552 -204.11632963 571.88796792 -227.61816406 580.47753906 C-228.72063477 580.86192139 -229.82310547 581.24630371 -230.95898438 581.64233398 C-242.19382097 585.66001988 -253.24236445 590.39540825 -263.44628906 596.61425781 C-264.49300781 597.16726563 -265.53972656 597.72027344 -266.61816406 598.29003906 C-267.60816406 597.96003906 -268.59816406 597.63003906 -269.61816406 597.29003906 C-270.56616211 595.38598633 -270.56616211 595.38598633 -271.37988281 592.85644531 C-271.68982178 591.91196533 -271.99976074 590.96748535 -272.3190918 589.99438477 C-272.80744507 588.43917114 -272.80744507 588.43917114 -273.30566406 586.85253906 C-273.6537915 585.76996826 -274.00191895 584.68739746 -274.3605957 583.57202148 C-275.09351809 581.28260731 -275.82051226 578.99128802 -276.54199219 576.69824219 C-277.54259485 573.52936443 -278.56903684 570.37018134 -279.60253906 567.21191406 C-284.95706847 550.60604417 -289.07868614 533.75230916 -293.07475281 516.78085327 C-294.1002954 512.43413741 -295.1620531 508.09995632 -296.27441406 503.77441406 C-300.99369329 485.2750852 -304.07610996 466.48359046 -307.21890259 447.66564941 C-307.6147111 445.31058422 -308.01818852 442.95694769 -308.42358398 440.60351562 C-310.05753802 431.06598248 -311.44719136 421.53053374 -312.55566406 411.91503906 C-312.63709656 411.21193604 -312.71852905 410.50883301 -312.8024292 409.78442383 C-317.63411455 367.83803108 -320.73008188 325.90025373 -320.86816406 283.66503906 C-320.87352173 282.75141602 -320.87887939 281.83779297 -320.88439941 280.89648438 C-320.95065758 266.13496912 -320.49058776 251.5490979 -315.99316406 237.35253906 C-315.73446533 236.51972412 -315.4757666 235.68690918 -315.20922852 234.82885742 C-308.05359745 212.654195 -293.57346975 186.61693698 -272.20410156 175.51660156 C-271.06199219 174.94683594 -269.91988281 174.37707031 -268.74316406 173.79003906 C-263.77608771 170.87202849 -261.8077804 168.53572717 -260.19384766 163.1730957 C-259.41301288 160.02558318 -258.73636293 156.86707499 -258.11425781 153.68457031 C-257.3193672 149.84781485 -256.23247102 146.10692889 -255.11816406 142.35253906 C-254.90909424 141.6411377 -254.70002441 140.92973633 -254.48461914 140.19677734 C-252.70477306 134.28517042 -250.38899198 128.80904508 -247.61816406 123.29003906 C-247.02447379 122.05756382 -246.43212073 120.8244439 -245.84082031 119.59082031 C-236.33002573 99.93533824 -224.76575958 83.033215 -209.61816406 67.29003906 C-209.09287109 66.74283203 -208.56757813 66.195625 -208.02636719 65.63183594 C-201.28223495 58.64712824 -194.44567381 52.07333965 -186.61816406 46.29003906 C-185.88984375 45.74476562 -185.16152344 45.19949219 -184.41113281 44.63769531 C-131.39996222 6.2565241 -64.58227036 -8.30380663 0 0 Z " fill="#151716" transform="translate(482.6181640625,50.7099609375)"/>
<path d="M0 0 C4.03122026 3.48185246 5.88978925 6.43137143 7.578125 11.453125 C8.01610643 12.71701842 8.45426412 13.98085078 8.89257812 15.24462891 C9.11373291 15.8992511 9.3348877 16.55387329 9.56274414 17.22833252 C15.66152744 35.16882977 22.1698119 50.70811263 36 64 C36.65484375 64.66257812 37.3096875 65.32515625 37.984375 66.0078125 C54.95999985 82.18543789 79.53512316 87.99654364 102 91 C103.42347069 140.41841247 79.27338318 185.69408312 49 223 C48.56171875 223.56332031 48.1234375 224.12664062 47.671875 224.70703125 C44.8484873 228.27391105 41.65296908 231.13389433 38.19897461 234.05908203 C36.1247029 235.88993138 34.21950074 237.79776259 32.3046875 239.79296875 C28.15190241 243.97028668 23.70228327 247.48766517 18.9375 250.9375 C17.69359497 251.84363037 17.69359497 251.84363037 16.42456055 252.76806641 C-28.57483708 285.1593339 -85.09126484 299.64057068 -140.0390625 290.9140625 C-146.83493505 289.71722378 -153.3931723 287.99791624 -160 286 C-161.31661557 285.64565407 -162.63437449 285.29553466 -163.953125 284.94921875 C-196.7629088 276.14640458 -227.04818662 257.99173307 -251 234 C-252.07140738 233.11043699 -253.1534653 232.23339837 -254.25 231.375 C-259.19271473 227.19352767 -263.00130086 222.05901278 -267 217 C-268.00740234 215.77410156 -268.00740234 215.77410156 -269.03515625 214.5234375 C-291.0601628 187.63804183 -305.45557371 156.07295769 -312 122 C-312.26256592 120.74517822 -312.52513184 119.49035645 -312.7956543 118.19750977 C-314.94492063 107.52689643 -315.36870574 97.29730788 -315.1875 86.4375 C-315.17239244 84.82878888 -315.15871501 83.22006369 -315.14648438 81.61132812 C-315.11403575 77.74052522 -315.0626075 73.87042766 -315 70 C-306.21556664 70.41263985 -297.48275122 70.87263062 -288.75 71.9375 C-255.80532592 75.79866278 -221.99033667 76.88312487 -189 73 C-187.37868164 72.82259277 -187.37868164 72.82259277 -185.72460938 72.64160156 C-167.52947068 70.60436808 -150.4223979 66.58320843 -133 61 C-132.04029297 60.69658691 -131.08058594 60.39317383 -130.09179688 60.08056641 C-118.49921493 56.37450331 -107.68567819 51.81591007 -97 46 C-96.3723877 45.66274902 -95.74477539 45.32549805 -95.09814453 44.97802734 C-86.86991549 40.53836574 -78.91539232 35.72268886 -71 30.75 C-15.09934891 -4.25807242 -15.09934891 -4.25807242 0 0 Z " fill="#FEFEFE" transform="translate(555,299)"/>
<path d="M0 0 C0.0093457 0.61931396 0.01869141 1.23862793 0.02832031 1.87670898 C0.08259263 4.73106035 0.16612337 7.58387108 0.25 10.4375 C0.26417969 11.41138672 0.27835937 12.38527344 0.29296875 13.38867188 C0.6199748 23.16615275 3.82879503 31.62854335 10.71484375 38.78125 C18.60250139 46.15347655 26.82724392 49.07230002 37.54345703 49.18945312 C38.84896515 49.20617065 40.15447327 49.22288818 41.49954224 49.2401123 C42.53954565 49.25013527 42.53954565 49.25013527 43.60055923 49.26036072 C45.78837606 49.28154596 47.97605449 49.30856064 50.16378784 49.33703613 C54.81747045 49.39655177 59.47122062 49.44869849 64.125 49.5 C69.50167842 49.55956572 74.87829023 49.62225461 80.25484848 49.69187927 C82.39213617 49.71809768 84.52943193 49.73913201 86.66677856 49.7598877 C106.98721537 49.99360769 106.98721537 49.99360769 111 52 C112.07807907 56.53075899 112.16043393 61.04553403 112.16796875 65.6796875 C112.17129715 66.41011261 112.17462555 67.14053772 112.17805481 67.89309692 C112.18309896 69.43783952 112.18546391 70.98259293 112.18530273 72.52734375 C112.18746119 74.83352926 112.20556501 77.13921322 112.22460938 79.4453125 C112.28258255 93.94483166 110.7832401 107.72450524 106.875 121.75 C106.56715576 122.86415283 106.25931152 123.97830566 105.94213867 125.1262207 C99.53127873 147.66836055 89.790173 170.6438169 75 189 C73.83166231 190.57107526 72.66335829 192.14217577 71.49584961 193.71386719 C65.8226981 201.2780692 59.5299926 208.17234392 53 215 C52.36320312 215.67804688 51.72640625 216.35609375 51.0703125 217.0546875 C46.12554975 222.18872346 40.57454369 226.57379777 35 231 C33.53240234 232.19302734 33.53240234 232.19302734 32.03515625 233.41015625 C-6.41066676 264.00197758 -53.4040768 278.95912142 -101 288 C-101.916604 288.18199951 -102.83320801 288.36399902 -103.77758789 288.55151367 C-111.24810575 289.99338447 -118.74466837 290.81167576 -126.3125 291.5625 C-128.1368457 291.75102539 -128.1368457 291.75102539 -129.99804688 291.94335938 C-141.43623048 293.10357874 -152.86848044 294.20151929 -164.375 294.0625 C-165.12265625 294.05798828 -165.8703125 294.05347656 -166.640625 294.04882812 C-168.42712077 294.03737623 -170.21357356 294.01946469 -172 294 C-172.09704224 293.09181519 -172.09704224 293.09181519 -172.19604492 292.1652832 C-177.45887329 243.7879193 -188.21852659 196.72966303 -210 153 C-210.38365723 152.22172852 -210.76731445 151.44345703 -211.16259766 150.64160156 C-222.40490545 128.01813084 -236.7844874 107.47755206 -254 89 C-255.52142129 87.27135063 -257.04224636 85.54217634 -258.5625 83.8125 C-262.42469109 79.50833282 -266.5373508 75.67226174 -271 72 C-269.82177669 68.46533007 -268.63796478 67.96495863 -265.44433594 66.29760742 C-264.45095215 65.80997925 -264.45095215 65.80997925 -263.4375 65.3125 C-262.38804199 64.79683472 -262.38804199 64.79683472 -261.31738281 64.27075195 C-255.10679091 61.33412064 -248.74114005 58.92678326 -242.25 56.6875 C-241.33661865 56.36241455 -240.4232373 56.0373291 -239.48217773 55.70239258 C-219.54423121 49.10209118 -198.77563401 49.53175938 -178.03436279 49.44702148 C-171.98157277 49.42179277 -165.92901465 49.38214147 -159.87644196 49.32512093 C-157.78709644 49.30900052 -155.69798102 49.3050378 -153.60858154 49.30210876 C-141.41374331 49.20477216 -132.65769608 46.69904078 -122.25 40.3125 C-111.29838099 29.05666935 -110.4631689 15.80543358 -110 1 C-109.28457031 1.12117187 -108.56914062 1.24234375 -107.83203125 1.3671875 C-105.71409749 1.723373 -103.59555094 2.07592484 -101.4765625 2.42578125 C-99.26191952 2.7915706 -97.04824767 3.1633254 -94.8359375 3.54296875 C-81.07113367 5.81433216 -67.23428219 6.23490088 -53.3125 6.25 C-52.57253784 6.25133942 -51.83257568 6.25267883 -51.07019043 6.25405884 C-39.15638051 6.24940676 -27.67553061 5.46293638 -16 3 C-14.94087402 2.7839209 -14.94087402 2.7839209 -13.86035156 2.56347656 C-10.75001227 1.92638431 -7.64924687 1.26070958 -4.5546875 0.55078125 C-2 0 -2 0 0 0 Z " fill="#FEFEFE" transform="translate(504,597)"/>
<path d="M0 0 C2.35172828 0.28637282 4.7013339 0.50062 7.06152344 0.70410156 C61.28229244 6.08495639 116.51525434 36.42284345 151.45605469 77.86425781 C167.98900555 98.13027318 184.33334516 124.30516004 189.38183594 150.29003906 C188.97558594 153.14941406 188.97558594 153.14941406 188.38183594 155.29003906 C187.39183594 155.29003906 186.40183594 155.29003906 185.38183594 155.29003906 C185.05183594 153.97003906 184.72183594 152.65003906 184.38183594 151.29003906 C184.38183594 153.27003906 184.38183594 155.25003906 184.38183594 157.29003906 C183.57746094 157.41378906 182.77308594 157.53753906 181.94433594 157.66503906 C181.09871094 157.87128906 180.25308594 158.07753906 179.38183594 158.29003906 C179.05183594 158.95003906 178.72183594 159.61003906 178.38183594 160.29003906 C38.46183594 160.29003906 -101.45816406 160.29003906 -245.61816406 160.29003906 C-245.61816406 157.32003906 -245.61816406 154.35003906 -245.61816406 151.29003906 C-245.94816406 150.63003906 -246.27816406 149.97003906 -246.61816406 149.29003906 C-248.56815535 149.48475017 -248.56815535 149.48475017 -250.61816406 150.29003906 C-251.9025314 152.27381576 -251.9025314 152.27381576 -252.61816406 154.29003906 C-253.27816406 153.30003906 -253.93816406 152.31003906 -254.61816406 151.29003906 C-255.11316406 152.28003906 -255.11316406 152.28003906 -255.61816406 153.29003906 C-254.95816406 153.62003906 -254.29816406 153.95003906 -253.61816406 154.29003906 C-254.99316406 155.79003906 -254.99316406 155.79003906 -256.61816406 157.29003906 C-257.27816406 157.29003906 -257.93816406 157.29003906 -258.61816406 157.29003906 C-256.91001381 145.46295523 -252.96434988 133.93870891 -247.61816406 123.29003906 C-247.02447379 122.05756382 -246.43212073 120.8244439 -245.84082031 119.59082031 C-236.33002573 99.93533824 -224.76575958 83.033215 -209.61816406 67.29003906 C-208.83022461 66.46922852 -208.83022461 66.46922852 -208.02636719 65.63183594 C-201.28223495 58.64712824 -194.44567381 52.07333965 -186.61816406 46.29003906 C-185.52568359 45.47212891 -185.52568359 45.47212891 -184.41113281 44.63769531 C-131.39996222 6.2565241 -64.58227036 -8.30380663 0 0 Z " fill="#151716" transform="translate(482.6181640625,50.7099609375)"/>
<path d="M0 0 C18.47159852 39.03495359 26.57953126 82.87108823 32.5 125.375 C32.61049683 126.16791443 32.72099365 126.96082886 32.83483887 127.777771 C34.59649164 140.48912277 36.15595564 153.19012936 37 166 C37.08757568 167.23766113 37.17515137 168.47532227 37.26538086 169.75048828 C38.12392055 182.71027317 38.11411962 195.64152446 38.0625 208.625 C38.041875 216.00875 38.02125 223.3925 38 231 C7.64 231 -22.72 231 -54 231 C-54.08032734 200.90402448 -54.08032734 200.90402448 -54.10050774 185.94486809 C-54.11155305 177.88265476 -54.12553406 169.82048321 -54.15087891 161.75830078 C-54.17094866 155.37102332 -54.1837483 148.98377752 -54.18817699 142.5964694 C-54.19076164 139.22118023 -54.19782755 135.84605261 -54.21146011 132.47077942 C-54.31612923 105.46303272 -54.31612923 105.46303272 -52 92 C-51.85115356 91.10958008 -51.70230713 90.21916016 -51.5489502 89.30175781 C-48.35542734 71.04111681 -24.66971693 0 0 0 Z " fill="#FDFDFD" transform="translate(205,688)"/>
<path d="M0 0 C0.754021 0.00418945 1.50804199 0.00837891 2.28491211 0.01269531 C7.89665965 0.12656563 12.57835755 0.89459308 17.6875 3.3125 C18.65816406 3.69535156 18.65816406 3.69535156 19.6484375 4.0859375 C29.5419989 8.34838095 36.872152 17.25972849 43.6875 25.3125 C47.50368178 24.04043941 48.3941565 22.36861851 50.8125 19.1875 C58.56883566 9.49522319 67.59720273 3.24764448 79.6875 0.3125 C91.06678738 -0.94864219 100.33879803 0.01665116 109.5625 7.125 C113.98875276 11.24316092 115.79581917 15.75427032 116.1875 21.75 C115.30091063 46.09426641 95.26938098 71.80388212 78.6875 88.3125 C76.84595067 90.30570633 75.01369172 92.30540615 73.1875 94.3125 C64.50328936 103.77899829 55.58015777 113.09352451 45.6875 121.3125 C40.36244443 119.84004145 37.37915735 116.31058496 33.6875 112.4375 C29.84037911 108.45063327 26.04534568 104.74935767 21.6875 101.3125 C20.52761913 100.07342021 19.40035446 98.80277205 18.3125 97.5 C16.07369018 94.87518848 13.79715506 92.3926308 11.3125 90 C-4.86560544 74.00205164 -26.13434628 47.2171741 -26.625 23.5625 C-26.55673443 17.57995345 -26.21519944 13.00009989 -22.3125 8.3125 C-15.66049375 2.00017067 -9.14228189 -0.06908269 0 0 Z " fill="#FDFDFD" transform="translate(706.3125,725.6875)"/>
<path d="M0 0 C137.61 0 275.22 0 417 0 C421 16 421 16 421 19 C281.08 19 141.16 19 -3 19 C-2 8 -2 8 0 0 Z " fill="#FEFEFE" transform="translate(240,192)"/>
<path d="M0 0 C0.79841309 0.00829834 1.59682617 0.01659668 2.41943359 0.02514648 C13.06381783 0.32930267 19.74838277 3.97779125 27.25 11.4375 C27.7346875 11.05078125 28.219375 10.6640625 28.71875 10.265625 C39.73050879 1.71033548 49.38962492 -0.80473701 63.25 0.4375 C70.48340093 2.0191768 75.11229344 6.44028841 79.25 12.4375 C81.83673625 20.19770876 80.85841566 28.96892435 77.76171875 36.43359375 C71.78239122 48.31499652 64.12571554 58.59295636 55.25 68.4375 C54.34325388 69.46570853 53.43700135 70.49435257 52.53125 71.5234375 C36.93015638 89.06941328 36.93015638 89.06941328 27.25 94.4375 C26.63253906 93.880625 26.01507812 93.32375 25.37890625 92.75 C24.53199219 91.986875 23.68507813 91.22375 22.8125 90.4375 C21.89984375 89.61378906 20.9871875 88.79007813 20.046875 87.94140625 C18.31892591 86.39445741 16.58121323 84.85824436 14.828125 83.33984375 C10.56293869 79.64089769 6.68617205 75.8636516 3.05078125 71.54296875 C1.79478129 70.07445687 0.4964635 68.64155056 -0.83203125 67.23828125 C-13.0121367 54.33291558 -25.51684473 37.38068228 -25.0625 18.89453125 C-24.3713577 13.46042494 -21.95862173 9.23578132 -17.875 5.625 C-11.77162217 1.35263552 -7.32666096 -0.09751477 0 0 Z " fill="#181919" transform="translate(760.75,581.5625)"/>
<path d="M0 0 C6.19249567 2.09127434 10.01450047 6.50325433 14 11.5 C14.79019531 12.48484375 15.58039062 13.4696875 16.39453125 14.484375 C16.98621094 15.23203125 17.57789063 15.9796875 18.1875 16.75 C21.76026637 13.96149942 24.77086882 11.16277323 27.6875 7.6875 C31.78672406 2.88088772 36.096596 -0.91604865 42.67578125 -1.453125 C48.25276255 -1.545689 52.433811 -1.54101546 57.1875 1.75 C59.68123102 5.49059653 59.75087828 8.41933567 59.1875 12.75 C58.32574095 15.49938904 57.10581417 17.96276707 55.75 20.5 C55.38946533 21.19319336 55.02893066 21.88638672 54.6574707 22.60058594 C48.88608589 33.38046422 41.02807961 42.45054757 32.62548828 51.24023438 C31.13112375 52.80919027 29.65805068 54.39671875 28.18359375 55.984375 C27.20705489 57.01167851 26.22923268 58.03776394 25.25 59.0625 C24.37472656 59.98675781 23.49945312 60.91101563 22.59765625 61.86328125 C20.1875 63.75 20.1875 63.75 18.23291016 63.54125977 C15.94973536 62.65802158 14.77069995 61.7065679 13.05078125 59.9765625 C12.47803467 59.40478271 11.90528809 58.83300293 11.31518555 58.24389648 C10.71617432 57.62716064 10.11716309 57.0104248 9.5 56.375 C8.56571167 55.42379272 8.56571167 55.42379272 7.61254883 54.45336914 C-21.25011269 24.73883877 -21.25011269 24.73883877 -21.10546875 6.9765625 C-20.67196619 3.68194303 -19.18700458 1.98482784 -16.8125 -0.25 C-11.82297868 -2.74476066 -5.14997457 -1.58992504 0 0 Z " fill="#FBFBFB" transform="translate(769.8125,595.25)"/>
<path d="M0 0 C0.64475784 -0.00014603 1.28951569 -0.00029205 1.95381165 -0.0004425 C4.05851759 0.00024722 6.16313202 0.00799498 8.26782227 0.01586914 C9.73755342 0.01773667 11.20728521 0.01915899 12.67701721 0.02015686 C16.52552033 0.02395569 20.37398508 0.03376318 24.22247314 0.04486084 C28.15750612 0.05513189 32.09254535 0.05966663 36.02758789 0.06469727 C43.7339855 0.07538807 51.44035161 0.09243247 59.14672852 0.11352539 C59.14672852 0.44352539 59.14672852 0.77352539 59.14672852 1.11352539 C30.43672852 1.60852539 30.43672852 1.60852539 1.14672852 2.11352539 C0.81672852 3.76352539 0.48672852 5.41352539 0.14672852 7.11352539 C1.13672852 7.44352539 2.12672852 7.77352539 3.14672852 8.11352539 C3.14672852 8.77352539 3.14672852 9.43352539 3.14672852 10.11352539 C20.30672852 10.11352539 37.46672852 10.11352539 55.14672852 10.11352539 C55.14672852 10.44352539 55.14672852 10.77352539 55.14672852 11.11352539 C56.79672852 11.44352539 58.44672852 11.77352539 60.14672852 12.11352539 C60.14672852 12.44352539 60.14672852 12.77352539 60.14672852 13.11352539 C59.35175964 13.11939163 58.55679077 13.12525787 57.73773193 13.13130188 C50.15023553 13.18983214 42.56304529 13.26223672 34.97582626 13.3492403 C31.07757483 13.39347915 27.17941687 13.43282895 23.28100586 13.45996094 C-7.36423496 13.2832293 -7.36423496 13.2832293 -36.97827148 20.30102539 C-44.73093106 23.11352539 -44.73093106 23.11352539 -46.85327148 23.11352539 C-46.85327148 21.11352539 -46.85327148 21.11352539 -44.85327148 19.11352539 C-44.53564688 17.20346233 -44.53564688 17.20346233 -44.60327148 15.11352539 C-44.59553711 14.06165039 -44.59553711 14.06165039 -44.58764648 12.98852539 C-44.69621634 10.86995849 -44.69621634 10.86995849 -46.85327148 9.11352539 C-15.30484136 -0.0293759 -15.30484136 -0.0293759 0 0 Z " fill="#252525" transform="translate(300.853271484375,633.886474609375)"/>
<path d="M0 0 C1.4606285 2.64738916 2 3.89448334 2 7 C-137.92 7 -277.84 7 -422 7 C-422 5.35 -422 3.7 -422 2 C-421.67 3.32 -421.34 4.64 -421 6 C-282.73 6 -144.46 6 -2 6 C-2 5.34 -2 4.68 -2 4 C-1.34 4 -0.68 4 0 4 C0 2.68 0 1.36 0 0 Z " fill="#CCCECD" transform="translate(659,204)"/>
<path d="M0 0 C0.99 0.99 1.98 1.98 3 3 C3 3.99 3 4.98 3 6 C4.32 6.66 5.64 7.32 7 8 C7 13.11325911 5.50434074 14.41601516 2 18 C-0.3125 18.875 -0.3125 18.875 -2 19 C-2 18.34 -2 17.68 -2 17 C-2.66 16.67 -3.32 16.34 -4 16 C-5.19966257 13.3970624 -6.05373502 10.7097588 -7 8 C-4.69 5.36 -2.38 2.72 0 0 Z " fill="#1C1D1C" transform="translate(788,809)"/>
<path d="M0 0 C0.66 0.33 1.32 0.66 2 1 C2 2.32 2 3.64 2 5 C1.01 5.495 1.01 5.495 0 6 C0.99 6 1.98 6 3 6 C5 9 5 9 5 13 C-0.75 14 -0.75 14 -3 14 C-3.66 15.32 -4.32 16.64 -5 18 C-5.99 18 -6.98 18 -8 18 C-8 16.68 -8 15.36 -8 14 C-8.66 13.67 -9.32 13.34 -10 13 C-10.66 14.98 -11.32 16.96 -12 19 C-12.66 17.68 -13.32 16.36 -14 15 C-8.43421053 6.96052632 -8.43421053 6.96052632 -5 4 C-4.34 4 -3.68 4 -3 4 C-3 3.34 -3 2.68 -3 2 C-2.01 1.34 -1.02 0.68 0 0 Z " fill="#1C1C1C" transform="translate(195,679)"/>
<path d="M0 0 C0.33 0 0.66 0 1 0 C1.19246601 5.90786976 1.37115707 11.81593528 1.53710938 17.72460938 C1.59549838 19.73448854 1.65764645 21.74426217 1.72363281 23.75390625 C1.81784349 26.6430337 1.89851688 29.53227127 1.9765625 32.421875 C2.00875885 33.31992859 2.0409552 34.21798218 2.0741272 35.14324951 C2.09429901 35.98381897 2.11447083 36.82438843 2.13525391 37.69042969 C2.15746002 38.42767273 2.17966614 39.16491577 2.20254517 39.92449951 C1.96823158 42.32553416 1.19126544 43.92075766 0 46 C-1.54501451 44.45498549 -1.12719131 43.0133978 -1.12939453 40.86328125 C-1.13254669 39.98567139 -1.13569885 39.10806152 -1.13894653 38.20385742 C-1.1369223 37.24970947 -1.13489807 36.29556152 -1.1328125 35.3125 C-1.13376923 34.33966064 -1.13472595 33.36682129 -1.13571167 32.36450195 C-1.13639358 30.303222 -1.13453853 28.24193992 -1.13037109 26.18066406 C-1.125023 23.01362312 -1.13031572 19.846724 -1.13671875 16.6796875 C-1.13605797 14.68229135 -1.13477681 12.68489529 -1.1328125 10.6875 C-1.13483673 9.73335205 -1.13686096 8.7792041 -1.13894653 7.79614258 C-1.13579437 6.91853271 -1.13264221 6.04092285 -1.12939453 5.13671875 C-1.12859894 4.36030029 -1.12780334 3.58388184 -1.12698364 2.78393555 C-1 1 -1 1 0 0 Z " fill="#353736" transform="translate(163,313)"/>
<path d="M0 0 C1.1549921 0.73581742 2.29874185 1.48930039 3.4375 2.25 C4.07558594 2.66765625 4.71367188 3.0853125 5.37109375 3.515625 C7.29902057 5.27248877 7.61479436 6.46089803 8 9 C7.01 8.67 6.02 8.34 5 8 C5 7.34 5 6.68 5 6 C3.1128125 5.938125 3.1128125 5.938125 1.1875 5.875 C0.47980469 5.85179687 -0.22789062 5.82859375 -0.95703125 5.8046875 C-3.31359719 5.86745538 -3.31359719 5.86745538 -6 8 C-5.67 9.32 -5.34 10.64 -5 12 C-6.051875 11.360625 -7.10375 10.72125 -8.1875 10.0625 C-11.10828412 8.38245548 -13.6171743 7.41003948 -17 7 C-16.401875 6.71125 -15.80375 6.4225 -15.1875 6.125 C-12.80672208 4.95257974 -12.80672208 4.95257974 -10 3 C-8.32706064 3.30027117 -6.66014616 3.63557767 -5 4 C-2.78141747 3.86358623 -2.78141747 3.86358623 -1 3 C-0.67 2.01 -0.34 1.02 0 0 Z " fill="#1C1D1D" transform="translate(782,588)"/>
<path d="M0 0 C1.96166141 1.77483652 3.1731153 3.30295177 4.5 5.625 C5.83729307 8.29756313 5.83729307 8.29756313 9 9 C8.01 9.66 7.02 10.32 6 11 C5.01 12.485 5.01 12.485 4 14 C1.69 12.35 -0.62 10.7 -3 9 C-2 6 -1 3 0 0 Z " fill="#181818" transform="translate(754,623)"/>
<path d="M0 0 C4.33333333 4.33333333 8.66666667 8.66666667 13 13 C12.67 13.66 12.34 14.32 12 15 C11.01 14.67 10.02 14.34 9 14 C9 13.34 9 12.68 9 12 C8.01 12.33 7.02 12.66 6 13 C6 13.66 6 14.32 6 15 C5.34 15 4.68 15 4 15 C3.89042969 14.38511719 3.78085937 13.77023437 3.66796875 13.13671875 C3.43013672 11.92435547 3.43013672 11.92435547 3.1875 10.6875 C2.96126953 9.48673828 2.96126953 9.48673828 2.73046875 8.26171875 C1.92427764 5.76554413 0.97947998 4.67577894 -1 3 C-0.67 2.01 -0.34 1.02 0 0 Z " fill="#212222" transform="translate(710,807)"/>
<path d="M0 0 C2.97 0.495 2.97 0.495 6 1 C5 4 5 4 3.41772461 5.07495117 C2.42011108 5.55411987 2.42011108 5.55411987 1.40234375 6.04296875 C0.68369141 6.39423828 -0.03496094 6.74550781 -0.77539062 7.10742188 C-1.53013672 7.46384766 -2.28488281 7.82027344 -3.0625 8.1875 C-3.82111328 8.55552734 -4.57972656 8.92355469 -5.36132812 9.30273438 C-7.23653819 10.21085497 -9.11772733 11.10661015 -11 12 C-11 11.01 -11 10.02 -11 9 C-9.125 7.4375 -9.125 7.4375 -7 6 C-6.34 5.34 -5.68 4.68 -5 4 C-3.9790625 3.505 -3.9790625 3.505 -2.9375 3 C-0.83134399 2.15410058 -0.83134399 2.15410058 0 0 Z " fill="#1F1F1F" transform="translate(464,336)"/>
<path d="M0 0 C0.99 0.33 1.98 0.66 3 1 C2.77169299 2.62818946 2.51656424 4.2526349 2.25 5.875 C2.11078125 6.77992188 1.9715625 7.68484375 1.828125 8.6171875 C1 11 1 11 -0.953125 12.3828125 C-3 13 -3 13 -5 12 C-5.12375 12.639375 -5.2475 13.27875 -5.375 13.9375 C-5.58125 14.618125 -5.7875 15.29875 -6 16 C-6.66 16.33 -7.32 16.66 -8 17 C-6.3341708 10.83643195 -3.12194714 5.51740344 0 0 Z " fill="#232524" transform="translate(245,154)"/>
<path d="M0 0 C0.33 0.66 0.66 1.32 1 2 C1.66 2.33 2.32 2.66 3 3 C-3 6 -3 6 -5.1875 7.0625 C-7.25077159 8.08742496 -7.25077159 8.08742496 -10 10 C-12.6875 10.125 -12.6875 10.125 -15 10 C-11.86350023 7.57294661 -8.60330681 5.42827692 -5.25 3.3125 C-4.26515625 2.68988281 -3.2803125 2.06726563 -2.265625 1.42578125 C-1.51796875 0.95527344 -0.7703125 0.48476563 0 0 Z " fill="#212121" transform="translate(521,840)"/>
<path d="M0 0 C3.08693704 1.35852131 5.08641734 2.84510953 7.3125 5.375 C7.84488281 5.96023438 8.37726562 6.54546875 8.92578125 7.1484375 C10 9 10 9 9.66796875 11.2265625 C9.44753906 11.81179688 9.22710938 12.39703125 9 13 C7.68 12.34 6.36 11.68 5 11 C5.33 9.68 5.66 8.36 6 7 C5.38125 6.71125 4.7625 6.4225 4.125 6.125 C2 5 2 5 0 3 C0 2.01 0 1.02 0 0 Z " fill="#1F1F1F" transform="translate(830,585)"/>
<path d="M0 0 C-0.66 0 -1.32 0 -2 0 C-2 0.66 -2 1.32 -2 2 C-1.34 2.33 -0.68 2.66 0 3 C-3.99560608 5.83022097 -7.42737323 4.76210446 -12 4 C-12 3.01 -12 2.02 -12 1 C-3.96428571 -1.27678571 -3.96428571 -1.27678571 0 0 Z " fill="#222423" transform="translate(426,881)"/>
<path d="M0 0 C3.96 1.98 7.92 3.96 12 6 C11.67 6.66 11.34 7.32 11 8 C8.67843403 8.40729228 6.3431213 8.74438677 4 9 C3.34 8.01 2.68 7.02 2 6 C2.33 5.67 2.66 5.34 3 5 C2.2575 4.319375 2.2575 4.319375 1.5 3.625 C0 2 0 2 0 0 Z " fill="#1C1E1D" transform="translate(568,77)"/>
<path d="M0 0 C7.98541477 6.5633546 7.98541477 6.5633546 10 10 C10 10.99 10 11.98 10 13 C9.34 13 8.68 13 8 13 C8 12.34 8 11.68 8 11 C7.01 11.33 6.02 11.66 5 12 C4.67 9.69 4.34 7.38 4 5 C2.68 5.33 1.36 5.66 0 6 C-1.125 2.25 -1.125 2.25 0 0 Z " fill="#202020" transform="translate(732,830)"/>
<path d="M0 0 C1.65 0.33 3.3 0.66 5 1 C5 1.99 5 2.98 5 4 C4.38125 3.814375 3.7625 3.62875 3.125 3.4375 C0.95839822 2.76313824 0.95839822 2.76313824 -1 4 C-0.67 2.68 -0.34 1.36 0 0 Z M-4 2 C-3.01 2.99 -2.02 3.98 -1 5 C-2.32 6.65 -3.64 8.3 -5 10 C-8 6.25 -8 6.25 -8 4 C-6.68 4.33 -5.36 4.66 -4 5 C-4 4.01 -4 3.02 -4 2 Z " fill="#212121" transform="translate(760,633)"/>
<path d="M0 0 C0.66 0.33 1.32 0.66 2 1 C2 2.32 2 3.64 2 5 C1.34 5 0.68 5 0 5 C-0.33 6.98 -0.66 8.96 -1 11 C-3.31 11.66 -5.62 12.32 -8 13 C-7.50628906 12.22914063 -7.01257813 11.45828125 -6.50390625 10.6640625 C-5.86324219 9.66117188 -5.22257813 8.65828125 -4.5625 7.625 C-3.92441406 6.62726562 -3.28632812 5.62953125 -2.62890625 4.6015625 C-1.03100789 2.14169479 -1.03100789 2.14169479 0 0 Z " fill="#E9EAEA" transform="translate(819,788)"/>
<path d="M0 0 C6.35356588 0.70595176 10.2290828 7.36715886 14 12 C11 12 11 12 8.8125 10 C8.214375 9.34 7.61625 8.68 7 8 C6.01 8.495 6.01 8.495 5 9 C3.92474806 6.34771188 2.90543849 3.71631546 2 1 C1.34 0.67 0.68 0.34 0 0 Z " fill="#262726" transform="translate(291,522)"/>
<path d="M0 0 C2.98479194 4.47718792 4 8.63824093 4 14 C2.0625 13.625 2.0625 13.625 0 13 C-1 11 -1 11 -1 8 C-1.020625 6.989375 -1.04125 5.97875 -1.0625 4.9375 C-1 2 -1 2 0 0 Z " fill="#2E302F" transform="translate(315,803)"/>
<path d="M0 0 C-1 3 -1 3 -3.875 4.75 C-7 6 -7 6 -10 5 C-9.3125 2.5625 -9.3125 2.5625 -8 0 C-4.71071522 -1.1807689 -3.34715311 -1.1157177 0 0 Z " fill="#1D1D1D" transform="translate(223,643)"/>
<path d="M0 0 C1.32 0.33 2.64 0.66 4 1 C0.7 3.97 -2.6 6.94 -6 10 C-6.66 9.01 -7.32 8.02 -8 7 C-6.76446724 5.79745476 -5.51097661 4.61333768 -4.25 3.4375 C-3.55390625 2.77621094 -2.8578125 2.11492188 -2.140625 1.43359375 C-1.43421875 0.96050781 -0.7278125 0.48742187 0 0 Z " fill="#E0E0E0" transform="translate(585,536)"/>
<path d="M0 0 C1.82421875 1.109375 1.82421875 1.109375 3.6875 2.75 C4.31011719 3.28109375 4.93273437 3.8121875 5.57421875 4.359375 C7 6 7 6 7 9 C5.66666667 8.33333333 4.33333333 7.66666667 3 7 C2.29875 6.71125 1.5975 6.4225 0.875 6.125 C-1.42031559 4.74781064 -2.02079402 3.44801496 -3 1 C-2.01 0.67 -1.02 0.34 0 0 Z " fill="#ECECEC" transform="translate(587,360)"/>
<path d="M0 0 C3.45195767 1.4258086 5.1014256 3.09746334 7.25 6.125 C8.03117188 7.21167969 8.03117188 7.21167969 8.828125 8.3203125 C9.40820312 9.15175781 9.40820312 9.15175781 10 10 C8.02 10.99 8.02 10.99 6 12 C3.91985734 9.91985734 3.3916977 8.71771493 2.4375 6 C1.70063036 3.92302028 0.98624907 1.97249813 0 0 Z " fill="#ECEEED" transform="translate(739,741)"/>
<path d="M0 0 C8 9.42857143 8 9.42857143 8 14 C7.34 14 6.68 14 6 14 C6 13.34 6 12.68 6 12 C5.01 11.67 4.02 11.34 3 11 C2.28272222 9.35448038 1.61674772 7.68577711 1 6 C0.34 5.34 -0.32 4.68 -1 4 C-0.625 1.875 -0.625 1.875 0 0 Z " fill="#1E201F" transform="translate(282,728)"/>
<path d="M0 0 C-0.33 0.99 -0.66 1.98 -1 3 C-3.50390625 3.94921875 -3.50390625 3.94921875 -6.5625 4.6875 C-7.57441406 4.93886719 -8.58632812 5.19023438 -9.62890625 5.44921875 C-10.41136719 5.63097656 -11.19382813 5.81273437 -12 6 C-12.66 5.34 -13.32 4.68 -14 4 C-12.23494565 3.13395466 -10.46271926 2.28251358 -8.6875 1.4375 C-7.70136719 0.96183594 -6.71523437 0.48617187 -5.69921875 -0.00390625 C-3 -1 -3 -1 0 0 Z " fill="#242424" transform="translate(247,648)"/>
<path d="M0 0 C2.475 0.99 2.475 0.99 5 2 C5.33 4.31 5.66 6.62 6 9 C4.948125 8.360625 3.89625 7.72125 2.8125 7.0625 C-0.10828412 5.38245548 -2.6171743 4.41003948 -6 4 C-5.38125 3.71125 -4.7625 3.4225 -4.125 3.125 C-1.86674235 2.06279958 -1.86674235 2.06279958 0 0 Z " fill="#282828" transform="translate(771,591)"/>
<path d="M0 0 C0.99 0.99 1.98 1.98 3 3 C1.74151422 5.0087944 0.46948954 7.00629298 -0.8125 9 C-1.87404297 10.670625 -1.87404297 10.670625 -2.95703125 12.375 C-3.63121094 13.24125 -4.30539063 14.1075 -5 15 C-5.99 15 -6.98 15 -8 15 C-6.14183119 11.04913623 -3.72642599 7.60121637 -1.2421875 4.0234375 C0.17439306 2.11164344 0.17439306 2.11164344 0 0 Z " fill="#ECEDEC" transform="translate(184,246)"/>
<path d="M0 0 C4.42679007 1.47559669 4.91432696 3.90057368 7 8 C7 8.66 7 9.32 7 10 C5.02 9.34 3.04 8.68 1 8 C1 7.34 1 6.68 1 6 C0.34 5.01 -0.32 4.02 -1 3 C-0.67 2.01 -0.34 1.02 0 0 Z " fill="#1D1E1D" transform="translate(650,155)"/>
<path d="M0 0 C0.66 0.66 1.32 1.32 2 2 C1.01 2.495 1.01 2.495 0 3 C0.66 4.32 1.32 5.64 2 7 C1.34 7 0.68 7 0 7 C0 7.66 0 8.32 0 9 C-0.66 9 -1.32 9 -2 9 C-2 8.34 -2 7.68 -2 7 C-3.98 7.33 -5.96 7.66 -8 8 C-8 7.34 -8 6.68 -8 6 C-6.02678947 4.6273318 -4.02456848 3.29572383 -2 2 C-1.34 1.34 -0.68 0.68 0 0 Z " fill="#202020" transform="translate(755,728)"/>
<path d="M0 0 C1.98 0.99 3.96 1.98 6 3 C6 3.66 6 4.32 6 5 C6.99 5.33 7.98 5.66 9 6 C10.6875 8.5625 10.6875 8.5625 12 11 C9 11 9 11 6.73828125 9.1015625 C5.93777344 8.28429687 5.13726563 7.46703125 4.3125 6.625 C3.50425781 5.81289062 2.69601562 5.00078125 1.86328125 4.1640625 C0 2 0 2 0 0 Z " fill="#EBECEC" transform="translate(612,105)"/>
<path d="M0 0 C2.9375 0.8125 2.9375 0.8125 6 2 C6.33 2.99 6.66 3.98 7 5 C6.01 5.495 6.01 5.495 5 6 C4.34444881 8.52733235 4.34444881 8.52733235 4 11 C3.34 11 2.68 11 2 11 C1.814375 9.6078125 1.814375 9.6078125 1.625 8.1875 C1.18466918 4.86074765 1.18466918 4.86074765 -1 2 C-0.67 1.34 -0.34 0.68 0 0 Z " fill="#101211" transform="translate(818,728)"/>
<path d="M0 0 C2.97 0.33 5.94 0.66 9 1 C6.43833199 3.56166801 5.44696024 4.44554406 2.3125 5.6875 C1.219375 6.120625 0.12625 6.55375 -1 7 C-1.125 2.25 -1.125 2.25 0 0 Z " fill="#1E1E1E" transform="translate(515,306)"/>
<path d="M0 0 C0.99 0.33 1.98 0.66 3 1 C3 1.66 3 2.32 3 3 C3.61875 3.268125 4.2375 3.53625 4.875 3.8125 C7 5 7 5 9 8 C8.67 8.66 8.34 9.32 8 10 C6 10 6 10 4.5 8.625 C4.005 8.08875 3.51 7.5525 3 7 C2.34 6.34 1.68 5.68 1 5 C0.375 2.375 0.375 2.375 0 0 Z " fill="#202221" transform="translate(694,673)"/>
<path d="M0 0 C2.3125 0.1875 2.3125 0.1875 4 1 C3.67 2.32 3.34 3.64 3 5 C2.38125 5.103125 1.7625 5.20625 1.125 5.3125 C-1.36526484 5.87525373 -1.36526484 5.87525373 -3 9 C-3 8.01 -3 7.02 -3 6 C-3.66 5.67 -4.32 5.34 -5 5 C-2.75 2.4375 -2.75 2.4375 0 0 Z " fill="#212222" transform="translate(194,240)"/>
<path d="M0 0 C4.45454545 8.90909091 4.45454545 8.90909091 3 14 C2.01 14 1.02 14 0 14 C0 9.38 0 4.76 0 0 Z " fill="#1E201F" transform="translate(668,192)"/>
<path d="M0 0 C0.721875 0.515625 1.44375 1.03125 2.1875 1.5625 C5.48551977 3.24815455 6.52808975 2.84451871 10 2 C10.66 2.66 11.32 3.32 12 4 C11.01 4.33 10.02 4.66 9 5 C8.01 6.485 8.01 6.485 7 8 C5.82512964 7.24172908 4.66027408 6.46792245 3.5 5.6875 C2.52546875 5.04361328 2.52546875 5.04361328 1.53125 4.38671875 C1.0259375 3.92910156 0.520625 3.47148438 0 3 C0 2.01 0 1.02 0 0 Z " fill="#121212" transform="translate(751,629)"/>
<path d="M0 0 C1.98 0.66 3.96 1.32 6 2 C6 1.34 6 0.68 6 0 C7.65 0 9.3 0 11 0 C11.33 0.99 11.66 1.98 12 3 C9 5 9 5 6.5625 4.875 C3.52228253 3.83687696 2.08905886 2.39854906 0 0 Z " fill="#1E201F" transform="translate(530,617)"/>
<path d="M0 0 C0.99 0.33 1.98 0.66 3 1 C2.01 1.495 2.01 1.495 1 2 C0.3503125 3.423125 0.3503125 3.423125 -0.3125 4.875 C-2.18024031 8.33377835 -3.46213182 9.40795932 -7 11 C-7.99 11 -8.98 11 -10 11 C-8.70464339 8.40928677 -6.71548525 7.10334983 -4.5 5.30859375 C-2.69065203 3.73012612 -1.32931452 1.99397177 0 0 Z " fill="#E1E1E1" transform="translate(797,603)"/>
<path d="M0 0 C2.14210449 1.76956458 2.96060573 2.87575652 3.8125 5.5625 C3.874375 6.366875 3.93625 7.17125 4 8 C3.34 8.66 2.68 9.32 2 10 C1.34 9.67 0.68 9.34 0 9 C0 8.01 0 7.02 0 6 C-0.99 6.495 -0.99 6.495 -2 7 C-1.125 2.25 -1.125 2.25 0 0 Z " fill="#1F1F1F" transform="translate(660,173)"/>
<path d="M0 0 C-1.28965176 1.37562854 -2.62689293 2.70766393 -4 4 C-4.66 4 -5.32 4 -6 4 C-6.33 4.66 -6.66 5.32 -7 6 C-8.65 5.67 -10.3 5.34 -12 5 C-4.28571429 -1.42857143 -4.28571429 -1.42857143 0 0 Z " fill="#232423" transform="translate(327,80)"/>
<path d="M0 0 C-0.66 1.65 -1.32 3.3 -2 5 C-7.75 4.25 -7.75 4.25 -10 2 C-8.71211992 1.46987262 -7.41953322 0.9511671 -6.125 0.4375 C-5.40570313 0.14746094 -4.68640625 -0.14257812 -3.9453125 -0.44140625 C-2 -1 -2 -1 0 0 Z " fill="#272928" transform="translate(474,866)"/>
<path d="M0 0 C1.65 0.33 3.3 0.66 5 1 C4.38461538 6.53846154 4.38461538 6.53846154 2.4375 8.875 C1.7259375 9.431875 1.7259375 9.431875 1 10 C0.34 9.67 -0.32 9.34 -1 9 C-1 8.34 -1 7.68 -1 7 C-0.34 7 0.32 7 1 7 C0.67 4.69 0.34 2.38 0 0 Z " fill="#121212" transform="translate(387,618)"/>
<path d="M0 0 C0.66 0.99 1.32 1.98 2 3 C1.34 3 0.68 3 0 3 C0 3.66 0 4.32 0 5 C0.66 5.33 1.32 5.66 2 6 C1.01 6.495 1.01 6.495 0 7 C0 7.99 0 8.98 0 10 C-1.65 9.67 -3.3 9.34 -5 9 C-3.7508258 5.54074837 -2.32472205 2.85306797 0 0 Z " fill="#232524" transform="translate(253,142)"/>
<path d="M0 0 C1.77706209 2.66559313 2.87548273 5.0280615 4 8 C3.34 8.66 2.68 9.32 2 10 C1.34 9.34 0.68 8.68 0 8 C-2.10820797 8.3185177 -2.10820797 8.3185177 -4 9 C-2.80100302 5.9168649 -1.52299523 2.93720508 0 0 Z " fill="#212222" transform="translate(816,769)"/>
<path d="M0 0 C0.33 0.66 0.66 1.32 1 2 C0.2575 2.4125 -0.485 2.825 -1.25 3.25 C-3.90171685 4.93745618 -5.86674014 6.70872089 -8 9 C-8.66 8.34 -9.32 7.68 -10 7 C-8.375 4.0625 -8.375 4.0625 -6 1 C-2.75 0.125 -2.75 0.125 0 0 Z " fill="#1F201F" transform="translate(827,621)"/>
<path d="M0 0 C-0.99 1.485 -0.99 1.485 -2 3 C-4.96528179 3.0562279 -7.68850026 2.95683804 -10.625 2.6875 C-11.42679688 2.62626953 -12.22859375 2.56503906 -13.0546875 2.50195312 C-15.03758124 2.34851492 -17.01898519 2.17604307 -19 2 C-19 1.67 -19 1.34 -19 1 C-18.24074219 0.93941406 -17.48148438 0.87882813 -16.69921875 0.81640625 C-15.70535156 0.73261719 -14.71148438 0.64882813 -13.6875 0.5625 C-12.70136719 0.48128906 -11.71523438 0.40007813 -10.69921875 0.31640625 C-2.6015625 -0.6328125 -2.6015625 -0.6328125 0 0 Z " fill="#CECECE" transform="translate(829,580)"/>
<path d="M0 0 C0.33 0.66 0.66 1.32 1 2 C1.66 2 2.32 2 3 2 C2.25 7.75 2.25 7.75 0 10 C-0.99 9.67 -1.98 9.34 -3 9 C-2.01 6.03 -1.02 3.06 0 0 Z " fill="#242424" transform="translate(236,171)"/>
<path d="M0 0 C4 4.625 4 4.625 4 8 C1 8 1 8 -0.6875 6.5 C-1.120625 6.005 -1.55375 5.51 -2 5 C-1.34 3.35 -0.68 1.7 0 0 Z " fill="#1D1D1D" transform="translate(723,703)"/>
<path d="M0 0 C1.60031344 3.20062687 0.03173691 5.72271806 -1 9 C-3.49064888 9.68707555 -5.37886292 10 -8 10 C-5.36 6.7 -2.72 3.4 0 0 Z " fill="#252525" transform="translate(180,694)"/>
<path d="M0 0 C3.057952 1.73559438 5.63379989 3.38472619 8 6 C5.69 6.33 3.38 6.66 1 7 C0.34 5.02 -0.32 3.04 -1 1 C-0.67 0.67 -0.34 0.34 0 0 Z " fill="#222423" transform="translate(312,541)"/>
<path d="M0 0 C0.66 0.33 1.32 0.66 2 1 C2 1.66 2 2.32 2 3 C2.62684283 4.39360594 3.29915078 5.76710464 4 7.125 C4.556875 8.21167969 4.556875 8.21167969 5.125 9.3203125 C5.41375 9.87460937 5.7025 10.42890625 6 11 C5.01 11 4.02 11 3 11 C1.35 8.03 -0.3 5.06 -2 2 C-1.34 1.34 -0.68 0.68 0 0 Z " fill="#EAEBEA" transform="translate(714,249)"/>
<path d="M0 0 C0.66 0.66 1.32 1.32 2 2 C-0.31 4.31 -2.62 6.62 -5 9 C-5.66 8.67 -6.32 8.34 -7 8 C-6.8125 6.1875 -6.8125 6.1875 -6 4 C-3.5 2.3125 -3.5 2.3125 -1 1 C-0.67 0.67 -0.34 0.34 0 0 Z " fill="#E1E2E2" transform="translate(779,817)"/>
<path d="M0 0 C0.99 0.33 1.98 0.66 3 1 C3.125 3.875 3.125 3.875 3 7 C2.34 7.66 1.68 8.32 1 9 C0.01 9 -0.98 9 -2 9 C-1.34 6.03 -0.68 3.06 0 0 Z " fill="#E1E1E1" transform="translate(699,596)"/>
<path d="M0 0 C1.32 1.32 2.64 2.64 4 4 C2 7 2 7 -0.125 7.6875 C-0.74375 7.790625 -1.3625 7.89375 -2 8 C-2 5.69 -2 3.38 -2 1 C-1.34 0.67 -0.68 0.34 0 0 Z " fill="#232323" transform="translate(278,503)"/>
<path d="M0 0 C0.66 0.33 1.32 0.66 2 1 C-0.23972261 4.53640412 -2.10798056 5.60286482 -6 7 C-6.66 7.66 -7.32 8.32 -8 9 C-8.33 7.68 -8.66 6.36 -9 5 C-7.54735962 4.1361871 -6.0876837 3.28419546 -4.625 2.4375 C-3.40683594 1.72400391 -3.40683594 1.72400391 -2.1640625 0.99609375 C-1.44992188 0.66738281 -0.73578125 0.33867188 0 0 Z " fill="#DEDEDE" transform="translate(223,644)"/>
<path d="M0 0 C0 0.66 0 1.32 0 2 C-1.65 2.33 -3.3 2.66 -5 3 C-4.34 4.32 -3.68 5.64 -3 7 C-3.99 6.67 -4.98 6.34 -6 6 C-7.1875 3.4375 -7.1875 3.4375 -8 1 C-4.93251126 -0.86240388 -3.40254489 -1.2151946 0 0 Z M0 -1 C2 0 2 0 2 0 Z " fill="#101010" transform="translate(783,594)"/>
<path d="M0 0 C0.99 0.33 1.98 0.66 3 1 C3 1.66 3 2.32 3 3 C3.66 3.33 4.32 3.66 5 4 C4.67 4.66 4.34 5.32 4 6 C4.66 6 5.32 6 6 6 C5.67 7.32 5.34 8.64 5 10 C4.38125 9.360625 3.7625 8.72125 3.125 8.0625 C1.17402388 5.96116416 1.17402388 5.96116416 -1 5 C-0.67 3.35 -0.34 1.7 0 0 Z " fill="#101211" transform="translate(824,760)"/>
<path d="M0 0 C3.84685385 1.24762828 6.02929405 2.3870391 8 6 C7.67 6.99 7.34 7.98 7 9 C4.03595495 6.19195732 1.55500981 3.81684226 0 0 Z " fill="#1E1F1F" transform="translate(813,729)"/>
<path d="M0 0 C5.75 1.625 5.75 1.625 8 5 C7.34 5.66 6.68 6.32 6 7 C3.69 5.35 1.38 3.7 -1 2 C-0.67 1.34 -0.34 0.68 0 0 Z " fill="#EAEAEA" transform="translate(687,665)"/>
<path d="M0 0 C3.25543229 0.34879632 4.01873107 1.02133261 6.25 3.5625 C6.8275 4.366875 7.405 5.17125 8 6 C7.34 6.66 6.68 7.32 6 8 C5.54625 7.505 5.0925 7.01 4.625 6.5 C3.12364481 4.77390663 3.12364481 4.77390663 1 5 C0.67 3.35 0.34 1.7 0 0 Z " fill="#E9E9E9" transform="translate(509,633)"/>
<path d="M0 0 C2.375 -0.1875 2.375 -0.1875 5 0 C5.66 0.99 6.32 1.98 7 3 C5.68 3.99 4.36 4.98 3 6 C1.5 4.6875 1.5 4.6875 0 3 C0 2.01 0 1.02 0 0 Z " fill="#EBECEC" transform="translate(785,588)"/>
<path d="M0 0 C0.33 0 0.66 0 1 0 C0.64989059 8.35010941 0.64989059 8.35010941 -2.0625 11.0625 C-2.701875 11.371875 -3.34125 11.68125 -4 12 C-4.61528766 6.92387682 -2.61658349 4.17017994 0 0 Z " fill="#1F2120" transform="translate(631,482)"/>
<path d="M0 0 C1.65 1.65 3.3 3.3 5 5 C4.01 6.32 3.02 7.64 2 9 C1.67 7.68 1.34 6.36 1 5 C0.01 5.495 0.01 5.495 -1 6 C-1.33 5.01 -1.66 4.02 -2 3 C-1.34 2.01 -0.68 1.02 0 0 Z " fill="#1D1D1D" transform="translate(708,247)"/>
<path d="M0 0 C0.66 0 1.32 0 2 0 C2.33 0.99 2.66 1.98 3 3 C1.35 4.32 -0.3 5.64 -2 7 C-2.66 6.67 -3.32 6.34 -4 6 C-4 5.01 -4 4.02 -4 3 C-2.68 2.67 -1.36 2.34 0 2 C0 1.34 0 0.68 0 0 Z " fill="#E2E4E3" transform="translate(760,834)"/>
<path d="M0 0 C1 3 1 3 1 5 C1.66 5.33 2.32 5.66 3 6 C2.01 6.99 1.02 7.98 0 9 C-0.99 8.34 -1.98 7.68 -3 7 C-1.125 1.125 -1.125 1.125 0 0 Z " fill="#121313" transform="translate(802,796)"/>
<path d="M0 0 C0.99 0.33 1.98 0.66 3 1 C1.02 3.97 -0.96 6.94 -3 10 C-3.66 9.34 -4.32 8.68 -5 8 C-3.88213958 4.64641875 -2.25245881 2.68841859 0 0 Z " fill="#EAEAEA" transform="translate(165,711)"/>
<path d="M0 0 C0.66 1.65 1.32 3.3 2 5 C-0.60582371 5.93065133 -1.64198224 6.14917407 -4.25 5.0625 C-4.8275 4.711875 -5.405 4.36125 -6 4 C-2.25 0 -2.25 0 0 0 Z " fill="#E4E4E4" transform="translate(205,688)"/>
<path d="M0 0 C0.66 0.33 1.32 0.66 2 1 C0.69386058 4.91841827 -0.83129848 7.32640809 -4 10 C-4.66 10 -5.32 10 -6 10 C-4.34832443 6.4213696 -2.21713508 3.25179812 0 0 Z " fill="#EBEBEB" transform="translate(388,629)"/>
<path d="M0 0 C0.33 1.32 0.66 2.64 1 4 C-2.465 5.485 -2.465 5.485 -6 7 C-6 6.01 -6 5.02 -6 4 C-3 1.8125 -3 1.8125 0 0 Z " fill="#232323" transform="translate(748,584)"/>
<path d="M0 0 C1.65 0 3.3 0 5 0 C6.0625 1.8125 6.0625 1.8125 7 4 C6.67 4.99 6.34 5.98 6 7 C1.125 2.25 1.125 2.25 0 0 Z " fill="#EAEAEA" transform="translate(704,241)"/>
<path d="M0 0 C1.32 0.33 2.64 0.66 4 1 C1.03 3.97 -1.94 6.94 -5 10 C-5 7 -5 7 -3 4 C-2.34 4 -1.68 4 -1 4 C-0.67 2.68 -0.34 1.36 0 0 Z " fill="#E1E3E2" transform="translate(274,113)"/>
<path d="M0 0 C1.32 0.66 2.64 1.32 4 2 C3.34 2 2.68 2 2 2 C1.34 3.32 0.68 4.64 0 6 C-1.65 5.67 -3.3 5.34 -5 5 C-3.35 3.35 -1.7 1.7 0 0 Z " fill="#1C1E1D" transform="translate(295,98)"/>
<path d="M0 0 C2.97 1.65 5.94 3.3 9 5 C5.52176885 6.15941038 3.54104422 5.70820884 0 5 C-0.33 4.01 -0.66 3.02 -1 2 C-0.67 1.34 -0.34 0.68 0 0 Z " fill="#202020" transform="translate(585,87)"/>
<path d="M0 0 C0.66 1.32 1.32 2.64 2 4 C1.34 4 0.68 4 0 4 C-0.33 4.66 -0.66 5.32 -1 6 C-3.4375 7.6875 -3.4375 7.6875 -6 9 C-6.66 8.67 -7.32 8.34 -8 8 C-5.36 5.36 -2.72 2.72 0 0 Z " fill="#DCDCDC" transform="translate(778,838)"/>
<path d="M0 0 C2.11180592 2.57089417 3.66306057 4.63060567 4 8 C3.34 8.66 2.68 9.32 2 10 C1.34 9.67 0.68 9.34 0 9 C-1.28571429 2.57142857 -1.28571429 2.57142857 0 0 Z " fill="#202120" transform="translate(293,748)"/>
<path d="M0 0 C2 1.375 2 1.375 4 3 C4 5 4 5 2.625 6.5 C2.08875 6.995 1.5525 7.49 1 8 C0.34 8.66 -0.32 9.32 -1 10 C-2.15837626 5.94568308 -1.83691257 3.78187881 0 0 Z " fill="#252525" transform="translate(603,740)"/>
<path d="M0 0 C3.625 -0.1875 3.625 -0.1875 7 0 C4.11912454 2.40072955 1.43595166 4.47291037 -2 6 C-2 3 -2 3 0 0 Z " fill="#1B1D1C" transform="translate(685,728)"/>
<path d="M0 0 C0.66 0.66 1.32 1.32 2 2 C0.68 4.64 -0.64 7.28 -2 10 C-2.66 9.67 -3.32 9.34 -4 9 C-2.25 2.25 -2.25 2.25 0 0 Z " fill="#E9E9E9" transform="translate(158,723)"/>
<path d="M0 0 C1.65 0 3.3 0 5 0 C5.33 1.98 5.66 3.96 6 6 C5.01 6 4.02 6 3 6 C3 5.34 3 4.68 3 4 C2.01 3.67 1.02 3.34 0 3 C0 2.01 0 1.02 0 0 Z " fill="#E3E5E4" transform="translate(823,721)"/>
<path d="M0 0 C2.31 1.65 4.62 3.3 7 5 C5.02 5.99 5.02 5.99 3 7 C2.67 6.01 2.34 5.02 2 4 C-0.00016466 2.79117904 -0.00016466 2.79117904 -2 2 C-1.34 1.34 -0.68 0.68 0 0 Z " fill="#222423" transform="translate(234,670)"/>
<path d="M0 0 C0.66 0.33 1.32 0.66 2 1 C2 1.99 2 2.98 2 4 C0.25 5.38671875 0.25 5.38671875 -2 6.6875 C-2.7425 7.12449219 -3.485 7.56148437 -4.25 8.01171875 C-4.8275 8.33785156 -5.405 8.66398438 -6 9 C-6.33 8.01 -6.66 7.02 -7 6 C-6.030625 5.38125 -5.06125 4.7625 -4.0625 4.125 C-0.97164638 2.34321154 -0.97164638 2.34321154 0 0 Z " fill="#E5E5E5" transform="translate(212,661)"/>
<path d="M0 0 C2.97 0 5.94 0 9 0 C9.33 0.66 9.66 1.32 10 2 C7.36 2.66 4.72 3.32 2 4 C1.34 2.68 0.68 1.36 0 0 Z " fill="#EDEFEE" transform="translate(514,576)"/>
<path d="M0 0 C0.33 0.66 0.66 1.32 1 2 C1.66 2 2.32 2 3 2 C5.125 3.875 5.125 3.875 7 6 C7 6.66 7 7.32 7 8 C6.01 8.33 5.02 8.66 4 9 C0 4.5 0 4.5 0 0 Z " fill="#EBEBEB" transform="translate(287,511)"/>
<path d="M0 0 C1.65 0.33 3.3 0.66 5 1 C4 4 4 4 0.9375 5.6875 C-0.031875 6.120625 -1.00125 6.55375 -2 7 C-1.34 4.69 -0.68 2.38 0 0 Z " fill="#EFEFEF" transform="translate(216,217)"/>
<path d="M0 0 C4.95 0 9.9 0 15 0 C15 0.33 15 0.66 15 1 C13.06263299 1.16820551 11.12510094 1.33451095 9.1875 1.5 C7.56908203 1.63921875 7.56908203 1.63921875 5.91796875 1.78125 C3 2 3 2 0 2 C0 1.34 0 0.68 0 0 Z M-1 2 C-1 2.99 -1 3.98 -1 5 C-1.66 4.67 -2.32 4.34 -3 4 C-2.34 3.34 -1.68 2.68 -1 2 Z " fill="#232524" transform="translate(449,49)"/>
<path d="M0 0 C2.475 0.99 2.475 0.99 5 2 C3.71937515 3.7074998 2.38232443 5.37373596 1 7 C0.34 7 -0.32 7 -1 7 C-1.125 2.25 -1.125 2.25 0 0 Z " fill="#EBECEC" transform="translate(751,840)"/>
<path d="M0 0 C0.99 0.33 1.98 0.66 3 1 C2.67 1.66 2.34 2.32 2 3 C1.34 2.67 0.68 2.34 0 2 C0 1.34 0 0.68 0 0 Z M3 0 C7 0 7 0 10 2 C9.67 2.99 9.34 3.98 9 5 C8.34 5 7.68 5 7 5 C7 4.34 7 3.68 7 3 C5.68 2.34 4.36 1.68 3 1 C3 0.67 3 0.34 3 0 Z " fill="#101010" transform="translate(241,684)"/>
<path d="M0 0 C1.65 0 3.3 0 5 0 C5.68707555 2.49064888 6 4.37886292 6 7 C3.69 5.35 1.38 3.7 -1 2 C-0.67 1.34 -0.34 0.68 0 0 Z " fill="#E6E7E7" transform="translate(313,539)"/>
<path d="M0 0 C1.08667969 0.29197266 1.08667969 0.29197266 2.1953125 0.58984375 C2.74960937 0.74582031 3.30390625 0.90179688 3.875 1.0625 C1.875 3.0625 1.875 3.0625 -0.5625 3.375 C-3.51779457 3.01459822 -4.31387927 2.35023145 -6.125 0.0625 C-3.57797384 -1.21101308 -2.6967055 -0.73941925 0 0 Z " fill="#ECECEC" transform="translate(630.125,384.9375)"/>
<path d="M0 0 C0.99 0.33 1.98 0.66 3 1 C0.525 4.465 0.525 4.465 -2 8 C-2.66 6.68 -3.32 5.36 -4 4 C-3.01 3.67 -2.02 3.34 -1 3 C-0.67 2.01 -0.34 1.02 0 0 Z " fill="#E3E5E4" transform="translate(792,801)"/>
<path d="M0 0 C1.485 0.99 1.485 0.99 3 2 C3.66 1.67 4.32 1.34 5 1 C5.1875 3.375 5.1875 3.375 5 6 C4.01 6.66 3.02 7.32 2 8 C0.74335022 5.09399739 0 3.20395416 0 0 Z " fill="#131413" transform="translate(808,793)"/>
<path d="M0 0 C1.65 1.65 3.3 3.3 5 5 C4.67 5.66 4.34 6.32 4 7 C1.37812506 5.95125002 0.20628639 5.35068687 -1.25 2.875 C-1.4975 2.25625 -1.745 1.6375 -2 1 C-1.34 0.67 -0.68 0.34 0 0 Z " fill="#1D1F1E" transform="translate(699,793)"/>
<path d="M0 0 C0.99 0 1.98 0 3 0 C3.33 2.31 3.66 4.62 4 7 C2.68 7.33 1.36 7.66 0 8 C-0.79953138 4.71303767 -1.09658936 3.28976808 0 0 Z " fill="#2F2F2F" transform="translate(148,749)"/>
<path d="M0 0 C0.66 0.33 1.32 0.66 2 1 C-0.53363068 5.22271781 -2.56620325 7.78310162 -7 10 C-7 7 -7 7 -4.625 4.4375 C-3.75875 3.633125 -2.8925 2.82875 -2 2 C-1.34 1.34 -0.68 0.68 0 0 Z " fill="#E1E1E1" transform="translate(757,745)"/>
<path d="M0 0 C0.99 0.33 1.98 0.66 3 1 C1.6875 3.5 1.6875 3.5 0 6 C-0.99 6 -1.98 6 -3 6 C-1.125 1.125 -1.125 1.125 0 0 Z " fill="#202020" transform="translate(758,739)"/>
<path d="M0 0 C0.66 0.33 1.32 0.66 2 1 C1 4 1 4 -0.8125 5.1875 C-3 6 -3 6 -7 6 C-7 5.34 -7 4.68 -7 4 C-1.7265625 0.77734375 -1.7265625 0.77734375 0 0 Z " fill="#E5E5E5" transform="translate(776,729)"/>
<path d="M0 0 C0.59296875 0.22171875 1.1859375 0.4434375 1.796875 0.671875 C1.1575 0.775 0.518125 0.878125 -0.140625 0.984375 C-0.82125 1.21125 -1.501875 1.438125 -2.203125 1.671875 C-2.533125 2.661875 -2.863125 3.651875 -3.203125 4.671875 C-4.82645467 6.05764423 -6.49036965 7.39828768 -8.203125 8.671875 C-8.203125 5.19064369 -7.79161196 4.80666864 -5.453125 2.421875 C-4.94265625 1.88046875 -4.4321875 1.3390625 -3.90625 0.78125 C-2.203125 -0.328125 -2.203125 -0.328125 0 0 Z " fill="#F1F1F1" transform="translate(812.203125,656.328125)"/>
<path d="M0 0 C3.63 0 7.26 0 11 0 C11.33 0.66 11.66 1.32 12 2 C7.48281619 3.36884358 4.41225737 2.47075246 0 1 C0 0.67 0 0.34 0 0 Z " fill="#DBDDDC" transform="translate(635,641)"/>
<path d="M0 0 C1.65 1.65 3.3 3.3 5 5 C1.71023192 6.09658936 0.28696233 5.79953138 -3 5 C-2 2 -2 2 0 0 Z " fill="#2A2C2B" transform="translate(285,512)"/>
<path d="M0 0 C0.99 0.66 1.98 1.32 3 2 C2.34 3.32 1.68 4.64 1 6 C0.34 5.01 -0.32 4.02 -1 3 C-1.33 3.99 -1.66 4.98 -2 6 C-2.33 4.68 -2.66 3.36 -3 2 C-2.01 1.34 -1.02 0.68 0 0 Z " fill="#1F2120" transform="translate(798,811)"/>
<path d="M0 0 C0.99 0.33 1.98 0.66 3 1 C1.68 3.31 0.36 5.62 -1 8 C-1.66 7.67 -2.32 7.34 -3 7 C-2.38722388 4.03824877 -1.74627478 2.61941217 0 0 Z " fill="#242625" transform="translate(822,779)"/>
<path d="M0 0 C0.66 0 1.32 0 2 0 C2 0.66 2 1.32 2 2 C2.66 2 3.32 2 4 2 C4 2.66 4 3.32 4 4 C3.34 4 2.68 4 2 4 C2 4.99 2 5.98 2 7 C1.34 7 0.68 7 0 7 C-1.125 2.25 -1.125 2.25 0 0 Z " fill="#242625" transform="translate(818,764)"/>
<path d="M0 0 C0 0.66 0 1.32 0 2 C-4.95 1.67 -9.9 1.34 -15 1 C-15 0.67 -15 0.34 -15 0 C-4.44191344 -1.33257403 -4.44191344 -1.33257403 0 0 Z " fill="#3E3E3E" transform="translate(805,725)"/>
<path d="M0 0 C2.0625 0.4375 2.0625 0.4375 4 1 C1.63707344 3.52588702 0.33537489 4.88820837 -3 6 C-1.125 1.125 -1.125 1.125 0 0 Z " fill="#222323" transform="translate(238,660)"/>
<path d="M0 0 C0.66 0.99 1.32 1.98 2 3 C0.35 4.65 -1.3 6.3 -3 8 C-3.75 6.25 -3.75 6.25 -4 4 C-2.0625 1.75 -2.0625 1.75 0 0 Z " fill="#E9E9E9" transform="translate(813,629)"/>
<path d="M0 0 C0.66 0.66 1.32 1.32 2 2 C1.01 3.485 1.01 3.485 0 5 C-0.66 5 -1.32 5 -2 5 C-2.33 5.66 -2.66 6.32 -3 7 C-3.99 6.01 -4.98 5.02 -6 4 C-4.02 2.68 -2.04 1.36 0 0 Z " fill="#262626" transform="translate(571,551)"/>
<path d="M0 0 C0.99 1.32 1.98 2.64 3 4 C1.35 5.32 -0.3 6.64 -2 8 C-2.66 7.34 -3.32 6.68 -4 6 C-3.34 6 -2.68 6 -2 6 C-1.34 4.02 -0.68 2.04 0 0 Z " fill="#F1F2F2" transform="translate(593,526)"/>
<path d="M0 0 C0 0.99 0 1.98 0 3 C-2.31 3 -4.62 3 -7 3 C-6.67 2.01 -6.34 1.02 -6 0 C-3.50907189 -1.24546405 -2.58919267 -0.7767578 0 0 Z " fill="#1F1F1F" transform="translate(696,233)"/>
<path d="M0 0 C3.465 1.98 3.465 1.98 7 4 C6.34 4.66 5.68 5.32 5 6 C4.01 6 3.02 6 2 6 C0.3125 3.5 0.3125 3.5 -1 1 C-0.67 0.67 -0.34 0.34 0 0 Z " fill="#242525" transform="translate(594,93)"/>
<path d="M0 0 C2.97 0.495 2.97 0.495 6 1 C5.34 1.66 4.68 2.32 4 3 C4.33 3.66 4.66 4.32 5 5 C3.02 5.99 3.02 5.99 1 7 C0 2.25 0 2.25 0 0 Z " fill="#1F1F1F" transform="translate(384,56)"/>
<path d="M0 0 C1.98 1.65 3.96 3.3 6 5 C3.92446352 5.5534764 2.15634036 6 0 6 C-1.125 2.25 -1.125 2.25 0 0 Z " fill="#313332" transform="translate(732,830)"/>
<path d="M0 0 C0.99 0.33 1.98 0.66 3 1 C2.67 2.65 2.34 4.3 2 6 C0.68 5.67 -0.64 5.34 -2 5 C-1.34 3.35 -0.68 1.7 0 0 Z " fill="#202020" transform="translate(572,794)"/>
<path d="M0 0 C-1.75 4.875 -1.75 4.875 -4 6 C-4 5.34 -4 4.68 -4 4 C-4.66 4 -5.32 4 -6 4 C-5.67 3.01 -5.34 2.02 -5 1 C-3 0 -3 0 0 0 Z " fill="#131313" transform="translate(818,776)"/>
<path d="M0 0 C3.65316671 1.24976756 4.78065836 1.67098753 7 5 C4.03 4.505 4.03 4.505 1 4 C0.67 2.68 0.34 1.36 0 0 Z " fill="#F2F3F2" transform="translate(810,730)"/>
<path d="M0 0 C0 0.66 0 1.32 0 2 C-4.38461538 5 -4.38461538 5 -7 5 C-7.33 4.01 -7.66 3.02 -8 2 C-4.77208445 -0.1519437 -3.71599191 -0.20086443 0 0 Z " fill="#ECECEC" transform="translate(237,649)"/>
<path d="M0 0 C7.75 0.75 7.75 0.75 10 3 C8.35 2.67 6.7 2.34 5 2 C5 2.66 5 3.32 5 4 C2 3 2 3 0 2 C0 1.34 0 0.68 0 0 Z " fill="#0F1110" transform="translate(630,641)"/>
<path d="M0 0 C0.99 0.33 1.98 0.66 3 1 C2.75 2.875 2.75 2.875 2 5 C-0.0625 6.25 -0.0625 6.25 -2 7 C-1.34 4.69 -0.68 2.38 0 0 Z " fill="#242625" transform="translate(382,631)"/>
<path d="M0 0 C0.99 0.33 1.98 0.66 3 1 C3.33 1.99 3.66 2.98 4 4 C1.69 4.33 -0.62 4.66 -3 5 C-3 4.01 -3 3.02 -3 2 C-2.01 2 -1.02 2 0 2 C0 1.34 0 0.68 0 0 Z " fill="#1D1D1D" transform="translate(255,626)"/>
<path d="M0 0 C0.33 0 0.66 0 1 0 C1.33 3.3 1.66 6.6 2 10 C1.01 10 0.02 10 -1 10 C-2.23076923 4.58461538 -2.23076923 4.58461538 -1.0625 1.625 C-0.5365625 0.820625 -0.5365625 0.820625 0 0 Z " fill="#DCDCDC" transform="translate(170,462)"/>
<path d="M0 0 C0.99 0 1.98 0 3 0 C3 1.32 3 2.64 3 4 C2.34 4 1.68 4 1 4 C1 6.64 1 9.28 1 12 C0.67 12 0.34 12 0 12 C0 8.04 0 4.08 0 0 Z " fill="#0D0F0E" transform="translate(657,393)"/>
<path d="M0 0 C-0.7734375 0.37125 -0.7734375 0.37125 -1.5625 0.75 C-4.77184151 2.39581616 -7.87585664 4.1976096 -11 6 C-11.33 5.34 -11.66 4.68 -12 4 C-10.56988027 3.13353333 -9.13059381 2.28218171 -7.6875 1.4375 C-6.48673828 0.72400391 -6.48673828 0.72400391 -5.26171875 -0.00390625 C-3 -1 -3 -1 0 0 Z " fill="#E7E7E7" transform="translate(470,341)"/>
<path d="M0 0 C0.33 0.99 0.66 1.98 1 3 C-1.31 3.66 -3.62 4.32 -6 5 C-6 5.66 -6 6.32 -6 7 C-6.66 6.67 -7.32 6.34 -8 6 C-8 5.34 -8 4.68 -8 4 C-5.36 2.68 -2.72 1.36 0 0 Z " fill="#E2E2E2" transform="translate(517,311)"/>
<path d="M0 0 C2.375 0.6875 2.375 0.6875 5 2 C6.3125 4.625 6.3125 4.625 7 7 C6.01 7 5.02 7 4 7 C1.92722641 4.68806023 0.99021473 2.97064418 0 0 Z " fill="#E0E1E1" transform="translate(553,299)"/>
<path d="M0 0 C0.66 0 1.32 0 2 0 C2.6875 2.3125 2.6875 2.3125 3 5 C1.625 6.8125 1.625 6.8125 0 8 C-0.33 8 -0.66 8 -1 8 C-0.67 5.36 -0.34 2.72 0 0 Z " fill="#242625" transform="translate(228,191)"/>
<path d="M0 0 C0.33 0.99 0.66 1.98 1 3 C-0.25 4.5625 -0.25 4.5625 -2 6 C-4.1875 5.6875 -4.1875 5.6875 -6 5 C-2.25 1.125 -2.25 1.125 0 0 Z " fill="#282A29" transform="translate(261,134)"/>
<path d="M0 0 C0.66 0.33 1.32 0.66 2 1 C1.25 5.75 1.25 5.75 -1 8 C-2.125 3.25 -2.125 3.25 -1 1 C-0.67 0.67 -0.34 0.34 0 0 Z " fill="#F2F4F3" transform="translate(594,754)"/>
<path d="M0 0 C3.24208567 0.35049575 4.61527704 0.56221181 6.8125 3.0625 C7.204375 3.701875 7.59625 4.34125 8 5 C7.01 5.495 7.01 5.495 6 6 C3.97945196 4.35830472 1.97956942 2.69088222 0 1 C0 0.67 0 0.34 0 0 Z " fill="#252726" transform="translate(708,689)"/>
<path d="M0 0 C2.97 0.495 2.97 0.495 6 1 C6 1.99 6 2.98 6 4 C4.68 4.33 3.36 4.66 2 5 C1.34 3.35 0.68 1.7 0 0 Z " fill="#121212" transform="translate(760,635)"/>
<path d="M0 0 C1.32 0 2.64 0 4 0 C4.33 0.99 4.66 1.98 5 3 C2.525 4.485 2.525 4.485 0 6 C-1 3 -1 3 0 0 Z " fill="#E9EBEA" transform="translate(369,625)"/>
<path d="M0 0 C0.66 0.66 1.32 1.32 2 2 C0.7260411 4.03833424 -0.61061923 6.03852126 -2 8 C-2.66 8 -3.32 8 -4 8 C-2.87548273 5.0280615 -1.77706209 2.66559313 0 0 Z " fill="#E6E6E6" transform="translate(822,617)"/>
<path d="M0 0 C0.33 0.66 0.66 1.32 1 2 C1.66 2 2.32 2 3 2 C3.33 1.34 3.66 0.68 4 0 C3.67 1.65 3.34 3.3 3 5 C1.68 5.33 0.36 5.66 -1 6 C-0.67 4.02 -0.34 2.04 0 0 Z " fill="#232524" transform="translate(361,616)"/>
<path d="M0 0 C2 1.5 2 1.5 4 4 C4.35800135 6.75871627 4.18660165 9.20097524 4 12 C3.67 12 3.34 12 3 12 C3 9.69 3 7.38 3 5 C1.68 4.34 0.36 3.68 -1 3 C-0.67 2.01 -0.34 1.02 0 0 Z " fill="#BABABA" transform="translate(825,596)"/>
<path d="M0 0 C2 3 2 3 1.625 5.1875 C1.41875 5.785625 1.2125 6.38375 1 7 C-0.32 7 -1.64 7 -3 7 C-1.125 1.125 -1.125 1.125 0 0 Z " fill="#2B2D2C" transform="translate(740,590)"/>
<path d="M0 0 C0.33 0.99 0.66 1.98 1 3 C-1.76264289 3.59732819 -4.16032769 4 -7 4 C-3.17391304 0 -3.17391304 0 0 0 Z " fill="#111111" transform="translate(782,588)"/>
<path d="M0 0 C1.32 0 2.64 0 4 0 C4.33 1.98 4.66 3.96 5 6 C4.01 6.495 4.01 6.495 3 7 C0 2.25 0 2.25 0 0 Z " fill="#E7E9E8" transform="translate(265,481)"/>
<path d="M0 0 C0.33 0 0.66 0 1 0 C1 4.29 1 8.58 1 13 C0.01 13.33 -0.98 13.66 -2 14 C-1.34 9.38 -0.68 4.76 0 0 Z " fill="#E2E4E3" transform="translate(162,358)"/>
<path d="M0 0 C1.98 0 3.96 0 6 0 C3.82575883 2.50037734 2.26954202 3.43628586 -1 4 C-1.33 3.34 -1.66 2.68 -2 2 C-1.34 2 -0.68 2 0 2 C0 1.34 0 0.68 0 0 Z " fill="#E7E7E7" transform="translate(507,845)"/>
<path d="M0 0 C1.32 0.66 2.64 1.32 4 2 C2.35 3.98 0.7 5.96 -1 8 C-1.33 7.34 -1.66 6.68 -2 6 C-1.36729133 4.65022151 -0.69937532 3.31647119 0 2 C0 1.34 0 0.68 0 0 Z " fill="#E4E6E5" transform="translate(768,825)"/>
<path d="M0 0 C0.99 0.66 1.98 1.32 3 2 C2 5 2 5 1 7 C0.34 7 -0.32 7 -1 7 C-1.33 7.66 -1.66 8.32 -2 9 C-1.34 6.03 -0.68 3.06 0 0 Z " fill="#202020" transform="translate(236,787)"/>
<path d="M0 0 C2.4375 0.75 2.4375 0.75 5 2 C5.8125 4.125 5.8125 4.125 6 6 C5.01 6 4.02 6 3 6 C2.01 4.02 1.02 2.04 0 0 Z " fill="#E9E9E9" transform="translate(688,775)"/>
<path d="M0 0 C0.33 0.99 0.66 1.98 1 3 C-1.90600261 4.25664978 -3.79604584 5 -7 5 C-2.25 0 -2.25 0 0 0 Z " fill="#DCDCDC" transform="translate(767,736)"/>
<path d="M0 0 C0.2475 0.61875 0.495 1.2375 0.75 1.875 C2.20628639 4.35068687 3.37812506 4.95125002 6 6 C5.34 6.66 4.68 7.32 4 8 C2.35 6.35 0.7 4.7 -1 3 C-0.67 2.01 -0.34 1.02 0 0 Z " fill="#F3F3F3" transform="translate(243,674)"/>
<path d="M0 0 C3 3.875 3 3.875 3 5 C0.69 5.66 -1.62 6.32 -4 7 C-2.79618552 4.50638429 -1.54571278 2.31856917 0 0 Z " fill="#E6E7E7" transform="translate(828,634)"/>
<path d="M0 0 C0.99 0.33 1.98 0.66 3 1 C2.34 2.98 1.68 4.96 1 7 C0.67 6.34 0.34 5.68 0 5 C-0.66 5 -1.32 5 -2 5 C-1.34 3.35 -0.68 1.7 0 0 Z " fill="#141414" transform="translate(508,618)"/>
<path d="M0 0 C0.66 0 1.32 0 2 0 C2.33 1.65 2.66 3.3 3 5 C0 5 0 5 -2 4 C-1.34 2.68 -0.68 1.36 0 0 Z " fill="#2A2A2A" transform="translate(837,592)"/>
<path d="M0 0 C1.98 0.99 3.96 1.98 6 3 C4.625 4.5 4.625 4.5 3 6 C2.34 6 1.68 6 1 6 C0.67 4.02 0.34 2.04 0 0 Z " fill="#242424" transform="translate(775,584)"/>
<path d="M0 0 C0.66 0.66 1.32 1.32 2 2 C1.34 2 0.68 2 0 2 C0.33 3.32 0.66 4.64 1 6 C-0.32 6.33 -1.64 6.66 -3 7 C-3 3.48283697 -2.17554415 2.62878252 0 0 Z " fill="#1D1D1D" transform="translate(589,536)"/>
<path d="M0 0 C0.66 0.33 1.32 0.66 2 1 C1.01 2.98 0.02 4.96 -1 7 C-1.99 6.01 -2.98 5.02 -4 4 C-2.68 2.68 -1.36 1.36 0 0 Z " fill="#202020" transform="translate(604,521)"/>
<path d="M0 0 C2.2477975 2.05233685 3.0022242 3.00667261 4 6 C1 6 1 6 -0.6875 4.5 C-1.120625 4.005 -1.55375 3.51 -2 3 C-1.34 3 -0.68 3 0 3 C0 2.01 0 1.02 0 0 Z " fill="#212322" transform="translate(268,488)"/>
<path d="M0 0 C2 2 2 2 2.125 4.625 C2.08375 5.40875 2.0425 6.1925 2 7 C0.68 7.33 -0.64 7.66 -2 8 C-1.34 5.36 -0.68 2.72 0 0 Z " fill="#2F3130" transform="translate(645,450)"/>
<path d="M0 0 C1.27351308 2.54702616 0.80191925 3.4282945 0.0625 6.125 C-0.13214844 6.84945313 -0.32679688 7.57390625 -0.52734375 8.3203125 C-0.68332031 8.87460937 -0.83929687 9.42890625 -1 10 C-3 8 -3 8 -3.3125 5.5625 C-2.95209822 2.60720543 -2.28773145 1.81112073 0 0 Z " fill="#D7D7D7" transform="translate(652,424)"/>
<path d="M0 0 C1.65 0.33 3.3 0.66 5 1 C4.34 2.65 3.68 4.3 3 6 C1.68 4.68 0.36 3.36 -1 2 C-0.67 1.34 -0.34 0.68 0 0 Z " fill="#EAEAEA" transform="translate(646,143)"/>
<path d="M0 0 C1.65 1.65 3.3 3.3 5 5 C3.68 5.33 2.36 5.66 1 6 C1 5.34 1 4.68 1 4 C0.34 4 -0.32 4 -1 4 C-0.67 2.68 -0.34 1.36 0 0 Z " fill="#252726" transform="translate(637,134)"/>
<path d="M0 0 C0.66 0 1.32 0 2 0 C2.33 0.99 2.66 1.98 3 3 C2.34 3 1.68 3 1 3 C1 4.65 1 6.3 1 8 C0.34 8 -0.32 8 -1 8 C-1.04241723 5.66705225 -1.04092937 3.33297433 -1 1 C-0.67 0.67 -0.34 0.34 0 0 Z " fill="#1C1E1D" transform="translate(634,131)"/>
<path d="M0 0 C0.53625 0.37125 1.0725 0.7425 1.625 1.125 C0.33754964 1.51422918 -0.95519597 1.88598036 -2.25 2.25 C-2.96929687 2.45882812 -3.68859375 2.66765625 -4.4296875 2.8828125 C-5.07164062 2.96273437 -5.71359375 3.04265625 -6.375 3.125 C-7.035 2.465 -7.695 1.805 -8.375 1.125 C-2.95961538 -1.09038462 -2.95961538 -1.09038462 0 0 Z " fill="#2D2E2D" transform="translate(482.375,862.875)"/>
<path d="M0 0 C0.66 0.66 1.32 1.32 2 2 C0.68 3.32 -0.64 4.64 -2 6 C-2.99 5.67 -3.98 5.34 -5 5 C-3.35 3.35 -1.7 1.7 0 0 Z " fill="#212121" transform="translate(539,827)"/>
<path d="M0 0 C0.66 0 1.32 0 2 0 C1.8125 1.875 1.8125 1.875 1 4 C-1.5625 5.25 -1.5625 5.25 -4 6 C-2.7260411 3.96166576 -1.38938077 1.96147874 0 0 Z " fill="#E9E9E9" transform="translate(797,818)"/>
<path d="M0 0 C1.98 0.495 1.98 0.495 4 1 C4 2.32 4 3.64 4 5 C2.0625 4.625 2.0625 4.625 0 4 C-0.33 3.34 -0.66 2.68 -1 2 C-0.67 1.34 -0.34 0.68 0 0 Z " fill="#252726" transform="translate(315,812)"/>
<path d="M0 0 C0.33 0 0.66 0 1 0 C1.33 2.64 1.66 5.28 2 8 C1.01 8.33 0.02 8.66 -1 9 C-0.67 6.03 -0.34 3.06 0 0 Z " fill="#DADCDB" transform="translate(226,755)"/>
<path d="M0 0 C0.66 1.32 1.32 2.64 2 4 C0.02 4.99 0.02 4.99 -2 6 C-2 2 -2 2 0 0 Z " fill="#1E201F" transform="translate(752,746)"/>
<path d="M0 0 C2.12508244 3.18762365 2.5020163 5.26512223 3 9 C2.01 8.67 1.02 8.34 0 8 C-1.125 2.25 -1.125 2.25 0 0 Z " fill="#D5D5D5" transform="translate(221,736)"/>
<path d="M0 0 C0.66 0 1.32 0 2 0 C2.99 1.98 3.98 3.96 5 6 C4.34 6.66 3.68 7.32 3 8 C0 2.25 0 2.25 0 0 Z " fill="#212221" transform="translate(730,715)"/>
<path d="M0 0 C1.32 0 2.64 0 4 0 C4 1.98 4 3.96 4 6 C2.35 4.35 0.7 2.7 -1 1 C-0.67 0.67 -0.34 0.34 0 0 Z " fill="#E9E9E9" transform="translate(707,682)"/>
<path d="M0 0 C0.66 0.33 1.32 0.66 2 1 C1.67 2.65 1.34 4.3 1 6 C-0.65 4.68 -2.3 3.36 -4 2 C-2.125 0.9375 -2.125 0.9375 0 0 Z " fill="#E8EAE9" transform="translate(701,673)"/>
<path d="M0 0 C0.33 0.66 0.66 1.32 1 2 C1.66 2 2.32 2 3 2 C3.66 3.32 4.32 4.64 5 6 C2 6 2 6 0.3125 4.5 C-0.120625 4.005 -0.55375 3.51 -1 3 C-0.67 2.01 -0.34 1.02 0 0 Z " fill="#E2E4E3" transform="translate(234,666)"/>
<path d="M0 0 C-1.125 1.5625 -1.125 1.5625 -3 3 C-6.1875 2.6875 -6.1875 2.6875 -9 2 C-5.96271914 -1.03728086 -4.06215635 -1.35405212 0 0 Z " fill="#2B2B2B" transform="translate(646,628)"/>
<path d="M0 0 C0.66 0.33 1.32 0.66 2 1 C2 1.99 2 2.98 2 4 C2.99 4 3.98 4 5 4 C5 4.66 5 5.32 5 6 C2.5625 5.625 2.5625 5.625 0 5 C-0.33 4.34 -0.66 3.68 -1 3 C-0.67 2.01 -0.34 1.02 0 0 Z " fill="#F1F1F1" transform="translate(785,610)"/>
<path d="M0 0 C2.86724686 0.57344937 3.8614515 0.8614515 6 3 C5.67 3.66 5.34 4.32 5 5 C3.68 4.67 2.36 4.34 1 4 C0.67 2.68 0.34 1.36 0 0 Z " fill="#2C2D2D" transform="translate(396,594)"/>
<path d="M0 0 C0.33 0.66 0.66 1.32 1 2 C-1.40983607 6.70491803 -1.40983607 6.70491803 -4 8 C-4.33 7.01 -4.66 6.02 -5 5 C-3.35 3.35 -1.7 1.7 0 0 Z " fill="#EBEBEB" transform="translate(582,538)"/>
<path d="M0 0 C1.98 1.65 3.96 3.3 6 5 C5.34 5.66 4.68 6.32 4 7 C2.35 5.02 0.7 3.04 -1 1 C-0.67 0.67 -0.34 0.34 0 0 Z " fill="#DEDFDE" transform="translate(589,362)"/>
<path d="M0 0 C0.185625 0.9590625 0.185625 0.9590625 0.375 1.9375 C0.684375 2.9584375 0.684375 2.9584375 1 4 C1.66 4.33 2.32 4.66 3 5 C3 5.66 3 6.32 3 7 C1.0625 6.25 1.0625 6.25 -1 5 C-1.75 2.875 -1.75 2.875 -2 1 C-1.34 0.67 -0.68 0.34 0 0 Z " fill="#2B2B2B" transform="translate(675,217)"/>
<path d="M0 0 C0.66 0.66 1.32 1.32 2 2 C1.01 3.485 1.01 3.485 0 5 C-0.99 5 -1.98 5 -3 5 C-3.33 5.66 -3.66 6.32 -4 7 C-3.6875 4.625 -3.6875 4.625 -3 2 C-2.01 1.34 -1.02 0.68 0 0 Z " fill="#F0F2F1" transform="translate(249,144)"/>
</svg>
