<?xml version="1.0" encoding="UTF-8"?>
<svg version="1.1" xmlns="http://www.w3.org/2000/svg" width="512" height="512">
<path d="M0 0 C4.20978272 3.87867621 6.92547656 9.05942591 9.8125 13.9375 C10.4725 15.030625 11.1325 16.12375 11.8125 17.25 C16.8125 25.63709677 16.8125 25.63709677 16.8125 27.9375 C17.84375 27.4425 18.875 26.9475 19.9375 26.4375 C27.65822237 23.57645217 36.56723008 23.73956275 44.25 26.625 C50.38484558 29.47583957 55.07361418 33.16333107 59.8125 37.9375 C60.4422876 37.58445801 61.0720752 37.23141602 61.72094727 36.86767578 C64.60151546 35.25845232 67.48814562 33.66041687 70.375 32.0625 C71.36564453 31.50691406 72.35628906 30.95132813 73.37695312 30.37890625 C83.27271468 24.92144307 91.58017524 22.11945677 102.8125 25.0625 C112.04315145 28.1584949 118.41951162 33.19376351 122.8125 41.9375 C126.83033449 51.75380018 126.82768174 60.12091497 122.8125 69.9375 C119.44499837 76.63916167 114.87388012 80.8786313 108.88671875 85.30859375 C106.71597694 86.77451949 106.71597694 86.77451949 105.8125 88.9375 C106.41835938 89.33839844 107.02421875 89.73929687 107.6484375 90.15234375 C137.1577881 110.17330316 149.42760678 136.87182721 158.1875 170.1875 C158.84291003 172.6435566 159.49924866 175.09936558 160.15649414 177.55493164 C161.76467647 183.57809508 163.35540527 189.60571036 164.94110107 195.63482666 C165.98312486 199.5841822 167.03932093 203.52963059 168.09765625 207.47463989 C168.96291784 210.7070418 169.8187779 213.94185536 170.67047119 217.17785645 C171.05216176 218.6249441 171.4364956 220.07133753 171.82366943 221.51696777 C174.98852137 233.37613262 176.13847284 241.55214167 170.8125 252.9375 C166.58052078 260.10626195 159.67011282 263.63458861 151.875 265.6875 C145.41511583 267.10963868 139.37716314 268.16582656 132.7578125 267.640625 C124.53016424 266.79703523 124.53016424 266.79703523 117.2890625 269.9140625 C116.00174891 271.65324944 114.77489086 273.43866629 113.609375 275.26171875 C108.05446441 283.53370518 98.2159279 287.01624125 88.8125 288.9375 C86.81332903 288.99507981 84.81110083 289.01229794 82.8125 288.9375 C82.67714844 289.47375 82.54179687 290.01 82.40234375 290.5625 C77.49354288 308.43406244 67.61733216 332.05234589 52.8125 343.9375 C50.734375 344.046875 50.734375 344.046875 48.5625 343.6875 C45.45958367 343.54341765 44.11260219 343.74900606 41.44921875 345.421875 C37.37955805 349.12747404 37.37955805 349.12747404 35.38671875 354.109375 C35.43430326 356.05667947 35.61867812 357.99928122 35.8125 359.9375 C34.64176041 363.08114573 33.19980083 364.70298282 30.49609375 366.63671875 C29.8218335 367.11979492 29.14757324 367.60287109 28.45288086 368.10058594 C27.72593018 368.60364258 26.99897949 369.10669922 26.25 369.625 C25.50435791 370.14739258 24.75871582 370.66978516 23.99047852 371.20800781 C16.29335524 376.4859432 8.16373754 380.79846362 -0.1875 384.9375 C1.44445312 386.04544922 1.44445312 386.04544922 3.109375 387.17578125 C32.46847689 407.34403288 54.87703074 434.2467194 62.62890625 469.66796875 C64.29108286 479.42149567 63.92778975 486.79068781 58.29296875 495.0859375 C53.82048962 500.6794866 48.05874839 505.21539008 40.77978063 506.21728981 C38.49673267 506.32504118 36.23052368 506.34230235 33.94497681 506.32518005 C33.07554927 506.33056559 32.20612174 506.33595113 31.31034791 506.34149987 C28.40938956 506.35575879 25.50888884 506.34868078 22.60791016 506.34155273 C20.5229811 506.34725741 18.43805517 506.35422204 16.35313416 506.36235046 C10.69812098 506.380287 5.04326293 506.37911241 -0.61177015 506.37340808 C-5.33589342 506.3703167 -10.05998687 506.37640819 -14.7841059 506.38244683 C-25.93096564 506.39649232 -37.07774874 506.39493076 -48.22460938 506.38354492 C-59.71662566 506.37206577 -71.20840851 506.38613605 -82.70039403 506.4129414 C-92.57407154 506.43510804 -102.44767582 506.44173352 -112.32137644 506.43586498 C-118.2153594 506.43249629 -124.10919276 506.43490477 -130.00315475 506.45211601 C-135.54691517 506.46759811 -141.09033023 506.46361526 -146.63407707 506.44481087 C-148.6653493 506.44112841 -150.69664718 506.4442234 -152.72789574 506.45469666 C-155.50766277 506.46793186 -158.28629072 506.45633665 -161.06600952 506.43870544 C-161.8637911 506.44831045 -162.66157267 506.45791546 -163.48352945 506.46781152 C-170.63563886 506.37491045 -176.57512129 504.20156155 -182 499.5 C-182.721875 498.654375 -183.44375 497.80875 -184.1875 496.9375 C-185.239375 495.8546875 -185.239375 495.8546875 -186.3125 494.75 C-190.65801348 488.23172978 -192.20990233 480.51816563 -190.79443359 472.79199219 C-190.2483327 470.42775632 -189.64083746 468.09031675 -189 465.75 C-188.77368896 464.91138428 -188.54737793 464.07276855 -188.31420898 463.20874023 C-186.45791459 456.52749498 -184.15108149 450.21279453 -181.1875 443.9375 C-180.75953125 442.97972656 -180.3315625 442.02195312 -179.890625 441.03515625 C-174.05227756 428.5548686 -165.6797001 417.851951 -156.1875 407.9375 C-155.50429687 407.19113281 -154.82109375 406.44476563 -154.1171875 405.67578125 C-146.24000604 397.34805989 -136.6894833 391.23851169 -127.1875 384.9375 C-128.25226563 384.40382813 -129.31703125 383.87015625 -130.4140625 383.3203125 C-168.67794318 363.81801931 -195.03274889 333.06135013 -209.59594727 292.83837891 C-210.1875 290.9375 -210.1875 290.9375 -210.1875 288.9375 C-210.86554688 288.91171875 -211.54359375 288.8859375 -212.2421875 288.859375 C-225.03269673 288.07989798 -234.12348195 283.35703756 -242.97265625 274.0625 C-250.87596838 264.36022424 -254.12603268 252.27746673 -253.1875 239.9375 C-251.48729577 229.0158491 -246.79404132 219.92436839 -239.1875 211.9375 C-238.16914063 211.50953125 -237.15078125 211.0815625 -236.1015625 210.640625 C-231.94378125 206.78380915 -232.37692829 203.53905073 -232.15380859 198.03759766 C-232.12367676 196.72581543 -232.09354492 195.4140332 -232.0625 194.0625 C-231.94608165 191.32186935 -231.80279916 188.58291734 -231.65625 185.84375 C-231.62155609 185.16261139 -231.58686218 184.48147278 -231.55111694 183.7796936 C-230.26826129 160.09200477 -222.85109199 136.54046041 -211.1875 115.9375 C-210.64391846 114.96562744 -210.64391846 114.96562744 -210.08935547 113.97412109 C-205.44182473 105.73449105 -200.44351719 98.07348444 -194.1875 90.9375 C-193.71441406 90.38191406 -193.24132812 89.82632813 -192.75390625 89.25390625 C-190.12541108 86.36338041 -188.10973001 85.13864 -184.1875 84.9375 C-183.56230469 85.18113281 -182.93710938 85.42476563 -182.29296875 85.67578125 C-181.59816406 85.76214844 -180.90335937 85.84851563 -180.1875 85.9375 C-178.01205365 84.29394899 -178.01205365 84.29394899 -176.0625 82 C-174.80365435 80.61526978 -173.51796561 79.25356664 -172.1875 77.9375 C-171.5275 77.9375 -170.8675 77.9375 -170.1875 77.9375 C-170.5175 77.2775 -170.8475 76.6175 -171.1875 75.9375 C-171.65081553 71.84487946 -171.81898459 69.75231882 -169.25 66.4375 C-168.239375 65.6125 -167.22875 64.7875 -166.1875 63.9375 C-165.24112671 63.16418335 -165.24112671 63.16418335 -164.27563477 62.37524414 C-158.80362525 58.00348628 -153.15790832 54.31558222 -147.0625 50.875 C-146.14090088 50.35405762 -145.21930176 49.83311523 -144.26977539 49.29638672 C-136.78517516 45.13878217 -129.32333841 41.65209776 -121.1875 38.9375 C-120.43678223 38.68274902 -119.68606445 38.42799805 -118.91259766 38.16552734 C-97.10222501 30.87783183 -76.05014517 29.36548002 -53.1875 28.9375 C-53.21070313 27.720625 -53.23390625 26.50375 -53.2578125 25.25 C-53.24475386 15.36025679 -49.2670493 8.19590667 -42.5234375 1.21484375 C-30.60651163 -9.85864673 -12.9776358 -8.39729376 0 0 Z " fill="#020101" transform="translate(295.1875,6.0625)"/>
<path d="M0 0 C0.93956039 0.21787674 1.87912079 0.43575348 2.84715271 0.66023254 C13.95525921 3.35330706 24.61328534 7.23993036 35.33203125 11.16796875 C37.44258591 11.93009701 39.55367655 12.6907425 41.6652832 13.44995117 C45.81071958 14.94099178 49.95436925 16.43682213 54.09667969 17.93652344 C61.52767107 20.6209819 68.98610269 23.22211556 76.45703125 25.79296875 C77.54508057 26.17026123 78.63312988 26.54755371 79.75415039 26.9362793 C92.9249855 31.47087658 106.26343347 35.2935238 119.70703125 38.91796875 C120.52178925 39.13801575 121.33654724 39.35806274 122.17599487 39.58477783 C136.8600379 43.54241419 151.56546593 47.21692142 166.50390625 50.09375 C167.90757446 50.36566162 167.90757446 50.36566162 169.33959961 50.64306641 C171.12246879 50.98430817 172.90709784 51.31652239 174.69360352 51.63818359 C176.73189087 52.02218144 178.75349472 52.49295833 180.76953125 52.98046875 C189.971359 71.38412425 184.01001002 104.78321263 177.88134766 123.28173828 C172.64712681 138.13045656 165.92535739 152.41818676 156.26953125 164.91796875 C153.72927657 168.29834679 152.81772461 169.64311521 152.20703125 173.91796875 C152.6270523 176.84144018 152.6270523 176.84144018 153.58203125 178.875 C153.76953125 180.98046875 153.76953125 180.98046875 151.8984375 183.33984375 C151.05152344 184.12875 150.20460938 184.91765625 149.33203125 185.73046875 C148.06552734 186.92929687 148.06552734 186.92929687 146.7734375 188.15234375 C146.11214844 188.755625 145.45085937 189.35890625 144.76953125 189.98046875 C144.04765625 189.65046875 143.32578125 189.32046875 142.58203125 188.98046875 C139.54706392 187.90136925 137.94534374 187.4527514 134.76953125 187.98046875 C132.3836014 189.55247918 130.23455495 191.13473671 128.01953125 192.91796875 C99.8317259 214.48998377 62.92080894 223.12858499 27.89648438 219.09667969 C0.5981562 215.40364886 -23.2578745 203.54634718 -44.23046875 185.98046875 C-45.29587891 185.10068359 -45.29587891 185.10068359 -46.3828125 184.203125 C-51.15636611 180.16255467 -55.27903091 175.82259954 -59.23046875 170.98046875 C-60.390625 169.57667969 -60.390625 169.57667969 -61.57421875 168.14453125 C-72.41284312 154.7427044 -79.49863371 140.16643669 -85.23046875 123.98046875 C-85.55789062 123.10390625 -85.8853125 122.22734375 -86.22265625 121.32421875 C-93.1008262 101.18607169 -93.51028764 76.66626003 -89.23046875 55.98046875 C-89.070625 55.07039063 -88.91078125 54.1603125 -88.74609375 53.22265625 C-85.71818497 39.18788987 -76.18292848 27.83354586 -66.23046875 17.98046875 C-65.44027344 17.16835937 -64.65007812 16.35625 -63.8359375 15.51953125 C-59.21449628 11.02837942 -54.36612874 7.65965114 -48.73046875 4.60546875 C-48.13782227 4.28352539 -47.54517578 3.96158203 -46.93457031 3.62988281 C-32.09221755 -3.98881537 -15.96626676 -3.74959364 0 0 Z " fill="#FEDBCD" transform="translate(185.23046875,169.01953125)"/>
<path d="M0 0 C5.12656505 -0.06695592 10.25336352 -0.1039078 15.38037109 -0.09130859 C16.23276367 -0.09018066 17.08515625 -0.08905273 17.96337891 -0.08789062 C20.17724609 0.04150391 20.17724609 0.04150391 23.17724609 1.04150391 C23.68943828 6.77805636 23.19729984 10.32351194 19.93115234 15.11572266 C17.90114576 17.34466085 15.77208314 18.7855719 13.23974609 20.41650391 C6.72836532 24.65714981 3.96754805 30.13539055 0.80224609 37.04150391 C-1.19510164 46.62877304 0.63474659 54.87881247 5.49755859 63.33837891 C10.31818855 70.34541481 16.80739662 74.45411866 25.17724609 76.04150391 C36.6647923 77.13000236 45.53122608 73.26306777 55.11474609 67.29150391 C56.76397441 66.26661723 58.4186972 65.25050284 60.07958984 64.24462891 C60.79622803 63.79764648 61.51286621 63.35066406 62.2512207 62.89013672 C64.17724609 62.04150391 64.17724609 62.04150391 67.17724609 63.04150391 C68.13630859 64.37181641 68.13630859 64.37181641 69.11474609 65.72900391 C73.32843062 70.8776776 79.56780379 74.36893974 86.16503906 75.33154297 C93.78735567 75.90308192 100.83475205 75.06476893 108.17724609 73.04150391 C108.62209351 73.88745117 108.62209351 73.88745117 109.07592773 74.75048828 C110.45284519 77.35349383 111.84614201 79.94739643 113.23974609 82.54150391 C113.93874023 83.87181641 113.93874023 83.87181641 114.65185547 85.22900391 C118.74551912 92.80367406 123.26687301 100.37355605 131.42724609 103.97900391 C132.25740234 104.35927734 133.08755859 104.73955078 133.94287109 105.13134766 C138.0119968 106.78887614 141.49101719 107.30087418 145.86474609 107.60400391 C147.63398437 107.7296875 147.63398437 107.7296875 149.43896484 107.85791016 C150.34259766 107.91849609 151.24623047 107.97908203 152.17724609 108.04150391 C156.5593662 124.61272509 158.4852371 139.87956075 158.17724609 157.04150391 C122.76381099 159.67121443 81.3875045 144.13956693 48.17724609 133.04150391 C47.08639709 132.6770517 47.08639709 132.6770517 45.97351074 132.30523682 C29.51057921 126.79377883 13.10122154 121.14659054 -3.19775391 115.16650391 C-11.30946394 112.19975527 -19.47044343 109.53075743 -27.76025391 107.10400391 C-28.72560059 106.82121582 -29.69094727 106.53842773 -30.68554688 106.24707031 C-54.59727543 99.42890021 -76.77256662 99.92399859 -98.91650391 111.76416016 C-105.05341799 115.22223847 -110.4783646 119.47682012 -115.82275391 124.04150391 C-116.81662109 124.88261719 -116.81662109 124.88261719 -117.83056641 125.74072266 C-126.4371256 133.68677847 -132.89295939 144.44791199 -137.95947266 154.90869141 C-139.82275391 157.04150391 -139.82275391 157.04150391 -143.52978516 157.36181641 C-144.61646484 157.25611328 -145.70314453 157.15041016 -146.82275391 157.04150391 C-148.4121641 123.4519684 -138.43862399 88.10300716 -117.09619141 61.59228516 C-116.63583496 61.01889404 -116.17547852 60.44550293 -115.70117188 59.85473633 C-114.80840715 58.761313 -113.89935753 57.68090636 -112.97167969 56.61694336 C-110.62173903 53.77069893 -109.83049838 52.12334896 -109.47900391 48.40869141 C-109.68122136 45.19524468 -109.68122136 45.19524468 -110.55712891 42.86572266 C-110.82275391 41.04150391 -110.82275391 41.04150391 -109.27587891 38.93603516 C-108.54884766 38.24896484 -107.82181641 37.56189453 -107.07275391 36.85400391 C-106.35603516 36.15919922 -105.63931641 35.46439453 -104.90087891 34.74853516 C-102.82275391 33.04150391 -102.82275391 33.04150391 -99.82275391 32.04150391 C-98.83275391 32.70150391 -97.84275391 33.36150391 -96.82275391 34.04150391 C-91.13156768 33.87909193 -87.72280098 31.97555486 -83.38525391 28.54150391 C-59.07572818 10.37635952 -30.3566975 0.4463448 0 0 Z " fill="#F6E669" transform="translate(225.82275390625,50.95849609375)"/>
<path d="M0 0 C0.14695312 0.73863281 0.29390625 1.47726562 0.4453125 2.23828125 C3.48312184 15.97825797 9.61148214 26.45991034 21.3671875 34.390625 C33.46938715 41.78840876 46.77201005 42.82564122 60.6328125 40.3515625 C67.63567798 38.21230594 73.35705273 34.61249603 79 30 C79.64839844 29.47664063 80.29679688 28.95328125 80.96484375 28.4140625 C88.73122288 21.44641383 93.57432366 10.21734711 95 0 C118.10885455 6.92232454 136.74991614 28.61720614 148 49 C153.85742024 59.90964991 160.80559197 73.36085623 159 86 C156.54618065 91.00201636 154.10850477 92.94896283 149 95 C146.1068596 95.28479302 143.43213778 95.41844883 140.54298401 95.40113831 C139.70566819 95.40793498 138.86835236 95.41473164 138.00566334 95.42173427 C135.20750579 95.44068404 132.40978677 95.43827091 129.61157227 95.43579102 C127.60236041 95.44476981 125.59315374 95.45497833 123.58395386 95.46632385 C118.13150599 95.4928127 112.67919938 95.49985677 107.22669339 95.50177121 C103.81977893 95.50390414 100.41290035 95.5103097 97.0059948 95.51826286 C85.11945185 95.54601055 73.23300981 95.55826884 61.34643555 95.5559082 C50.26726857 95.55410509 39.18853945 95.58577843 28.1094833 95.63313919 C18.59508565 95.67236174 9.08083116 95.68846011 -0.43364674 95.68654197 C-6.11529345 95.68577702 -11.79655083 95.6943305 -17.47811699 95.72607613 C-22.82089318 95.75511464 -28.16290761 95.75536134 -33.5057106 95.73352623 C-35.46526896 95.73038823 -37.42487471 95.7374806 -39.38435173 95.7556076 C-42.06246315 95.77877623 -44.73794533 95.76483806 -47.41600037 95.74171448 C-48.57574305 95.76486051 -48.57574305 95.76486051 -49.75891489 95.78847414 C-55.05605035 95.68757951 -57.78880119 94.14996291 -61.67287499 90.57939285 C-64.29887863 87.45422277 -64.1604721 84.39144841 -64 80.5 C-61.83831423 55.95528946 -45.27703487 31.74464079 -27 16 C-7.2670227 0 -7.2670227 0 0 0 Z " fill="#BB9ADC" transform="translate(184,402)"/>
<path d="M0 0 C-0.73169594 1.31774992 -1.46348739 2.63544681 -2.1953125 3.953125 C-2.65325195 4.77876953 -3.11119141 5.60441406 -3.58300781 6.45507812 C-4.46258497 8.03480112 -5.34653345 9.61210881 -6.23730469 11.18554688 C-21.11931885 37.5368283 -25.24443162 63.09545273 -27 93 C-25.54400391 92.26330078 -25.54400391 92.26330078 -24.05859375 91.51171875 C-19.69014347 89.63952577 -15.75135254 89.65580313 -11.0625 89.8125 C-10.28326172 89.82603516 -9.50402344 89.83957031 -8.70117188 89.85351562 C-6.80047596 89.88849776 -4.90014166 89.94229041 -3 90 C-2.98582031 89.13117188 -2.97164063 88.26234375 -2.95703125 87.3671875 C-2.51823251 76.76486116 -2.51823251 76.76486116 0.125 73.125 C3 71 3 71 6.625 70.9375 C9.91322874 71.97268312 10.97647344 72.36873644 13 75 C13.35644531 77.02124023 13.35644531 77.02124023 13.328125 79.30859375 C13.32296875 80.13810547 13.3178125 80.96761719 13.3125 81.82226562 C13.291875 82.68529297 13.27125 83.54832031 13.25 84.4375 C13.24484375 85.29666016 13.2396875 86.15582031 13.234375 87.04101562 C13.15528526 93.41268282 13.15528526 93.41268282 12.42724609 96.16625977 C11.77446385 98.05233784 11.77446385 98.05233784 12.9609375 99.78125 C13.66089844 100.63203125 13.66089844 100.63203125 14.375 101.5 C18.07407762 106.04635238 18.48329822 110.57780097 18.3984375 116.33984375 C17.53662966 122.09367843 14.18811352 126.20728243 9.7734375 129.82421875 C3.27218874 134.31421162 -1.83986615 136.32336218 -9.8125 136.125 C-10.50537109 136.11597656 -11.19824219 136.10695313 -11.91210938 136.09765625 C-13.60822395 136.07426157 -15.30415871 136.03839641 -17 136 C-9.44871157 153.04313143 -0.6896342 168.26379804 12 182 C12.46631836 182.51014648 12.93263672 183.02029297 13.41308594 183.54589844 C26.91412134 198.15889284 43.30117779 208.77717033 61.375 216.9375 C62.01687256 217.23237305 62.65874512 217.52724609 63.32006836 217.83105469 C67.89264789 219.81713055 72.03310129 220.56498337 77 221 C77 221.33 77 221.66 77 222 C39.61672063 222.91675617 6.83504295 212.15117811 -22 188 C-23.06541016 187.12021484 -23.06541016 187.12021484 -24.15234375 186.22265625 C-28.92589736 182.18208592 -33.04856216 177.84213079 -37 173 C-38.16015625 171.59621094 -38.16015625 171.59621094 -39.34375 170.1640625 C-50.18237437 156.76223565 -57.26816496 142.18596794 -63 126 C-63.32742187 125.1234375 -63.65484375 124.246875 -63.9921875 123.34375 C-70.87035745 103.20560294 -71.27981889 78.68579128 -67 58 C-66.84015625 57.08992188 -66.6803125 56.17984375 -66.515625 55.2421875 C-63.48771622 41.20742112 -53.95245973 29.85307711 -44 20 C-43.20980469 19.18789062 -42.41960937 18.37578125 -41.60546875 17.5390625 C-30.50069722 6.74736082 -15.65140573 -0.75732608 0 0 Z " fill="#FDC8BB" transform="translate(163,167)"/>
<path d="M0 0 C-1.62339805 1.70884005 -3.29319053 3.37446717 -5 5 C-5.66 5 -6.32 5 -7 5 C-7.37511719 5.99580078 -7.37511719 5.99580078 -7.7578125 7.01171875 C-8.70405711 9.28806192 -9.69903896 11.44738013 -10.8046875 13.64453125 C-15.6223762 23.2868723 -18.84353176 32.42477723 -21 43 C-21.1750708 43.78294434 -21.3501416 44.56588867 -21.53051758 45.37255859 C-23.81499299 58.15754266 -22.77713428 72.65125145 -19.65625 85.20703125 C-19 88 -19 88 -19 92 C-17.515 92.495 -17.515 92.495 -16 93 C-16.99257812 93.02578125 -17.98515625 93.0515625 -19.0078125 93.078125 C-40.69530786 93.8768832 -58.65345599 102.03829173 -75 116 C-75.99386719 116.84111328 -75.99386719 116.84111328 -77.0078125 117.69921875 C-85.61437169 125.64527456 -92.07020548 136.40640808 -97.13671875 146.8671875 C-99 149 -99 149 -102.70703125 149.3203125 C-103.79371094 149.21460938 -104.88039063 149.10890625 -106 149 C-107.5894102 115.41046449 -97.61587008 80.06150325 -76.2734375 53.55078125 C-75.81308105 52.97739014 -75.35272461 52.40399902 -74.87841797 51.81323242 C-73.98565324 50.71980909 -73.07660362 49.63940245 -72.14892578 48.57543945 C-69.79898513 45.72919502 -69.00774448 44.08184505 -68.65625 40.3671875 C-68.85846745 37.15374077 -68.85846745 37.15374077 -69.734375 34.82421875 C-70 33 -70 33 -68.453125 30.89453125 C-67.72609375 30.20746094 -66.9990625 29.52039063 -66.25 28.8125 C-65.53328125 28.11769531 -64.8165625 27.42289063 -64.078125 26.70703125 C-62 25 -62 25 -59 24 C-58.01 24.66 -57.02 25.32 -56 26 C-50.3091905 25.83759878 -46.8995422 23.93452893 -42.5625 20.5 C-32.31189751 12.82484237 -21.43525564 6.81716477 -9.625 1.875 C-8.8930542 1.56731689 -8.1611084 1.25963379 -7.40698242 0.94262695 C-2.25374234 -1.12687117 -2.25374234 -1.12687117 0 0 Z " fill="#F8D26D" transform="translate(185,59)"/>
<path d="M0 0 C18.65373156 11.00091861 29.40870888 32.53094594 34.7421875 52.7590332 C35.91704175 57.40484098 37.05053502 62.06019073 38.1796875 66.71728516 C39.37329848 71.49386054 40.73745336 76.21429839 42.125 80.9375 C44.34033723 88.54397697 46.35779018 96.18101046 48.2355957 103.87768555 C49.3360047 108.38427256 50.50584519 112.85818361 51.77075195 117.32128906 C55.3463051 130.05083836 55.3463051 130.05083836 53.0625 136.75 C48.97303439 141.21123521 42.89745171 143.1575069 37 144 C34.06087715 144.11187722 31.12816996 144.09454418 28.1875 144.0625 C27.00510742 144.05573242 27.00510742 144.05573242 25.79882812 144.04882812 C23.86585239 144.03711312 21.93291607 144.01917998 20 144 C19.98582031 142.98421875 19.97164063 141.9684375 19.95703125 140.921875 C19.60860734 128.76410443 17.1334143 119.07112942 9.13671875 109.5234375 C8 108 8 108 8 106 C7.1646875 105.62875 7.1646875 105.62875 6.3125 105.25 C5.549375 104.8375 4.78625 104.425 4 104 C2.71029297 103.32710937 2.71029297 103.32710937 1.39453125 102.640625 C-2.41455682 98.44006459 -1.65316389 93.97522278 -1.625 88.5 C-1.90071079 72.79015827 -3.81843071 57.9579504 -8.23046875 42.87109375 C-9 40 -9 40 -9 37 C-7.82156542 35.85523498 -6.64008598 34.71339256 -5.44140625 33.58984375 C0.38773924 27.16040685 2.23054245 20.10601423 2.16796875 11.68359375 C1.91667024 7.66866181 1.04820361 3.87460978 0 0 Z " fill="#F8BE71" transform="translate(400,114)"/>
<path d="M0 0 C0.15855469 0.75023437 0.31710938 1.50046875 0.48046875 2.2734375 C2.11476148 9.44265532 4.40985645 15.58598859 8 22 C7.34 22 6.68 22 6 22 C5.61714844 22.83917969 5.61714844 22.83917969 5.2265625 23.6953125 C3.83413932 26.31164905 2.17284438 28.51846295 0.375 30.875 C-10.3573988 45.55427734 -22.82647394 67.12643592 -21 86 C-20.52994277 87.59236442 -20.02055203 89.17354043 -19.4765625 90.7421875 C-19.20150879 91.54253418 -18.92645508 92.34288086 -18.64306641 93.16748047 C-18.43085449 93.77221191 -18.21864258 94.37694336 -18 95 C-23.28348602 95.1489597 -28.56573513 95.25750071 -33.85083008 95.32958984 C-35.64629421 95.35965704 -37.44161274 95.4005234 -39.23657227 95.45263672 C-41.82604974 95.52590349 -44.41357699 95.55955491 -47.00390625 95.5859375 C-48.19651817 95.63238907 -48.19651817 95.63238907 -49.41322327 95.67977905 C-54.88992246 95.68304368 -57.6807337 94.30280835 -61.68736267 90.58486938 C-65.00061721 86.58446839 -64.1182648 81.8428294 -63.69140625 76.99609375 C-59.96569377 51.38263039 -41.4977976 26.83934916 -21.33764648 11.57202148 C-5.64210393 0 -5.64210393 0 0 0 Z " fill="#AE8AD5" transform="translate(184,402)"/>
<path d="M0 0 C3.77702297 2.63513231 6.60374735 5.7074947 8.6875 9.875 C9.37353552 15.29580522 8.93580465 20.10119908 6.28515625 24.91796875 C3.56330136 28.25207462 -0.07633248 30.33548318 -3.61328125 32.734375 C-9.10859945 37.09245658 -12.88525013 44.02420063 -14.3125 50.875 C-15.27172207 59.31315668 -13.1291234 66.52835698 -9.19921875 73.98828125 C-7.23758222 78.16215987 -8.10317912 82.17315942 -9.375 86.4375 C-11.98964137 91.07637984 -15.52375038 94.48062519 -20.3125 96.875 C-25.98030097 97.69812462 -30.60925267 97.12297328 -35.33984375 93.8125 C-39.66408849 89.56532101 -42.35284377 84.10757498 -45.3125 78.875 C-46.99287976 76.27549812 -48.67522328 73.67803794 -50.37890625 71.09375 C-51.60597959 68.1775255 -51.28192611 66.86894855 -50.3125 63.875 C-49.83635254 62.96556641 -49.36020508 62.05613281 -48.86962891 61.11914062 C-47.30652603 57.86255377 -46.40013995 54.88148516 -45.55859375 51.375 C-45.26146484 50.158125 -44.96433594 48.94125 -44.65820312 47.6875 C-44.35849609 46.429375 -44.05878906 45.17125 -43.75 43.875 C-43.14664901 41.37448805 -42.54125068 38.87446904 -41.93359375 36.375 C-41.6698999 35.2715625 -41.40620605 34.168125 -41.13452148 33.03125 C-40.3125 29.875 -40.3125 29.875 -39.20556641 26.8059082 C-38.28592728 23.78779238 -38.28325983 21.6066358 -38.40234375 18.48046875 C-38.11214046 14.79769536 -37.76926441 13.33877411 -35.14892578 10.67822266 C-32.14509982 8.62095657 -29.0949024 6.88588916 -25.875 5.1875 C-24.81861328 4.56939453 -23.76222656 3.95128906 -22.67382812 3.31445312 C-14.93578868 -0.99081466 -8.55809551 -2.906523 0 0 Z " fill="#FCAFBE" transform="translate(396.3125,47.125)"/>
<path d="M0 0 C7.77891467 3.81607135 12.05194603 11.33533808 16.3125 18.5625 C16.76689453 19.30435547 17.22128906 20.04621094 17.68945312 20.81054688 C21.88063045 27.88827941 21.88063045 27.88827941 21 32 C20.07149312 34.2167653 19.06882816 36.38920423 18.046875 38.56445312 C16.35400666 42.50289869 15.45291382 46.58201665 14.5 50.75 C12.87678739 57.58491159 11.09288369 64.23944309 8.796875 70.8828125 C7.89189734 73.84191226 7.89189734 73.84191226 8.05004883 76.34057617 C8.06796253 79.17174259 7.91127597 81.31037776 7 84 C3.79656418 87.09708205 0.12104821 89.0176498 -3.8125 91.0625 C-5.3294043 91.91231445 -5.3294043 91.91231445 -6.87695312 92.77929688 C-13.60731583 96.49367418 -19.12639337 99.01737614 -27 98 C-32.37895808 95.81194926 -35.26877783 93.21294563 -38.12109375 88.1484375 C-40.00833212 83.53518814 -39.54585938 79.67169436 -38 74.9375 C-34.53586309 69.84954892 -29.7621229 66.27840289 -24.8125 62.6875 C-18.46088013 56.61817435 -15.89905388 48.60107577 -15.625 40 C-15.63899863 33.74961291 -17.27448034 29.45557232 -19.87109375 23.85546875 C-21.59227324 19.5018971 -21.88500149 15.58889661 -21 11 C-16.39812226 1.79624453 -9.78342742 -1.07029792 0 0 Z " fill="#FCB0BE" transform="translate(279,15)"/>
<path d="M0 0 C4.13535567 1.35338913 5.1561733 2.46794917 7.4375 6.125 C7.828125 9.67578125 7.828125 9.67578125 7.6875 13.4375 C7.65140625 14.69175781 7.6153125 15.94601563 7.578125 17.23828125 C7.50851562 18.66720703 7.50851562 18.66720703 7.4375 20.125 C8.0975 19.795 8.7575 19.465 9.4375 19.125 C20.32798778 18.29460031 29.48725342 18.99273845 38.3125 25.9375 C43.26134438 30.64065707 45.64092115 34.63594887 45.9375 41.5625 C45.63702246 48.6382615 43.42753431 53.54664824 38.25 58.375 C37.00588167 59.32760943 35.73401694 60.24503469 34.4375 61.125 C33.83679688 61.54007812 33.23609375 61.95515625 32.6171875 62.3828125 C25.17840815 66.55436327 15.68361652 66.33651475 7.4375 65.125 C-0.02611722 62.84646314 -6.47979236 58.9246174 -10.5625 52.125 C-13.05118213 46.83546655 -13.39355735 41.88592182 -12.5625 36.125 C-11.45594077 33.80392454 -10.23190797 31.90537747 -8.65625 29.87890625 C-7.20973379 27.90381367 -7.20973379 27.90381367 -7.5625 24.125 C-7.8925 23.465 -8.2225 22.805 -8.5625 22.125 C-8.76643196 19.33695878 -8.88620547 16.60338867 -8.9375 13.8125 C-8.97488281 13.05259766 -9.01226562 12.29269531 -9.05078125 11.50976562 C-9.1173698 7.25179752 -8.92298114 5.60054133 -6.26171875 2.08984375 C-3.5625 0.125 -3.5625 0.125 0 0 Z " fill="#FEA1AB" transform="translate(294.5625,237.875)"/>
<path d="M0 0 C3.28822874 1.03518312 4.35147344 1.43123644 6.375 4.0625 C6.73144531 6.08374023 6.73144531 6.08374023 6.703125 8.37109375 C6.69796875 9.20060547 6.6928125 10.03011719 6.6875 10.88476562 C6.666875 11.74779297 6.64625 12.61082031 6.625 13.5 C6.61984375 14.35916016 6.6146875 15.21832031 6.609375 16.10351562 C6.53028526 22.47518282 6.53028526 22.47518282 5.80224609 25.22875977 C5.14946385 27.11483784 5.14946385 27.11483784 6.3359375 28.84375 C6.80257812 29.4109375 7.26921875 29.978125 7.75 30.5625 C11.44907762 35.10885238 11.85829822 39.64030097 11.7734375 45.40234375 C10.91162966 51.15617843 7.56311352 55.26978243 3.1484375 58.88671875 C-6.46531929 65.52632001 -15.20183823 66.1124427 -26.625 65.0625 C-34.51773067 63.28610374 -40.87483712 57.75803137 -45.625 51.375 C-47.3697929 45.59537352 -47.85601493 39.48198592 -45.78125 33.71875 C-41.70927765 26.56528506 -34.47285333 21.39299821 -26.625 19.0625 C-23.62987945 18.73306388 -20.69570715 18.77446866 -17.6875 18.875 C-16.51864258 18.89530273 -16.51864258 18.89530273 -15.32617188 18.91601562 C-13.42547596 18.95099776 -11.52514166 19.00479041 -9.625 19.0625 C-9.61082031 18.19367188 -9.59664062 17.32484375 -9.58203125 16.4296875 C-9.14323251 5.82736116 -9.14323251 5.82736116 -6.5 2.1875 C-3.625 0.0625 -3.625 0.0625 0 0 Z " fill="#FDA0AB" transform="translate(169.625,237.9375)"/>
<path d="M0 0 C3.49010734 2.39990609 5.96431345 5.4833144 7.86328125 9.28125 C8.44778572 16.12690091 7.46263453 22.32334847 5.67578125 28.90625 C5.45092041 29.7629126 5.22605957 30.6195752 4.99438477 31.50219727 C4.30255458 34.10071432 3.58778588 36.69166916 2.86328125 39.28125 C2.64446289 40.07096191 2.42564453 40.86067383 2.20019531 41.67431641 C-2.23446278 57.45211442 -2.23446278 57.45211442 -8.63671875 62.09375 C-14.3171638 64.02104386 -20.64015735 64.6836142 -26.328125 62.40234375 C-30.55059148 59.63904495 -33.44347622 56.02700245 -35.13671875 51.28125 C-35.82891317 45.13986549 -34.73805461 39.62618245 -32.94921875 33.78125 C-32.4843018 32.21095917 -32.01945999 30.64064609 -31.5546875 29.0703125 C-31.31669434 28.27915039 -31.07870117 27.48798828 -30.83349609 26.67285156 C-30.15128101 24.33123315 -29.5353469 21.98160458 -28.9375 19.6171875 C-26.56882612 10.47155683 -24.13814691 2.88210689 -15.63671875 -2.21875 C-9.63234495 -3.41962476 -5.32379553 -2.89449077 0 0 Z " fill="#FBAFBE" transform="translate(336.13671875,48.71875)"/>
<path d="M0 0 C1.01545898 0.14147461 2.03091797 0.28294922 3.07714844 0.42871094 C13.06674528 1.75198488 22.87576084 2.31651517 32.94921875 2.26074219 C35.26328304 2.24993798 37.57658259 2.26076583 39.890625 2.2734375 C48.79853212 2.28053543 57.22855807 1.69408843 66 0 C66.19569676 8.30456749 62.34825823 14.76427171 56.8125 20.875 C49.48946206 27.4816538 41.58238504 29.71283837 31.85180664 29.52148438 C21.90935481 28.99876018 14.69429198 25.28327475 8 18 C3.30782615 12.29640201 1.15498965 7.27643478 0 0 Z " fill="#EDB2A6" transform="translate(198,400)"/>
<path d="M0 0 C0.66 0.33 1.32 0.66 2 1 C1.34 1.99 0.68 2.98 0 4 C0.04644434 5.69732963 0.10499945 7.39539105 0.23168945 9.08862305 C0.8919521 19.04655363 -1.15175813 28.14215889 -3.6875 37.6875 C-3.85767639 38.33328003 -4.02785278 38.97906006 -4.20318604 39.64440918 C-12.5145031 70.88291682 -12.5145031 70.88291682 -20 78 C-21.32 78 -22.64 78 -24 78 C-25.95703125 75.55078125 -25.95703125 75.55078125 -27.8125 72.3125 C-28.43769531 71.25675781 -29.06289063 70.20101562 -29.70703125 69.11328125 C-31.15650563 65.62315714 -31.25098337 64.49944686 -30 61 C-29.52288574 60.09290283 -29.04577148 59.18580566 -28.55419922 58.2512207 C-26.9963676 54.99240139 -26.08759391 52.00629335 -25.24609375 48.5 C-24.94896484 47.283125 -24.65183594 46.06625 -24.34570312 44.8125 C-24.04599609 43.554375 -23.74628906 42.29625 -23.4375 41 C-22.83414901 38.49948805 -22.22875068 35.99946904 -21.62109375 33.5 C-21.3573999 32.3965625 -21.09370605 31.293125 -20.82202148 30.15625 C-20 27 -20 27 -18.88720703 23.75878906 C-17.91949606 20.74967129 -18.13496275 18.85915201 -18.4375 15.75 C-18.24974315 12.495548 -17.79278439 10.70634085 -15.32519531 8.5078125 C-10.63685153 5.20917322 -5.42155837 1.92746598 0 0 Z " fill="#FC9BAE" transform="translate(376,50)"/>
<path d="M0 0 C2.5739496 2.36525099 4.35782523 4.90234322 6.1875 7.875 C6.98220703 9.13957031 6.98220703 9.13957031 7.79296875 10.4296875 C9.20641811 13.43955701 9.51075432 14.71055478 9 18 C8.08326148 20.22294652 7.06930919 22.38818036 6.046875 24.56445312 C4.35400666 28.50289869 3.45291382 32.58201665 2.5 36.75 C0.85265406 43.68653055 -1.00407528 50.42038732 -3.27734375 57.1796875 C-4.01782173 60.06955293 -3.96175679 62.29200176 -3.8125 65.25 C-3.92578125 67.6328125 -3.92578125 67.6328125 -5 70 C-8.55012278 73.10562827 -16.19867041 79 -21 79 C-23.78393742 66.47228161 -21.00076514 55.1178365 -17.79589844 43.0078125 C-17.24593682 40.92942996 -16.70552083 38.84850647 -16.17285156 36.765625 C-15.32163084 33.44264653 -14.44590491 30.12705495 -13.5625 26.8125 C-13.29880615 25.78616455 -13.0351123 24.7598291 -12.76342773 23.70239258 C-10.28394427 14.66741112 -6.14956173 7.09564815 0 0 Z " fill="#FD9BAE" transform="translate(291,29)"/>
<path d="M0 0 C-0.0707373 0.7839917 -0.14147461 1.5679834 -0.21435547 2.37573242 C-0.88913211 10.37165779 -1.15746744 18.29014254 -1.125 26.3125 C-1.12209961 28.06494019 -1.12209961 28.06494019 -1.11914062 29.8527832 C-1.07557399 38.60181001 -0.74759655 47.28249025 0 56 C-7.066465 55.10653891 -12.2235607 52.30107433 -16.83984375 46.8125 C-22.3861581 38.78458289 -23.95746348 31.72193683 -23 22 C-21.26192619 14.34367487 -17.30910763 8.64881615 -11 4 C-3.16949153 0 -3.16949153 0 0 0 Z " fill="#EEB3A7" transform="translate(81,223)"/>
<path d="M0 0 C8.93527396 2.17176798 14.94963129 6.48950513 19.9375 14.25 C23.67736191 20.58874901 23.59907876 26.78643523 23 34 C20.87888757 42.16573335 16.89016701 48.14178827 9.94921875 52.9296875 C6.75018651 54.68627034 3.57112505 55.31083552 0 56 C-0.02763357 54.64595503 -0.04667422 53.29173445 -0.0625 51.9375 C-0.07410156 51.18339844 -0.08570313 50.42929687 -0.09765625 49.65234375 C0 47 0 47 0.49609375 44.046875 C1.3882069 38.18430384 1.14388406 32.22635691 1.125 26.3125 C1.13080078 24.47848633 1.13080078 24.47848633 1.13671875 22.60742188 C1.13478516 20.84688477 1.13478516 20.84688477 1.1328125 19.05078125 C1.13168457 17.98512939 1.13055664 16.91947754 1.12939453 15.8215332 C1.0164637 13.35900174 0.6628199 11.35579001 0 9 C-0.06548492 7.41788427 -0.08578381 5.83329919 -0.0625 4.25 C-0.05347656 3.45078125 -0.04445313 2.6515625 -0.03515625 1.828125 C-0.02355469 1.22484375 -0.01195312 0.6215625 0 0 Z " fill="#FBC6BA" transform="translate(382,223)"/>
<path d="M0 0 C1.30649323 0.95293904 2.57485935 1.9592008 3.8125 3 C7.55917235 6.0302914 10.11213046 6.74415322 14.89453125 6.3984375 C18.91316368 5.63795418 21.90554681 3.92344488 25 1.3125 C27.84240246 -0.55282661 29.67050829 -0.48555087 33 0 C36.21525814 2.11530141 36.87870717 3.51482867 37.8125 7.25 C36.54880232 13.08245082 32.75920043 15.6723071 28 19 C21.43703155 23.07637792 13.46155205 22.88867923 6 22 C-0.49123492 19.96387537 -5.93757128 16.45220697 -10 11 C-10.74859126 7.92375777 -10.53162649 6.2429216 -10 3 C-7.19348555 -0.45417163 -4.25861039 -0.73706718 0 0 Z " fill="#040303" transform="translate(218,250)"/>
<path d="M0 0 C3.3271102 0.98581043 4.3365204 1.35651811 6.375 4 C6.9978433 7.11572188 6.83855069 10.2664207 6.8125 13.4375 C6.83248047 14.29666016 6.85246094 15.15582031 6.87304688 16.04101562 C6.86817989 22.31456355 6.86817989 22.31456355 4.53125 25.5625 C1.53128688 27.56247541 -0.08809915 27.64963485 -3.625 27 C-6.27208201 25.00006911 -8.27620717 23.3942865 -9.10620117 20.07641602 C-9.29818739 17.86357615 -9.30751388 15.72003594 -9.25 13.5 C-9.26933594 12.75363281 -9.28867187 12.00726563 -9.30859375 11.23828125 C-9.2716222 7.06049631 -8.9277607 5.396862 -6.3125 1.96875 C-3.625 0 -3.625 0 0 0 Z " fill="#080706" transform="translate(294.625,238)"/>
<path d="M0 0 C3.40822181 0.92951504 4.37432723 1.2478904 6.4375 3.9375 C7.0603433 7.05322188 6.90105069 10.2039207 6.875 13.375 C6.89498047 14.23416016 6.91496094 15.09332031 6.93554688 15.97851562 C6.93068183 22.24955847 6.93068183 22.24955847 4.59765625 25.50390625 C1.63649576 27.46908871 -0.07777383 27.5182877 -3.5625 26.9375 C-5.71875 25.5 -5.71875 25.5 -7.5625 22.9375 C-8.15713425 19.76106094 -8.12083322 16.66041055 -8.0625 13.4375 C-8.07796875 12.58285156 -8.0934375 11.72820312 -8.109375 10.84765625 C-8.08472277 6.89713664 -8.05121922 4.63944013 -5.75390625 1.33984375 C-3.5625 -0.0625 -3.5625 -0.0625 0 0 Z " fill="#030202" transform="translate(169.5625,238.0625)"/>
</svg>
