<?xml version="1.0" encoding="UTF-8"?>
<svg version="1.1" xmlns="http://www.w3.org/2000/svg" width="512" height="512">
<path d="M0 0 C1.6588195 -0.01925285 1.6588195 -0.01925285 3.35115051 -0.03889465 C4.53553207 -0.04628159 5.71991364 -0.05366852 6.94018555 -0.0612793 C8.17874802 -0.06935104 9.41731049 -0.07742279 10.69340515 -0.08573914 C13.31674818 -0.0995545 15.94010898 -0.11028801 18.56347656 -0.11816406 C21.21982969 -0.12696234 23.87491718 -0.15000322 26.53125 -0.1796875 C62.21956449 -0.57807904 62.21956449 -0.57807904 77.7644043 8.05200195 C78.42472656 8.40222412 79.08504883 8.75244629 79.76538086 9.11328125 C81.61451395 10.10863563 83.44225078 11.13325963 85.2644043 12.17700195 C86.11518555 12.66040039 86.9659668 13.14379883 87.8425293 13.6418457 C107.8743179 26.07164259 120.63034193 46.60892163 126.2644043 69.17700195 C126.44221436 69.86318604 126.62002441 70.54937012 126.80322266 71.25634766 C127.45822103 75.40443953 127.35979172 79.48482168 127.3347168 83.67700195 C127.34329708 85.55201126 127.35377152 87.42701268 127.3659668 89.30200195 C127.38269017 92.24531527 127.3893196 95.1868529 127.36401367 98.13012695 C127.34305734 100.9801879 127.36626274 103.82709223 127.3972168 106.67700195 C127.37112839 107.9928125 127.37112839 107.9928125 127.34451294 109.33520508 C127.37800984 114.00710462 127.37800984 114.00710462 129.81285095 117.79725647 C131.65759079 119.14794161 131.65759079 119.14794161 133.57557678 120.19789124 C135.93849073 121.56780874 137.13139951 123.33019721 138.5769043 125.61450195 C139.04741211 126.33508789 139.51791992 127.05567383 140.00268555 127.7980957 C144.38760777 136.06564256 144.63670726 146.14978497 142.5769043 155.1965332 C138.96427295 164.99579573 132.52022672 170.62545892 123.2644043 175.17700195 C120.44959376 176.08831034 117.96447479 176.28866979 115.0144043 176.23950195 C113.1581543 176.20856445 113.1581543 176.20856445 111.2644043 176.17700195 C111.26182617 176.76223633 111.25924805 177.3474707 111.2565918 177.95043945 C110.4692193 195.43010898 102.36276103 211.9770415 91.2644043 225.17700195 C90.65854492 225.92852539 90.05268555 226.68004883 89.4284668 227.4543457 C85.77655115 231.81428581 82.48978829 234.66079863 77.54174805 237.4855957 C73.9452652 240.05601081 72.48847127 241.30817458 71.37329102 245.63232422 C71.18164371 249.70214632 71.29912041 253.61935605 71.5769043 257.67700195 C71.63216819 259.08566409 71.6823433 260.49453555 71.72729492 261.90356445 C71.85650209 265.33342754 72.03684624 268.75249195 72.2644043 272.17700195 C73.12195313 272.2877002 73.97950195 272.39839844 74.86303711 272.51245117 C78.0544195 272.92791019 81.24486168 273.34983693 84.43481445 273.77612305 C85.8137057 273.9590471 87.19293867 274.13941457 88.57250977 274.31713867 C90.5592371 274.57353679 92.54465754 274.83999772 94.5300293 275.10668945 C96.32102051 275.34234619 96.32102051 275.34234619 98.14819336 275.58276367 C100.91672087 276.11070131 102.85870066 276.7554498 105.2644043 278.17700195 C104.9344043 280.48700195 104.6044043 282.79700195 104.2644043 285.17700195 C108.2244043 285.50700195 112.1844043 285.83700195 116.2644043 286.17700195 C116.5944043 284.52700195 116.9244043 282.87700195 117.2644043 281.17700195 C128.13532323 252.40845417 149.20465354 229.52094139 177.2019043 216.80200195 C201.26660684 206.28694181 231.15078185 204.03706611 256.2644043 212.17700195 C256.94599609 212.39130859 257.62758789 212.60561523 258.32983398 212.82641602 C272.55792308 217.40902136 284.95052832 224.36413772 296.2644043 234.17700195 C297.07264648 234.84086914 297.88088867 235.50473633 298.71362305 236.1887207 C318.90299531 253.33542462 332.07814704 278.93685918 335.2644043 305.17700195 C335.57608192 310.03476535 335.6462078 314.8725237 335.6394043 319.73950195 C335.63858856 320.72820282 335.63858856 320.72820282 335.63775635 321.73687744 C335.59621524 332.71802009 334.64935218 342.73363916 331.2644043 353.17700195 C330.94294434 354.19938965 330.94294434 354.19938965 330.61499023 355.24243164 C326.03238489 369.47052074 319.07726853 381.86312598 309.2644043 393.17700195 C308.60053711 393.98524414 307.93666992 394.79348633 307.25268555 395.6262207 C290.10598163 415.81559297 264.50454707 428.99074469 238.2644043 432.17700195 C233.40662161 432.48868082 228.56888214 432.55757199 223.7019043 432.55200195 C222.38448242 432.55184082 221.06706055 432.55167969 219.7097168 432.55151367 C207.03773343 432.40383968 196.23432673 430.1669761 184.2644043 426.17700195 C183.9344043 430.79700195 183.6044043 435.41700195 183.2644043 440.17700195 C185.9044043 440.17700195 188.5444043 440.17700195 191.2644043 440.17700195 C191.2644043 453.37700195 191.2644043 466.57700195 191.2644043 480.17700195 C80.3844043 480.17700195 -30.4955957 480.17700195 -144.7355957 480.17700195 C-144.7355957 327.17700195 -144.7355957 327.17700195 -141.7355957 317.17700195 C-138.61268935 317.66278739 -135.73979212 318.17560315 -132.7355957 319.17700195 C-132.64407227 318.45125977 -132.55254883 317.72551758 -132.45825195 316.9777832 C-131.61521868 313.71045964 -130.30397113 311.96029566 -128.1730957 309.36450195 C-127.53243164 308.57430664 -126.89176758 307.78411133 -126.23168945 306.9699707 C-125.49112305 306.08245117 -125.49112305 306.08245117 -124.7355957 305.17700195 C-125.0243457 304.59950195 -125.3130957 304.02200195 -125.6105957 303.42700195 C-126.65226237 301.34366862 -127.69392904 299.26033529 -128.7355957 297.17700195 C-113.6393774 285.74383662 -100.2770163 282.14743229 -81.69262695 279.6965332 C-80.07158315 279.47726352 -78.45062801 279.25733737 -76.82975769 279.03678894 C-72.6007829 278.46312906 -68.37067736 277.8982882 -64.14025879 277.33538818 C-59.80867734 276.75740203 -55.47824592 276.17092782 -51.14770508 275.58520508 C-42.67808979 274.44091049 -34.20716564 273.30673475 -25.7355957 272.17700195 C-25.4055957 262.27700195 -25.0755957 252.37700195 -24.7355957 242.17700195 C-26.7155957 241.18700195 -26.7155957 241.18700195 -28.7355957 240.17700195 C-47.75362515 226.77569623 -59.72705064 206.92063113 -64.2902832 184.2355957 C-64.69000795 181.49011786 -64.82837005 178.94477009 -64.7355957 176.17700195 C-65.8493457 176.25950195 -66.9630957 176.34200195 -68.1105957 176.42700195 C-75.76342543 176.39991229 -82.66706805 173.05173532 -88.2043457 167.88012695 C-94.38336811 161.0075408 -97.1325881 153.60790747 -97.1105957 144.36450195 C-97.10817871 143.30610107 -97.10817871 143.30610107 -97.10571289 142.22631836 C-96.96834044 136.36913399 -95.79643364 132.11247074 -92.7355957 127.17700195 C-92.1374707 126.10450195 -91.5393457 125.03200195 -90.9230957 123.92700195 C-88.88351167 121.36295346 -87.86045057 120.6128182 -85.14648438 119.07470703 C-82.99221079 117.56116087 -81.9191478 116.74844209 -81.10708618 114.2203064 C-80.89516951 111.80955056 -80.89693985 109.4826214 -80.97387695 107.0637207 C-80.96966988 105.73290215 -80.96966988 105.73290215 -80.96537781 104.37519836 C-80.96010845 101.53706491 -81.00053915 98.70220383 -81.0480957 95.86450195 C-81.23332856 79.58522017 -80.89512321 64.41869322 -72.8605957 49.73950195 C-72.33526245 48.74225098 -72.33526245 48.74225098 -71.79931641 47.72485352 C-70.80263127 45.8604848 -69.77874347 44.01568968 -68.7355957 42.17700195 C-68.25219727 41.32493164 -67.76879883 40.47286133 -67.27075195 39.5949707 C-54.89274166 19.68251937 -34.28682612 6.6151052 -11.7355957 1.17700195 C-7.78193748 0.43111546 -4.02134057 0.04099023 0 0 Z " fill="#010101" transform="translate(160.735595703125,15.822998046875)"/>
<path d="M0 0 C19.32074184 16.38062895 33.16041066 38.94750613 35.875 64.4375 C37.12472645 83.78460584 34.34328287 100.91603785 25.875 118.4375 C25.43542969 119.35660156 24.99585938 120.27570313 24.54296875 121.22265625 C13.60164037 142.653192 -6.4546977 159.10874115 -29.22338867 166.53027344 C-32.50887067 167.56387371 -35.79723994 168.54845018 -39.125 169.4375 C-39.81787109 169.62658936 -40.51074219 169.81567871 -41.22460938 170.01049805 C-47.25247756 171.51679414 -53.05270441 171.78629304 -59.25 171.75 C-60.26263916 171.74436035 -61.27527832 171.7387207 -62.31860352 171.73291016 C-88.94252745 171.30496135 -111.67920889 160.20357593 -130.125 141.4375 C-130.88554687 140.67566406 -131.64609375 139.91382813 -132.4296875 139.12890625 C-149.4957511 121.03356644 -156.67515985 95.882086 -156.3359375 71.48828125 C-155.53567421 45.54888277 -144.3872624 23.44371946 -126.125 5.4375 C-125.38636719 4.68855469 -124.64773438 3.93960937 -123.88671875 3.16796875 C-90.54099148 -28.67060701 -35.29393578 -27.78458774 0 0 Z " fill="#FB9510" transform="translate(444.125,260.5625)"/>
<path d="M0 0 C0.6815918 0.21430664 1.36318359 0.42861328 2.06542969 0.64941406 C16.29351879 5.23201941 28.68612402 12.18713576 40 22 C40.80824219 22.66386719 41.61648438 23.32773438 42.44921875 24.01171875 C62.63859101 41.15842267 75.81374274 66.75985723 79 93 C79.31167763 97.8577634 79.3818035 102.69552175 79.375 107.5625 C79.37418427 108.55120087 79.37418427 108.55120087 79.37335205 109.55987549 C79.33181094 120.54101814 78.38494788 130.5566372 75 141 C74.67854004 142.0223877 74.67854004 142.0223877 74.35058594 143.06542969 C69.76798059 157.29351879 62.81286424 169.68612402 53 181 C52.33613281 181.80824219 51.67226563 182.61648438 50.98828125 183.44921875 C33.84157733 203.63859101 8.24014277 216.81374274 -18 220 C-22.85778269 220.31167886 -27.69552216 220.38057004 -32.5625 220.375 C-33.87992188 220.37483887 -35.19734375 220.37467773 -36.5546875 220.37451172 C-49.22667086 220.22683772 -60.03007757 217.98997414 -72 214 C-72.33 218.62 -72.66 223.24 -73 228 C-70.36 228 -67.72 228 -65 228 C-65 241.2 -65 254.4 -65 268 C-119.78 268 -174.56 268 -231 268 C-228.525 266.02 -228.525 266.02 -226 264 C-224.84835903 262.93091386 -223.71449362 261.84223948 -222.60253906 260.73193359 C-221.9855011 260.11804779 -221.36846313 259.50416199 -220.73272705 258.87167358 C-220.08358337 258.22050568 -219.4344397 257.56933777 -218.765625 256.8984375 C-218.08699402 256.22076324 -217.40836304 255.54308899 -216.70916748 254.84487915 C-215.28258419 253.41897376 -213.85725255 251.99181516 -212.43310547 250.56347656 C-210.24689396 248.37188631 -208.05536891 246.18571103 -205.86328125 244 C-204.47624153 242.61229991 -203.0895118 241.22428989 -201.703125 239.8359375 C-200.7172641 238.85311295 -200.7172641 238.85311295 -199.71148682 237.85043335 C-199.1070575 237.24285187 -198.50262817 236.63527039 -197.87988281 236.00927734 C-197.34647278 235.47507172 -196.81306274 234.94086609 -196.26348877 234.39047241 C-193.62491113 231.48671141 -193.77688575 228.80264671 -193.82177734 224.9921875 C-194.17539892 219.05522038 -195.09951523 213.18032508 -195.97143555 207.30126953 C-196.30748806 205.03381717 -196.6340907 202.76516891 -196.95898438 200.49609375 C-198.00138338 193.29104081 -199.13333659 186.11227685 -200.43359375 178.94921875 C-202.28525732 168.70665808 -203.78707351 158.41325985 -205.27197266 148.11206055 C-205.75492654 144.77849476 -206.25053951 141.44694736 -206.74609375 138.11523438 C-207.05546728 135.97927947 -207.36408902 133.8432155 -207.671875 131.70703125 C-207.82074158 130.7195137 -207.96960815 129.73199615 -208.12298584 128.71455383 C-209.14742312 121.4498772 -208.91884634 116.23063151 -205.4375 109.625 C-204.98246094 108.75101562 -204.52742188 107.87703125 -204.05859375 106.9765625 C-203.70925781 106.32429688 -203.35992187 105.67203125 -203 105 C-199.23732574 106.5824331 -196.70321767 108.96553763 -193.75 111.75 C-191.8352062 113.50204904 -189.91862967 115.25215238 -188 117 C-187.26910156 117.66902344 -186.53820312 118.33804688 -185.78515625 119.02734375 C-182.40188351 121.8746525 -180.15095228 123.44189792 -175.625 123.125 C-172.07599405 122.41159083 -172.07599405 122.41159083 -170.85400391 120.47363281 C-169.59059907 116.81416519 -169.17927515 113.12957697 -168.7109375 109.296875 C-168.60278717 108.45908508 -168.49463684 107.62129517 -168.38320923 106.75811768 C-168.04031402 104.08956472 -167.70753143 101.4198622 -167.375 98.75 C-167.1438954 96.93741493 -166.91213218 95.12491371 -166.6796875 93.3125 C-166.1121525 88.8759357 -165.55368183 84.43831357 -165 80 C-159.555 80.495 -159.555 80.495 -154 81 C-153.67 78.36 -153.34 75.72 -153 73 C-148.71 73.33 -144.42 73.66 -140 74 C-139.67 72.35 -139.34 70.7 -139 69 C-128.12908107 40.23145222 -107.05975075 17.34393944 -79.0625 4.625 C-54.99779746 -5.89006014 -25.11362245 -8.13993584 0 0 Z M-103 42 C-103.74894531 42.73863281 -104.49789062 43.47726562 -105.26953125 44.23828125 C-122.33466968 62.11123688 -129.56680578 86.79000598 -129.35375977 111.04296875 C-128.59715934 137.32204402 -116.65880792 161.30972322 -97.94140625 179.40234375 C-76.73468758 198.1307208 -51.81818884 205.27093372 -24.0390625 204.23095703 C-0.23031182 202.42158379 20.42843182 190.54741138 37 174 C37.73992187 173.27167969 38.47984375 172.54335938 39.2421875 171.79296875 C55.70744747 154.52686929 63.82562963 128.7494821 63.45288086 105.28369141 C62.52758241 78.82684452 51.69481671 56.37574809 33 38 C31.85724609 36.85917969 31.85724609 36.85917969 30.69140625 35.6953125 C12.36790368 18.4140642 -13.01856104 11.33791176 -37.72265625 11.7890625 C-63.34784636 12.73922977 -85.23132455 23.97865942 -103 42 Z " fill="#006997" transform="translate(417,228)"/>
<path d="M0 0 C0.14099121 1.13018555 0.28198242 2.26037109 0.42724609 3.42480469 C0.9529015 7.62269925 1.48818495 11.81931959 2.02636719 16.015625 C2.25783355 17.83104742 2.48669694 19.64680372 2.71289062 21.46289062 C3.03870775 24.07514374 3.37390576 26.6860481 3.7109375 29.296875 C3.80998383 30.10743347 3.90903015 30.91799194 4.01107788 31.75311279 C4.61577816 37.18578511 4.61577816 37.18578511 7 42 C10.55363942 43.00574701 12.86160712 43.54753152 16.2578125 41.9140625 C20.66017042 38.84119158 24.56362082 35.22535381 28.56054688 31.65039062 C29.20185547 31.08384766 29.84316406 30.51730469 30.50390625 29.93359375 C31.07955322 29.41853271 31.6552002 28.90347168 32.24829102 28.37280273 C34.0754452 26.9408741 35.89442648 25.96521083 38 25 C42.73332405 31.81919567 44.60369132 36.90274032 43.36328125 45.12890625 C43.26172226 45.9031041 43.16016327 46.67730194 43.05552673 47.47496033 C42.7214698 49.98608597 42.36108492 52.49263203 42 55 C41.76829138 56.70681947 41.53815917 58.41385366 41.30957031 60.12109375 C40.71193297 64.54014522 40.08691397 68.95479633 39.45043945 73.3684082 C39.06237276 76.06338362 38.68032742 78.75916608 38.29882812 81.45507812 C37.03275784 90.33037506 35.66161793 99.1716654 34.06732178 107.99403381 C32.83924059 114.80888859 31.79768483 121.64587361 30.8125 128.5 C30.63525391 129.68335938 30.45800781 130.86671875 30.27539062 132.0859375 C29.7993888 135.38670692 29.38292732 138.68728255 29 142 C28.82283447 143.2684375 28.82283447 143.2684375 28.64208984 144.5625 C28.27568533 148.89627693 28.82194932 151.33754332 31.63671875 154.6953125 C33.06999897 156.15133174 34.52844073 157.58267947 36 159 C37.02825087 160.03867765 38.05358343 161.08024897 39.07666016 162.12402344 C42.62779806 165.73553934 46.21859913 169.30611906 49.8125 172.875 C51.06468716 174.1221609 52.31664213 175.36955497 53.56835938 176.6171875 C55.84598535 178.88669349 58.12485106 181.15493624 60.40551758 183.42138672 C61.93905188 184.94554117 63.47114843 186.47114843 65 188 C10.55 188 -43.9 188 -100 188 C-100.061875 162.96125 -100.12375 137.9225 -100.1875 112.125 C-100.21481201 104.22836426 -100.24212402 96.33172852 -100.27026367 88.19580078 C-100.28381348 78.52905273 -100.28381348 78.52905273 -100.28633118 73.99899292 C-100.28911829 70.84520087 -100.30032932 67.69156139 -100.31672668 64.53781128 C-100.33740727 60.50643344 -100.34345449 56.47527529 -100.33921683 52.44384933 C-100.34010207 50.96968598 -100.34598971 49.49551441 -100.35764539 48.02139688 C-100.41936131 39.83106494 -99.99228081 32.68101702 -97 25 C-93.87709365 25.48578543 -91.00419641 25.9986012 -88 27 C-87.90332031 26.27425781 -87.80664062 25.54851562 -87.70703125 24.80078125 C-86.9004237 21.6055458 -85.69785147 19.78330715 -83.6875 17.1875 C-83.09324219 16.39730469 -82.49898437 15.60710937 -81.88671875 14.79296875 C-80 13 -80 13 -76 13 C-74.25 14.5 -74.25 14.5 -73 16 C-70.83351687 14.95909201 -68.7768017 13.86208573 -66.73046875 12.59765625 C-54.62340531 5.28878385 -40.1725127 4.48519191 -26.375 2.875 C-24.24445824 2.62192861 -22.11413853 2.36715157 -19.98403931 2.11038208 C-18.07877973 1.88135317 -16.17295109 1.65707251 -14.26708984 1.43310547 C-11.10407013 1.05884433 -11.10407013 1.05884433 -8.43994141 0.44580078 C-5.59119768 -0.07469212 -2.88957828 -0.06719949 0 0 Z " fill="#006997" transform="translate(116,308)"/>
<path d="M0 0 C0.0093457 0.70608398 0.01869141 1.41216797 0.02832031 2.13964844 C0.08205659 5.34380545 0.16569757 8.54650757 0.25 11.75 C0.26417969 12.86117187 0.27835937 13.97234375 0.29296875 15.1171875 C0.32519531 16.18710938 0.35742188 17.25703125 0.390625 18.359375 C0.4220459 19.83615723 0.4220459 19.83615723 0.45410156 21.34277344 C1.14029627 24.68290904 2.37572675 25.8892514 5 28 C12.99989459 30.17225602 21.85403658 26.31806723 29 23 C36.0656047 18.67013162 41.43185519 12.85221721 46 6 C46.66 6 47.32 6 48 6 C49.67012339 8.04023384 51.14970899 10.18723658 52.66015625 12.34765625 C54.77053046 15.01304361 54.77053046 15.01304361 57.16140747 16.28489685 C61.08025639 18.68439221 63.58964049 20.48606921 64.82279968 25.03553772 C65.10845901 28.83252938 65.11994062 32.57382675 65.01953125 36.375 C65.01287995 37.78636509 65.00966288 39.19775009 65.00968933 40.60913086 C65.00041704 43.56549516 64.96133756 46.51939101 64.89868164 49.47509766 C64.82000706 53.21926033 64.79703678 56.96096367 64.79483509 60.70587158 C64.78979771 63.62334108 64.76330648 66.54030884 64.72995567 69.45758057 C64.71495324 70.83510351 64.70413792 72.21268 64.69800758 73.590271 C64.60786383 86.36245349 62.36075785 98.74242873 56.4375 110.1875 C56.10234375 110.84548584 55.7671875 111.50347168 55.421875 112.18139648 C51.67814 119.14937256 46.65720283 124.54394216 41 130 C40.36707031 130.66386719 39.73414063 131.32773438 39.08203125 132.01171875 C25.85552716 145.00464219 6.26722885 149.3125 -11.59692383 149.3125 C-29.20902791 149.01590347 -46.12532821 141.05379183 -58.45703125 128.63671875 C-59.29621094 127.76660156 -60.13539063 126.89648438 -61 126 C-61.66386719 125.36707031 -62.32773438 124.73414063 -63.01171875 124.08203125 C-66.97870622 120.04372715 -69.5994552 115.42385551 -72.1875 110.4375 C-72.50879883 109.83139893 -72.83009766 109.22529785 -73.16113281 108.60083008 C-74.22757758 106.43568251 -75.12727356 104.25061111 -76 102 C-76.36915527 101.07002197 -76.73831055 100.14004395 -77.11865234 99.18188477 C-81.41235348 86.19918338 -80.45734281 72.59756992 -80.2746582 59.08343506 C-80.23318016 55.68398059 -80.215353 52.28440208 -80.1953125 48.88476562 C-80.15157501 42.25619424 -80.08491661 35.62816511 -80 29 C-79.35530258 28.92090393 -78.71060516 28.84180786 -78.04637146 28.76031494 C-75.07061597 28.39223789 -72.09587728 28.01647345 -69.12109375 27.640625 C-68.10736694 27.5163916 -67.09364014 27.3921582 -66.04919434 27.26416016 C-45.46446788 24.64211208 -16.13493154 0 0 0 Z " fill="#F7D596" transform="translate(192,107)"/>
<path d="M0 0 C7.67577433 5.8583775 14.05428056 12.67315869 19 21 C19.47050781 21.78890625 19.94101562 22.5778125 20.42578125 23.390625 C28.33554286 37.85685567 28.88197686 54.71817517 25.1328125 70.515625 C23.12436285 76.6933391 20.14356676 82.33296732 17 88 C18.98 89.65 20.96 91.3 23 93 C19.61227103 97.69159716 16.21814817 102.0299782 12 106 C9.50638429 104.79618552 7.31856917 103.54571278 5 102 C4.41734375 102.44730469 3.8346875 102.89460938 3.234375 103.35546875 C-3.15606805 108.06791811 -9.55206158 111.28333394 -17 114 C-18.44632813 114.53173828 -18.44632813 114.53173828 -19.921875 115.07421875 C-35.98333856 119.90488736 -52.76509005 117.24807266 -67.5625 110 C-84.53692045 100.27075901 -94.5215811 85.62192176 -100 67 C-104.31369561 50.38121113 -99.9568271 33.50489192 -91.78125 18.9375 C-89.93530541 15.89331068 -87.99870371 12.9454581 -86 10 C-87.32 8.68 -88.64 7.36 -90 6 C-88.44997253 2.11602311 -85.99523379 -0.02979619 -82.875 -2.75 C-81.96492188 -3.54921875 -81.05484375 -4.3484375 -80.1171875 -5.171875 C-79.41851562 -5.77515625 -78.71984375 -6.3784375 -78 -7 C-77.2575 -6.154375 -76.515 -5.30875 -75.75 -4.4375 C-74.8425 -3.633125 -73.935 -2.82875 -73 -2 C-69.71330873 -2.35214549 -66.93969053 -3.93140197 -64 -5.375 C-42.88495482 -14.97274781 -19.33846807 -13.00469833 0 0 Z " fill="#FCD121" transform="translate(421,283)"/>
<path d="M0 0 C0.6815918 0.21430664 1.36318359 0.42861328 2.06542969 0.64941406 C16.29351879 5.23201941 28.68612402 12.18713576 40 22 C40.80824219 22.66386719 41.61648438 23.32773438 42.44921875 24.01171875 C62.63859101 41.15842267 75.81374274 66.75985723 79 93 C79.31167763 97.8577634 79.3818035 102.69552175 79.375 107.5625 C79.37445618 108.22163391 79.37391235 108.88076782 79.37335205 109.55987549 C79.33181094 120.54101814 78.38494788 130.5566372 75 141 C74.78569336 141.6815918 74.57138672 142.36318359 74.35058594 143.06542969 C69.76798059 157.29351879 62.81286424 169.68612402 53 181 C52.33613281 181.80824219 51.67226563 182.61648438 50.98828125 183.44921875 C33.84157733 203.63859101 8.24014277 216.81374274 -18 220 C-22.85776716 220.31167787 -27.69552276 220.3814959 -32.5625 220.375 C-33.22030457 220.37478851 -33.87810913 220.37457703 -34.55584717 220.37435913 C-50.16260935 220.32441181 -63.90303741 217.93408647 -78 211 C-78.65887207 210.67870117 -79.31774414 210.35740234 -79.99658203 210.02636719 C-89.12370201 205.5318116 -97.37559453 200.81835914 -105 194 C-105.81597656 193.31421875 -106.63195312 192.6284375 -107.47265625 191.921875 C-125.60142668 176.34290072 -137.33612711 155.14310976 -143 132 C-143.20496094 131.17371094 -143.40992188 130.34742188 -143.62109375 129.49609375 C-146.55661304 115.26388644 -146.0992793 99.15042377 -143 85 C-142.74347656 83.75347656 -142.48695313 82.50695312 -142.22265625 81.22265625 C-135.98717295 52.72454899 -118.29090894 28.55057595 -93.98754883 12.5715332 C-66.77826198 -4.51272972 -30.77132279 -9.97373413 0 0 Z M-103 42 C-103.74894531 42.73863281 -104.49789062 43.47726562 -105.26953125 44.23828125 C-122.33466968 62.11123688 -129.56680578 86.79000598 -129.35375977 111.04296875 C-128.59715934 137.32204402 -116.65880792 161.30972322 -97.94140625 179.40234375 C-76.73468758 198.1307208 -51.81818884 205.27093372 -24.0390625 204.23095703 C-0.23031182 202.42158379 20.42843182 190.54741138 37 174 C37.73992187 173.27167969 38.47984375 172.54335938 39.2421875 171.79296875 C55.70744747 154.52686929 63.82562963 128.7494821 63.45288086 105.28369141 C62.52758241 78.82684452 51.69481671 56.37574809 33 38 C31.85724609 36.85917969 31.85724609 36.85917969 30.69140625 35.6953125 C12.36790368 18.4140642 -13.01856104 11.33791176 -37.72265625 11.7890625 C-63.34784636 12.73922977 -85.23132455 23.97865942 -103 42 Z " fill="#010100" transform="translate(417,228)"/>
<path d="M0 0 C0.99727615 -0.00570007 1.99455231 -0.01140015 3.02204895 -0.01727295 C5.12219195 -0.02666786 7.22234933 -0.03323484 9.32250977 -0.03710938 C12.49327024 -0.04679478 15.66337602 -0.0778634 18.83398438 -0.109375 C43.15355762 -0.23780221 62.34216051 4.8199435 80.51953125 21.890625 C98.60441651 40.66445827 100.76018722 62.52816728 100.33203125 87.203125 C92.05727442 84.56346609 86.26299531 80.371063 81.33203125 73.203125 C78.34130752 66.91689041 76.71625597 60.19526073 75.23828125 53.41796875 C74.51476279 51.07950561 74.51476279 51.07950561 72.4609375 49.89453125 C69.05508866 48.78841154 66.73696374 49.21259919 63.33203125 50.203125 C60.89747534 54.28494262 59.47935421 58.57324176 58.01953125 63.078125 C54.67849116 72.53446167 49.54030227 79.35137109 41.33203125 85.203125 C39.67413348 85.89130898 38.00817892 86.56066782 36.33203125 87.203125 C36.32268555 86.19411133 36.31333984 85.18509766 36.30371094 84.14550781 C36.26378355 80.39538724 36.19801844 76.64608471 36.12451172 72.89648438 C36.09631778 71.27484663 36.07509531 69.65307187 36.06103516 68.03125 C36.03958253 65.69720395 35.9929255 63.36480239 35.94140625 61.03125 C35.94017761 60.30818665 35.93894897 59.58512329 35.93768311 58.84014893 C35.83827528 55.41002031 35.57231663 53.51809877 33.46582031 50.75683594 C31.37689675 49.03172776 31.37689675 49.03172776 28.58203125 48.515625 C22.99943491 49.69655884 19.54587827 53.8549426 15.72265625 57.91015625 C-2.58614072 77.26128572 -30.63714934 87.3085124 -56.76025391 88.32324219 C-63.06550519 88.44263388 -69.36443299 88.38108786 -75.66796875 88.203125 C-76.35273134 63.86244846 -74.65839957 43.19243003 -57.66796875 24.203125 C-57.013125 23.45546875 -56.35828125 22.7078125 -55.68359375 21.9375 C-40.60306906 5.75620708 -21.38484246 0.09692144 0 0 Z " fill="#56555B" transform="translate(171.66796875,31.796875)"/>
<path d="M0 0 C5.28 0 10.56 0 16 0 C16 10.56 16 21.12 16 32 C19.96 32 23.92 32 28 32 C32.08964671 36.08964671 32.46011699 36.65706364 32.54211426 42.0378418 C32.53401733 42.8400415 32.52592041 43.64224121 32.51757812 44.46875 C32.5245874 45.32122314 32.53159668 46.17369629 32.53881836 47.05200195 C32.55641568 49.8683332 32.5447696 52.68365864 32.53125 55.5 C32.53394442 57.45768425 32.53782642 59.4153672 32.54284668 61.37304688 C32.54874408 65.47539007 32.54017093 69.57738482 32.52148438 73.6796875 C32.49869475 78.93920628 32.51181653 84.19790864 32.53577423 89.45739746 C32.55022563 93.4997371 32.54562923 97.54188305 32.53526306 101.58422852 C32.53259396 103.52351986 32.53587197 105.46282877 32.54518127 107.40209961 C32.55533602 110.1122905 32.53986128 112.82115775 32.51757812 115.53125 C32.52567505 116.33344971 32.53377197 117.13564941 32.54211426 117.9621582 C32.46011699 123.34293636 32.08964671 123.91035329 28 128 C24.04 128 20.08 128 16 128 C16 138.56 16 149.12 16 160 C10.72 160 5.44 160 0 160 C0 149.44 0 138.88 0 128 C-3.96 128 -7.92 128 -12 128 C-16.08964671 123.91035329 -16.46011699 123.34293636 -16.54211426 117.9621582 C-16.53401733 117.1599585 -16.52592041 116.35775879 -16.51757812 115.53125 C-16.5245874 114.67877686 -16.53159668 113.82630371 -16.53881836 112.94799805 C-16.55641568 110.1316668 -16.5447696 107.31634136 -16.53125 104.5 C-16.53394442 102.54231575 -16.53782642 100.5846328 -16.54284668 98.62695312 C-16.54874408 94.52460993 -16.54017093 90.42261518 -16.52148438 86.3203125 C-16.49869475 81.06079372 -16.51181653 75.80209136 -16.53577423 70.54260254 C-16.55022563 66.5002629 -16.54562923 62.45811695 -16.53526306 58.41577148 C-16.53259396 56.47648014 -16.53587197 54.53717123 -16.54518127 52.59790039 C-16.55533602 49.8877095 -16.53986128 47.17884225 -16.51757812 44.46875 C-16.52567505 43.66655029 -16.53377197 42.86435059 -16.54211426 42.0378418 C-16.46011699 36.65706364 -16.08964671 36.08964671 -12 32 C-8.04 32 -4.08 32 0 32 C0 21.44 0 10.88 0 0 Z " fill="#000000" transform="translate(336,48)"/>
<path d="M0 0 C5.28 0 10.56 0 16 0 C16 10.56 16 21.12 16 32 C19.96 32 23.92 32 28 32 C32.08964671 36.08964671 32.46011699 36.65706364 32.54211426 42.0378418 C32.53401733 42.8400415 32.52592041 43.64224121 32.51757812 44.46875 C32.5245874 45.32122314 32.53159668 46.17369629 32.53881836 47.05200195 C32.55641568 49.8683332 32.5447696 52.68365864 32.53125 55.5 C32.53394442 57.45768425 32.53782642 59.4153672 32.54284668 61.37304688 C32.54874408 65.47539007 32.54017093 69.57738482 32.52148438 73.6796875 C32.49869475 78.93920628 32.51181653 84.19790864 32.53577423 89.45739746 C32.55022563 93.4997371 32.54562923 97.54188305 32.53526306 101.58422852 C32.53259396 103.52351986 32.53587197 105.46282877 32.54518127 107.40209961 C32.55533602 110.1122905 32.53986128 112.82115775 32.51757812 115.53125 C32.52567505 116.33344971 32.53377197 117.13564941 32.54211426 117.9621582 C32.46011699 123.34293636 32.08964671 123.91035329 28 128 C24.04 128 20.08 128 16 128 C16 138.56 16 149.12 16 160 C10.72 160 5.44 160 0 160 C0 149.44 0 138.88 0 128 C-3.96 128 -7.92 128 -12 128 C-16.08964671 123.91035329 -16.46011699 123.34293636 -16.54211426 117.9621582 C-16.53401733 117.1599585 -16.52592041 116.35775879 -16.51757812 115.53125 C-16.5245874 114.67877686 -16.53159668 113.82630371 -16.53881836 112.94799805 C-16.55641568 110.1316668 -16.5447696 107.31634136 -16.53125 104.5 C-16.53394442 102.54231575 -16.53782642 100.5846328 -16.54284668 98.62695312 C-16.54874408 94.52460993 -16.54017093 90.42261518 -16.52148438 86.3203125 C-16.49869475 81.06079372 -16.51181653 75.80209136 -16.53577423 70.54260254 C-16.55022563 66.5002629 -16.54562923 62.45811695 -16.53526306 58.41577148 C-16.53259396 56.47648014 -16.53587197 54.53717123 -16.54518127 52.59790039 C-16.55533602 49.8877095 -16.53986128 47.17884225 -16.51757812 44.46875 C-16.52567505 43.66655029 -16.53377197 42.86435059 -16.54211426 42.0378418 C-16.46011699 36.65706364 -16.08964671 36.08964671 -12 32 C-8.04 32 -4.08 32 0 32 C0 21.44 0 10.88 0 0 Z " fill="#000000" transform="translate(464,32)"/>
<path d="M0 0 C5.28 0 10.56 0 16 0 C16 10.56 16 21.12 16 32 C19.96 32 23.92 32 28 32 C32.08964671 36.08964671 32.46011699 36.65706364 32.54211426 42.0378418 C32.53401733 42.8400415 32.52592041 43.64224121 32.51757812 44.46875 C32.5245874 45.32122314 32.53159668 46.17369629 32.53881836 47.05200195 C32.55641568 49.8683332 32.5447696 52.68365864 32.53125 55.5 C32.53394442 57.45768425 32.53782642 59.4153672 32.54284668 61.37304688 C32.54874408 65.47539007 32.54017093 69.57738482 32.52148438 73.6796875 C32.49869475 78.93920628 32.51181653 84.19790864 32.53577423 89.45739746 C32.55022563 93.4997371 32.54562923 97.54188305 32.53526306 101.58422852 C32.53259396 103.52351986 32.53587197 105.46282877 32.54518127 107.40209961 C32.55533602 110.1122905 32.53986128 112.82115775 32.51757812 115.53125 C32.52567505 116.33344971 32.53377197 117.13564941 32.54211426 117.9621582 C32.46011699 123.34293636 32.08964671 123.91035329 28 128 C24.04 128 20.08 128 16 128 C16 138.56 16 149.12 16 160 C10.72 160 5.44 160 0 160 C0 149.44 0 138.88 0 128 C-3.96 128 -7.92 128 -12 128 C-16.08964671 123.91035329 -16.46011699 123.34293636 -16.54211426 117.9621582 C-16.53401733 117.1599585 -16.52592041 116.35775879 -16.51757812 115.53125 C-16.5245874 114.67877686 -16.53159668 113.82630371 -16.53881836 112.94799805 C-16.55641568 110.1316668 -16.5447696 107.31634136 -16.53125 104.5 C-16.53394442 102.54231575 -16.53782642 100.5846328 -16.54284668 98.62695312 C-16.54874408 94.52460993 -16.54017093 90.42261518 -16.52148438 86.3203125 C-16.49869475 81.06079372 -16.51181653 75.80209136 -16.53577423 70.54260254 C-16.55022563 66.5002629 -16.54562923 62.45811695 -16.53526306 58.41577148 C-16.53259396 56.47648014 -16.53587197 54.53717123 -16.54518127 52.59790039 C-16.55533602 49.8877095 -16.53986128 47.17884225 -16.51757812 44.46875 C-16.52567505 43.66655029 -16.53377197 42.86435059 -16.54211426 42.0378418 C-16.46011699 36.65706364 -16.08964671 36.08964671 -12 32 C-8.04 32 -4.08 32 0 32 C0 21.44 0 10.88 0 0 Z " fill="#000000" transform="translate(400,16)"/>
<path d="M0 0 C5.94 0 11.88 0 18 0 C25.65489601 51.38546314 25.65489601 51.38546314 29.10858154 75.29571533 C29.36821536 77.08950848 29.62930896 78.88309099 29.89190674 80.67645264 C30.25497998 83.15872613 30.61261843 85.64172243 30.96875 88.125 C31.07460419 88.84136627 31.18045837 89.55773254 31.28952026 90.29580688 C31.55814188 92.19297385 31.78075341 94.09649508 32 96 C32.18079102 97.56161865 32.18079102 97.56161865 32.36523438 99.15478516 C31.84893219 103.17683437 30.07665324 104.60777812 27.1875 107.3984375 C26.69918701 107.8782608 26.21087402 108.35808411 25.70776367 108.85244751 C24.15206962 110.3746801 22.57680579 111.87467747 21 113.375 C19.93874055 114.4061505 18.87882786 115.43868902 17.8203125 116.47265625 C15.22894777 118.99803619 12.61961148 121.50389535 10 124 C4.28870718 121.50402642 0.14841205 116.92458929 -4.3125 112.6875 C-5.25673828 111.85154297 -6.20097656 111.01558594 -7.17382812 110.15429688 C-8.06134766 109.30287109 -8.94886719 108.45144531 -9.86328125 107.57421875 C-11.08978394 106.43859497 -11.08978394 106.43859497 -12.34106445 105.2800293 C-15.0670344 99.8902712 -13.80000445 94.84910746 -13 89 C-12.81152303 87.54448905 -12.62337128 86.08893596 -12.4355011 84.63334656 C-11.76920247 79.59325577 -11.04174504 74.56255001 -10.3125 69.53125 C-10.04695352 67.67855452 -9.78174145 65.82581109 -9.5168457 63.97302246 C-8.96464107 60.11673247 -8.409712 56.26084868 -7.85253906 52.40527344 C-7.13918609 47.46867447 -6.43077439 42.53138284 -5.72413635 37.59381866 C-5.04702882 32.86437439 -4.36729672 28.13530834 -3.6875 23.40625 C-3.49445786 22.06059715 -3.49445786 22.06059715 -3.29751587 20.6877594 C-2.93287602 18.14904847 -2.56634625 15.61061786 -2.19921875 13.07226562 C-2.09217621 12.32520355 -1.98513367 11.57814148 -1.87484741 10.80844116 C-1.34708585 7.17384493 -0.72098232 3.60491161 0 0 Z " fill="#BBBDBF" transform="translate(175,352)"/>
<path d="M0 0 C5.01202555 2.98334854 8.38748484 6.43951988 12 11 C11.32904297 11.89138672 11.32904297 11.89138672 10.64453125 12.80078125 C6.19034017 18.90748671 2.73024999 24.94935443 0 32 C-0.32097656 32.81597656 -0.64195312 33.63195312 -0.97265625 34.47265625 C-6.23985247 50.32324209 -3.33499178 67.56220125 3.57421875 82.375 C12.62783331 98.92053336 26.38822794 109.04335326 44.125 114.8125 C60.42228564 118.92773999 78.85519971 115.62366675 93.16796875 107.1171875 C95.04881811 105.88979043 96.91430309 104.63826684 98.7578125 103.35546875 C101 102 101 102 104 102 C105.75390625 103.390625 105.75390625 103.390625 107.5625 105.25 C108.16191406 105.85328125 108.76132812 106.4565625 109.37890625 107.078125 C110.97572113 108.97121638 111.99738545 110.74536429 113 113 C96.71455453 128.17507419 75.70427046 133.84824639 53.84375 133.3046875 C36.82866625 132.49027882 20.77611561 125.09286928 8 114 C6.4840625 112.8553125 6.4840625 112.8553125 4.9375 111.6875 C-10.8311329 97.26087841 -18.8940844 77.09915655 -20.25390625 56.07421875 C-21.03472383 35.7611668 -14.67928314 16.26528698 -1 1 C-0.67 0.67 -0.34 0.34 0 0 Z " fill="#030200" transform="translate(324,283)"/>
<path d="M0 0 C5.28 0 10.56 0 16 0 C16 2.64 16 5.28 16 8 C17.175625 8.0825 18.35125 8.165 19.5625 8.25 C27.26828995 9.26748987 31.76212365 13.23737981 36.5546875 19.05078125 C39.96630601 23.65185595 40 26.11273047 40 32 C34.72 32 29.44 32 24 32 C23.01 30.02 22.02 28.04 21 26 C16.56092566 24.52030855 12.2132164 24.73441375 7.5625 24.6875 C6.60794922 24.65849609 5.65339844 24.62949219 4.66992188 24.59960938 C-0.82463355 24.47384759 -0.82463355 24.47384759 -5.62890625 26.83203125 C-7.50978629 29.80607235 -7.57572939 31.54562367 -7 35 C-5.73425983 37.373351 -5.73425983 37.373351 -3 39 C0.74263927 39.57799881 4.46856763 39.56012771 8.25 39.5625 C18.74751566 39.60930421 26.3202023 40.59621437 34.234375 48.05859375 C39.24158147 53.56430529 40.7088224 58.85606306 40.37109375 66.265625 C39.27545464 74.33875527 35.51414811 79.27170395 29.3125 84.40234375 C24.93722601 87.42512595 21.33799023 88 16 88 C16 90.64 16 93.28 16 96 C10.72 96 5.44 96 0 96 C0 93.36 0 90.72 0 88 C-0.556875 87.99742187 -1.11375 87.99484375 -1.6875 87.9921875 C-9.19138312 87.61192315 -13.30097819 84.65207991 -18.5390625 79.48046875 C-22.94414197 74.59881635 -24 70.47214035 -24 64 C-18.72 64 -13.44 64 -8 64 C-7.01 65.98 -6.02 67.96 -5 70 C-1.25842335 71.87078832 3.25792688 71.18475528 7.375 71.1875 C8.3340625 71.19974609 9.293125 71.21199219 10.28125 71.22460938 C11.20679688 71.22654297 12.13234375 71.22847656 13.0859375 71.23046875 C13.9320459 71.23457764 14.7781543 71.23868652 15.64990234 71.24291992 C18.22256524 70.97699435 19.82173965 70.37815109 22 69 C23.38550197 66.22899606 23.1877467 64.0665294 23 61 C21.27773504 57.75150023 21.27773504 57.75150023 18 57 C16.24813015 56.89717786 14.49304113 56.84514998 12.73828125 56.82421875 C11.70123047 56.80037109 10.66417969 56.77652344 9.59570312 56.75195312 C7.42662514 56.70937158 5.257297 56.67791306 3.08789062 56.65820312 C-4.92060574 56.44550063 -10.37659756 55.16328785 -16.4609375 49.8515625 C-22.40599793 42.93587995 -24.53700605 37.92618267 -24.30078125 28.73828125 C-23.44571185 20.95381831 -19.03190339 16.65394 -13.31640625 11.6640625 C-8.90783404 8.49702749 -5.38650391 7.74946493 0 8 C0 5.36 0 2.72 0 0 Z " fill="#020200" transform="translate(376,288)"/>
<path d="M0 0 C13.95206844 11.61467528 24.61782473 30.0777994 27.26171875 48.1328125 C27.3967535 49.79726259 27.49467767 51.46478921 27.57421875 53.1328125 C27.60676758 53.75687988 27.63931641 54.38094727 27.67285156 55.02392578 C28.4456673 71.91268179 25.67161031 91.56567505 14.57421875 105.1328125 C10.9514556 103.8072544 7.93916527 102.18934295 4.76171875 100.0078125 C3.97152344 99.46898437 3.18132812 98.93015625 2.3671875 98.375 C1.77550781 97.96507812 1.18382812 97.55515625 0.57421875 97.1328125 C1.04472656 96.21242188 1.51523437 95.29203125 2 94.34375 C10.16753352 77.93652002 13.55044035 60.44432663 8.73046875 42.4140625 C2.31762013 24.21543805 -9.45632903 11.28833177 -26.86328125 2.8828125 C-41.41037139 -3.05895671 -58.51201471 -4.52698256 -73.42578125 1.1328125 C-76.62191004 2.67339257 -79.74233261 4.27925279 -82.83203125 6.0234375 C-85.42578125 7.1328125 -85.42578125 7.1328125 -87.53125 7.109375 C-90.27307214 5.69606462 -91.49971192 3.78331321 -93.23828125 1.2578125 C-94.17607422 -0.06863281 -94.17607422 -0.06863281 -95.1328125 -1.421875 C-95.55949219 -2.22882813 -95.98617188 -3.03578125 -96.42578125 -3.8671875 C-95.18921694 -7.57688044 -93.6231104 -8.10223242 -90.25756836 -9.82397461 C-89.54995361 -10.16823486 -88.84233887 -10.51249512 -88.11328125 -10.8671875 C-87.39213135 -11.22240479 -86.67098145 -11.57762207 -85.92797852 -11.94360352 C-57.05011013 -25.7255686 -24.56043148 -18.90480877 0 0 Z " fill="#040200" transform="translate(436.42578125,274.8671875)"/>
<path d="M0 0 C6.02770138 0.47587116 10.76678289 3.19722957 16 6 C15.6757435 7.02018754 15.35148701 8.04037508 15.01740456 9.09147739 C14.0127551 12.62422627 13.74007032 15.84935058 13.7215271 19.53636169 C13.71036362 20.80810745 13.69920013 22.07985321 13.68769836 23.39013672 C13.68533395 24.78149384 13.6831582 26.1728513 13.68115234 27.56420898 C13.67184487 29.04306074 13.66167498 30.52190728 13.65071106 32.00074768 C13.62348927 36.00019458 13.60828494 39.99960641 13.59528303 43.99912143 C13.57961816 48.18451872 13.55283868 52.36984476 13.5272522 56.55519104 C13.48052374 64.47394133 13.44375096 72.39270512 13.41057932 80.31152254 C13.37231595 89.32969525 13.32291686 98.34779628 13.27259517 107.3659085 C13.16936358 125.910554 13.08046969 144.45524272 13 163 C7.72 163 2.44 163 -3 163 C-3.06953718 143.22400522 -3.12303005 123.44804514 -3.15543652 103.6719532 C-3.17088538 94.48894201 -3.19193692 85.30600832 -3.22631836 76.12304688 C-3.25628148 68.11633973 -3.2755894 60.10968874 -3.28226548 52.10292709 C-3.28616606 47.86597291 -3.2952914 43.62917932 -3.31719017 39.39227676 C-3.33766471 35.39829102 -3.34381181 31.40453091 -3.33932304 27.41049767 C-3.34014337 25.95048353 -3.34604345 24.49046128 -3.35761642 23.03049278 C-3.41933993 14.83685198 -2.99349215 7.68412645 0 0 Z " fill="#000000" transform="translate(19,333)"/>
<path d="M0 0 C5.28 0 10.56 0 16 0 C16 39.6 16 79.2 16 120 C10.72 120 5.44 120 0 120 C0 80.4 0 40.8 0 0 Z " fill="#000000" transform="translate(80,376)"/>
<path d="M0 0 C5.28 0 10.56 0 16 0 C16 29.04 16 58.08 16 88 C10.72 88 5.44 88 0 88 C0 58.96 0 29.92 0 0 Z " fill="#000000" transform="translate(272,408)"/>
<path d="M0 0 C2.84625 0.825 5.6925 1.65 8.625 2.5 C24.42126177 6.6688235 40.28556295 6.3584571 56 2 C58.64 1.34 61.28 0.68 64 0 C64 7.26 64 14.52 64 22 C42.88 22 21.76 22 0 22 C0 14.74 0 7.48 0 0 Z " fill="#F8D697" transform="translate(152,266)"/>
<path d="M0 0 C1.2265625 1.390625 1.2265625 1.390625 2.625 3.25 C6.69591984 8.07443145 10.57843259 10.55270615 16.8984375 11.37890625 C23.40070488 11.63277311 28.75526697 11.04427192 34 7 C36.19654163 4.79874476 38.148536 2.49667116 40 0 C44.97209562 1.76429199 49.43438061 4.3939166 54 7 C52.91170115 13.04610473 48.44834815 17.14191575 43.69921875 20.74609375 C34.00896358 26.94352967 23.45963176 29.44954769 12 28 C1.76990806 25.08778405 -8.15816516 19.13893103 -14 10 C-14 9.01 -14 8.02 -14 7 C-11.4453125 5.17578125 -11.4453125 5.17578125 -8.125 3.3125 C-7.03445312 2.68988281 -5.94390625 2.06726563 -4.8203125 1.42578125 C-2 0 -2 0 0 0 Z " fill="#040402" transform="translate(164,204)"/>
<path d="M0 0 C5.28 0 10.56 0 16 0 C16 21.12 16 42.24 16 64 C10.72 64 5.44 64 0 64 C0 42.88 0 21.76 0 0 Z " fill="#FF5023" transform="translate(336,96)"/>
<path d="M0 0 C5.28 0 10.56 0 16 0 C16 21.12 16 42.24 16 64 C10.72 64 5.44 64 0 64 C0 42.88 0 21.76 0 0 Z " fill="#00CCB3" transform="translate(464,80)"/>
<path d="M0 0 C5.28 0 10.56 0 16 0 C16 21.12 16 42.24 16 64 C10.72 64 5.44 64 0 64 C0 42.88 0 21.76 0 0 Z " fill="#00CCB3" transform="translate(400,64)"/>
<path d="M0 0 C6.4488341 3.65174943 11.87665564 8.82043473 13.9453125 16.1015625 C13.9453125 18.0815625 13.9453125 20.0615625 13.9453125 22.1015625 C8.6653125 22.1015625 3.3853125 22.1015625 -2.0546875 22.1015625 C-3.0446875 20.1215625 -4.0346875 18.1415625 -5.0546875 16.1015625 C-7.89552391 14.68114429 -9.90946028 14.78703978 -13.0546875 15.1015625 C-15.90249369 17.33362681 -16.90466416 18.65149249 -18.0546875 22.1015625 C-23.3346875 22.1015625 -28.6146875 22.1015625 -34.0546875 22.1015625 C-33.82215322 14.66046556 -32.28573365 10.44486286 -27.0546875 5.1015625 C-18.9650124 -1.91966494 -10.25549992 -4.44266596 0 0 Z " fill="#030302" transform="translate(226.0546875,145.8984375)"/>
<path d="M0 0 C6.4488341 3.65174943 11.87665564 8.82043473 13.9453125 16.1015625 C13.9453125 18.0815625 13.9453125 20.0615625 13.9453125 22.1015625 C8.6653125 22.1015625 3.3853125 22.1015625 -2.0546875 22.1015625 C-3.0446875 20.1215625 -4.0346875 18.1415625 -5.0546875 16.1015625 C-7.89552391 14.68114429 -9.90946028 14.78703978 -13.0546875 15.1015625 C-15.90249369 17.33362681 -16.90466416 18.65149249 -18.0546875 22.1015625 C-23.3346875 22.1015625 -28.6146875 22.1015625 -34.0546875 22.1015625 C-33.82215322 14.66046556 -32.28573365 10.44486286 -27.0546875 5.1015625 C-18.9650124 -1.91966494 -10.25549992 -4.44266596 0 0 Z " fill="#030302" transform="translate(162.0546875,145.8984375)"/>
<path d="M0 0 C3.6646479 1.59896194 6.44375586 3.88083423 9.5 6.4375 C12.61679603 9.03625713 15.72731135 11.59951375 19 14 C17.37866455 19.74837114 15.08315311 23.4503244 12 29 C4.74 29 -2.52 29 -10 29 C-11.155 26.89625 -12.31 24.7925 -13.5 22.625 C-13.86544922 21.9645166 -14.23089844 21.3040332 -14.60742188 20.62353516 C-17 16.22222222 -17 16.22222222 -17 14 C-15.34516392 12.50122497 -13.62409488 11.07511527 -11.875 9.6875 C-10.87597656 8.88828125 -9.87695312 8.0890625 -8.84765625 7.265625 C-7.90792969 6.51796875 -6.96820313 5.7703125 -6 5 C-4.7670169 3.98377952 -3.53681133 2.96415143 -2.3125 1.9375 C-1.1678125 0.9784375 -1.1678125 0.9784375 0 0 Z " fill="#B9BBBD" transform="translate(183,307)"/>
<path d="M0 0 C5.28 0 10.56 0 16 0 C16 13.2 16 26.4 16 40 C10.72 40 5.44 40 0 40 C0 26.8 0 13.6 0 0 Z " fill="#000000" transform="translate(336,456)"/>
<path d="M0 0 C1.18851563 0.3609375 2.37703125 0.721875 3.6015625 1.09375 C21.21967568 6.1429092 38.24989194 6.9439839 56 2 C57.62427045 1.60118359 59.24915497 1.20484802 60.875 0.8125 C61.90625 0.544375 62.9375 0.27625 64 0 C64 2.31 64 4.62 64 7 C48.51994618 16.1616645 29.10138165 15.38289626 12 12 C2.07755776 9.07755776 2.07755776 9.07755776 0 7 C-0.04092937 4.66702567 -0.04241723 2.33294775 0 0 Z " fill="#F4C47E" transform="translate(152,266)"/>
<path d="M0 0 C0 10.56 0 21.12 0 32 C-6.94235526 31.00823496 -8.39157458 30.71316237 -13 26 C-16.25748422 21.22235648 -16.91033792 16.63398025 -16 11 C-12.44947467 4.03045028 -7.82609187 0 0 0 Z " fill="#F1C17B" transform="translate(96,144)"/>
<path d="M0 0 C7.91317365 1.13045338 7.91317365 1.13045338 10.8125 3.8125 C11.37582031 4.31394531 11.93914062 4.81539062 12.51953125 5.33203125 C15.95391382 9.2013752 16.44048894 12.65801504 16.31640625 17.6875 C15.64389752 22.60262553 13.12234243 25.84732399 9.6875 29.375 C7 31 7 31 0 32 C0 21.44 0 10.88 0 0 Z " fill="#F2C27C" transform="translate(272,144)"/>
<path d="M0 0 C3.68743234 -0.05850924 7.3747437 -0.09376673 11.0625 -0.125 C12.10083984 -0.14175781 13.13917969 -0.15851563 14.20898438 -0.17578125 C19.88711284 -0.21183286 24.64391054 0.07028834 30 2 C30.26442904 9.59498961 29.60881575 16.57359158 28 24 C22.53449829 20.10697504 17.55486648 15.85111991 12.609375 11.3203125 C9.13779706 8.23331056 5.50616028 5.37708428 1.8359375 2.53125 C1.23007813 2.0259375 0.62421875 1.520625 0 1 C0 0.67 0 0.34 0 0 Z " fill="#005C85" transform="translate(206,304)"/>
<path d="M0 0 C-19.58477509 19.79238754 -19.58477509 19.79238754 -28 24 C-29.60881575 16.57359158 -30.26442904 9.59498961 -30 2 C-20.0529464 -0.5035281 -10.17233107 -0.18974296 0 0 Z " fill="#005C85" transform="translate(162,304)"/>
</svg>
